<svg id="Layer_1" data-name="Layer 1" xmlns="http://www.w3.org/2000/svg" viewBox="0 0 393.88 142.44"><defs><style>.cls-1{fill:#88542b;}</style></defs><path class="cls-1" d="M357.74,200.17a34.49,34.49,0,0,0-31.52,18.2c-7.91-24-33.06-41-58.25-39.5s-48.11,21.46-53.1,46.2c-9-7.2-24.57-2.71-28.34,8.17-12.73-10.83-34.87-7.26-43.55,7-6.52-9.43-21.36-7.95-31-1.76s-16.94,15.76-27.13,21-25.7,3.65-29.38-7.21c-6.15,8.65.41,21.6,10.11,25.89s20.88,2.53,31.33.69c7.86,19.5,34.08,28.94,52.58,18.94C165.28,325,209,329.48,230,306.15c12.19,14.44,40,8.56,45.32-9.57,11.59,6.22,27.94.54,33.17-11.53a35.93,35.93,0,0,0,61.77-16.56c24.79,19.09,66.92,6.13,76.7-23.58-5.54,16.83-44.15,1.66-51.08-5.66C381.78,224.39,384.93,201.44,357.74,200.17Z" transform="translate(-53.06 -178.78)"/></svg>