<svg id="Layer_1" data-name="Layer 1" xmlns="http://www.w3.org/2000/svg" viewBox="0 0 420.1 124.45"><defs><style>.cls-1{fill:#3a2113;}</style></defs><path class="cls-1" d="M336.44,188.16c-12,1.59-23.47,11.12-24.17,23.21-7.65-6.67-21.41-3.8-25.76,5.37a53.51,53.51,0,0,0-51.17-16.17c-8.7,2.06-17.78,7.6-19.2,16.43-11.8-8.7-31.25-3.1-36.6,10.56A20.53,20.53,0,0,0,143.42,235a24.08,24.08,0,0,0-23.7-2.33c-2.22,1-4.42,2.42-6.86,2.38-3.21-.06-5.81-2.58-8.88-3.5-8-2.42-14.67,6.13-21.78,10.61-12.47,7.85-28.82,3.1-42.25-3,7,21.29,33.39,33.83,54.34,25.82a30,30,0,0,0,44.44,22.87c7.71,12.51,20.55,22.38,35.14,24.08s30.47-6.07,36-19.69c10.41,10,24.46,17,38.82,15.86s28.29-12.1,29.8-26.43a34.73,34.73,0,0,0,60.73-7.6c9.58,9.71,25.83,12,37.7,5.26s18.3-21.81,14.92-35a45.11,45.11,0,0,0,68.2-20.47c-19.94,8.45-44.46,4.79-61.07-9.09C382.66,201.15,359.45,185.1,336.44,188.16Z" transform="translate(-39.95 -187.78)"/></svg>