<svg id="Layer_1" data-name="Layer 1" xmlns="http://www.w3.org/2000/svg" viewBox="0 0 300 495.74"><defs><style>.cls-1{fill:#b0682d;}</style></defs><path class="cls-1" d="M207.35,296.53a24.59,24.59,0,0,0,10.47-2.29c9.78-4.6,16.15-15.64,15.49-26.84a40.87,40.87,0,0,0-13.57-27c-7.09-5.76-17.17-8.24-27-6.63-8.55,1.4-16.88,5.69-24.09,12.42-8,7.48-12.09,16.17-11.5,24.48a4.36,4.36,0,0,0,8.7-.63c-.55-7.59,5.25-14.21,8.75-17.47,5.95-5.55,12.71-9.08,19.56-10.2,7.38-1.21,14.88.58,20.06,4.8a28.72,28.72,0,0,1,8.3,12.08,28.29,28.29,0,0,1,2.06,8.65c.45,7.6-4,15.36-10.49,18.43s-15.41,1.11-19.61-4.46a13.29,13.29,0,0,1-1.83-12.82,10.56,10.56,0,0,1,10.06-6.34c4,.35,7.52,3.94,7.63,7.67a7.07,7.07,0,0,1-2.24,5.1,6.22,6.22,0,0,1-4.53,1.93,4.36,4.36,0,1,0-.45,8.7,14.84,14.84,0,0,0,11.08-4.4,15.73,15.73,0,0,0,4.86-11.59c-.25-8.13-7.23-15.35-15.57-16.1-7.73-.68-15.66,4.18-18.85,11.57a22,22,0,0,0,2.88,21.53C192.07,293.16,199.69,296.53,207.35,296.53Z" transform="translate(-11 -2.13)"/><path class="cls-1" d="M161.88,432h30a4.34,4.34,0,0,0,4.35-4.6c0-.12-.66-11.86,0-25.06a42,42,0,0,0-5.24-22.56c4.86-7.37,6.78-14.61,5.71-21.54-1.24-8-6.35-15.24-15.21-21.61-10.09-7.25-16.84-17.75-16.91-17.85a4.36,4.36,0,1,0-7.35,4.68,82.7,82.7,0,0,0,19.17,20.26c6.89,5,10.82,10.28,11.68,15.85.82,5.31-1.14,11.19-5.82,17.48a4.35,4.35,0,0,0,0,5.26,32.52,32.52,0,0,1,5.22,19.59c-.43,8.69-.32,16.62-.18,21.38H161.88a4.36,4.36,0,1,0,0,8.72Z" transform="translate(-11 -2.13)"/><path class="cls-1" d="M161.54,462h48a4.37,4.37,0,0,0,4.36-4.37v-48c.34-2.57,1.92-17.21-5.61-26.37,3.89-8.83,13.75-35.55-2.46-48.78-24.18-19.74-37.25-38.11-40-56.16a4.36,4.36,0,1,0-8.62,1.3c3.05,20.29,17.14,40.44,43.07,61.61,11.41,9.31,3.06,32.7-1.13,40.93a4.38,4.38,0,0,0,1.06,5.3c6,5.09,5.63,17,5,21.2a3.71,3.71,0,0,0-.05.67v44H161.54a4.36,4.36,0,0,0,0,8.72Z" transform="translate(-11 -2.13)"/><path class="cls-1" d="M255,481.57a4.36,4.36,0,0,0,.22-8.71c-9.74-.51-36.22-4.56-41.74-17a151.57,151.57,0,0,0-18.29-30.92,4.36,4.36,0,1,0-6.79,5.47,144.79,144.79,0,0,1,17.11,29c3.81,8.62,13.43,15,28.58,18.91a114.82,114.82,0,0,0,20.69,3.3Z" transform="translate(-11 -2.13)"/><path class="cls-1" d="M256.82,354.88a121.8,121.8,0,0,0,31.35-3.9,4.36,4.36,0,0,0-2.42-8.37h0c-.55.15-55.17,15.33-93-19.93a4.36,4.36,0,0,0-5.95,6.38C209.22,350,236.29,354.88,256.82,354.88Z" transform="translate(-11 -2.13)"/><path class="cls-1" d="M161.2,219.62a4.35,4.35,0,0,0,4.35-4.26c.61-24.46,13.94-36.12,23.49-41.35a23.63,23.63,0,0,0-.71,5.49c0,.52,0,1,0,1.52.61,10.1,7.81,19.5,18.34,24,9.81,4.17,20,3,27.18-3.2,9.61-8.24,15-22.05,13.82-35.2a31.53,31.53,0,0,0-11.62-22.11c-8.34-6.78-20.25-9.86-32.67-8.43a58.56,58.56,0,0,0-46.57,34.62,4.36,4.36,0,1,0,8,3.42c6.66-15.63,22.56-27.44,39.55-29.38,10-1.14,19.73,1.3,26.18,6.53A22.77,22.77,0,0,1,239,167.38c1,10.42-3.28,21.32-10.81,27.77-4.64,4-11.41,4.65-18.11,1.81-7.39-3.14-12.63-9.75-13-16.44,0-.31,0-.64,0-1,0-3.47,1.43-7.23,4.14-11.14a4.36,4.36,0,0,0-4.52-6.75,53,53,0,0,0-19.6,9.95c-8.92,7.1-19.66,20.42-20.23,43.55a4.36,4.36,0,0,0,4.25,4.47Z" transform="translate(-11 -2.13)"/><path class="cls-1" d="M305.61,314l.45,0a4.36,4.36,0,0,0,3.89-4.78c-3.39-33-22.38-56.35-54.92-67.56a136.19,136.19,0,0,0-47.82-6.94,4.36,4.36,0,0,0,.54,8.7h0c.22,0,22.2-1.24,44.67,6.56,29.37,10.2,45.8,30.43,48.85,60.13A4.37,4.37,0,0,0,305.61,314Z" transform="translate(-11 -2.13)"/><path class="cls-1" d="M255.66,335.3a19.88,19.88,0,0,0,2.78-.2c9.54-1.36,15.55-9,18.28-13.46,5.14-8.34,7.6-18.86,6.94-29.64a72.82,72.82,0,0,0-8.34-28.64c-3.89-7.6-10.21-18.08-20.08-21.35a4.36,4.36,0,1,0-2.74,8.27c5.13,1.7,10.06,7.28,15.06,17A63.94,63.94,0,0,1,275,292.54a42.13,42.13,0,0,1-5.65,24.53c-3.29,5.34-7.7,8.77-12.1,9.4a13,13,0,0,1-10.2-3.31c-3.34-3-4.91-7.79-3.82-11.62s5.07-6.62,8.57-6.14a6.42,6.42,0,0,1,4.32,3,5.12,5.12,0,0,1,.73,4.25,4.36,4.36,0,0,0,8.28,2.75,13.79,13.79,0,0,0-1.61-11.61A15.12,15.12,0,0,0,253,296.76c-7.77-1.08-15.92,4.49-18.16,12.4-2,7,.57,15.24,6.37,20.48A21.86,21.86,0,0,0,255.66,335.3Z" transform="translate(-11 -2.13)"/><path class="cls-1" d="M247.45,353.88a4.36,4.36,0,0,0,1.7-8.38c-6.47-2.74-13.7-6.15-17.46-12-1.75-2.71-2.93-6.17-3.71-10.9a33.45,33.45,0,0,1-.39-10.15c1.42-10.27,11.39-19.08,21.76-19.22s20.58,8.37,22.29,18.6a4.36,4.36,0,1,0,8.6-1.43c-2.42-14.48-16.36-26.14-31-25.89S221,296.75,219,311.3a42.07,42.07,0,0,0,.42,12.76c1,5.95,2.58,10.47,5,14.22,5.1,7.88,13.71,12,21.38,15.25A4.46,4.46,0,0,0,247.45,353.88Z" transform="translate(-11 -2.13)"/><path class="cls-1" d="M242.8,245.89a28.3,28.3,0,0,0,22.07-10.47,26.07,26.07,0,0,0,3.45-26.17,16.65,16.65,0,0,0-5.69-7.16c-3.12-2.12-6.7-2.66-9.81-3a27.35,27.35,0,0,0-7.41,0,17.14,17.14,0,0,0-6.22,31.51,12.65,12.65,0,0,0,7.23,2c6-.3,9.73-5.34,11.75-8.05a4.36,4.36,0,0,0-7-5.2c-1.07,1.44-3.3,4.45-5.17,4.54a4.25,4.25,0,0,1-2.23-.75,8.42,8.42,0,0,1,3.06-15.49,20.06,20.06,0,0,1,5.06.09c2.16.24,4.39.55,5.84,1.54a8.26,8.26,0,0,1,2.64,3.52A17.13,17.13,0,0,1,258,230a19.79,19.79,0,0,1-16.57,7.1,4.36,4.36,0,0,0-.61,8.7C241.49,245.87,242.15,245.89,242.8,245.89Z" transform="translate(-11 -2.13)"/><path class="cls-1" d="M195.25,146.2a4.24,4.24,0,0,0,1.11-.15A26.7,26.7,0,0,0,215,112a20.61,20.61,0,0,0-7.21-10.42c-3.52-2.56-7.72-3.54-11-4.1a24.85,24.85,0,0,0-10.32,0,16.64,16.64,0,0,0-5.66,29.69,12.81,12.81,0,0,0,10.05,2.38,9.64,9.64,0,0,0,7.68-9.09,4.37,4.37,0,0,0-2.84-7.33,5.18,5.18,0,0,0-4,1.37c-1.95,1.82-1.92,4.43-1.9,6a1.44,1.44,0,0,1-.82.55,4.26,4.26,0,0,1-3.11-1,7.93,7.93,0,0,1,2.69-14.14,17.16,17.16,0,0,1,6.73.15c2.48.43,5.29,1.07,7.33,2.56a12.15,12.15,0,0,1,4.06,6.08,18,18,0,0,1-12.52,23,4.36,4.36,0,0,0,1.1,8.58Z" transform="translate(-11 -2.13)"/><path class="cls-1" d="M183.25,106.46a4.36,4.36,0,0,0,1.16-8.56A9.19,9.19,0,0,1,178.17,86a16.45,16.45,0,0,1,1.34-2.76c1.9-3.28,3.94-5.29,6-6a11.09,11.09,0,0,1,3.87-.34,5.24,5.24,0,0,1,2.47.5,1.68,1.68,0,0,1,.49,1.33,4.56,4.56,0,0,1-1.08,2.59,4.36,4.36,0,1,0,6.88,5.37A13,13,0,0,0,201.1,79,10.26,10.26,0,0,0,197,70.43a12.88,12.88,0,0,0-7.2-2.17,19.29,19.29,0,0,0-6.94.75c-4.22,1.35-7.9,4.67-10.92,9.88a25.23,25.23,0,0,0-2,4.29,17.91,17.91,0,0,0,12.16,23.12A4.27,4.27,0,0,0,183.25,106.46Z" transform="translate(-11 -2.13)"/><path class="cls-1" d="M196.58,240.72a4.36,4.36,0,0,0,4.07-2.79,31.74,31.74,0,0,0,1.42-17.86,15,15,0,0,0-1.55-4.34,13.51,13.51,0,0,0-5.89-5.27c-7.41-3.72-16.49-2-21.11,4a13.92,13.92,0,0,0-.75,16c3.54,5.2,10.91,6.9,16.1,3.72a4.36,4.36,0,0,0-4.55-7.44,3.59,3.59,0,0,1-4.34-1.18,5.15,5.15,0,0,1,.43-5.71c2.05-2.65,6.68-3.33,10.31-1.51a5.21,5.21,0,0,1,2.23,1.81,7,7,0,0,1,.59,1.83,22.88,22.88,0,0,1-1,12.89,4.38,4.38,0,0,0,4.07,5.94Z" transform="translate(-11 -2.13)"/><path class="cls-1" d="M239.2,395.81a18.42,18.42,0,0,0,10-2.87,22.07,22.07,0,0,0,7.8-9.48c2.47-5.4,2.76-10.77.82-15.14a14.08,14.08,0,0,0-26.92,4.94,4.36,4.36,0,1,0,8.7.48,5.37,5.37,0,0,1,10.26-1.88c.89,2,.6,4.92-.79,8a13.76,13.76,0,0,1-4.62,5.8c-3.42,2.22-8.52,1.89-12.13-.77a15.48,15.48,0,0,1-5.79-12.35,23.71,23.71,0,0,1,5.21-14.16c1.83-2.4,3.62-3.77,5.2-4a4.36,4.36,0,1,0-1.11-8.65c-4,.51-7.7,3-11,7.33a32.4,32.4,0,0,0-7,19.47,24,24,0,0,0,9.33,19.35A20.36,20.36,0,0,0,239.2,395.81Z" transform="translate(-11 -2.13)"/><path class="cls-1" d="M247.84,467.6c5.86,0,10.67-3.6,12.66-9.71a4.36,4.36,0,1,0-8.29-2.7c-.94,2.9-2.84,4.1-5.62,3.56-3.32-.64-6.6-3.65-6.34-7.6.31-4.75,2.68-7.26,7.05-7.45,6.2-.28,14.21,4.54,15.23,11.16a4.36,4.36,0,1,0,8.62-1.34c-1.46-9.4-11.54-19.11-24.23-18.53-8.88.39-14.77,6.36-15.38,15.59-.57,8.75,6.36,15.38,13.4,16.73A14.62,14.62,0,0,0,247.84,467.6Z" transform="translate(-11 -2.13)"/><path class="cls-1" d="M237.7,446.8a4.36,4.36,0,0,0,1.66-8.4c-5.6-2.29-10.38-7.06-12.19-12.15-2.24-6.28.76-10.69,3.66-13.28,4.62-4.12,11.94-5.93,16-4,.8.39,3.22,1.58,2.87,6.58a10,10,0,0,1-4.43,7.09,6,6,0,0,1-5.27.9,4.45,4.45,0,0,1-3-3.17,4.36,4.36,0,0,0-8.68.77c.41,4.64,3.93,8.91,8.76,10.62A14.45,14.45,0,0,0,250,430a18.75,18.75,0,0,0,8.35-13.77c.48-6.9-2.34-12.37-7.72-15-7.26-3.56-18.27-1.3-25.63,5.26-6.83,6.09-9,14.37-6.08,22.71,2.64,7.43,9.19,14.06,17.1,17.3A4.38,4.38,0,0,0,237.7,446.8Z" transform="translate(-11 -2.13)"/><path class="cls-1" d="M67.82,497.87H254.28a4.36,4.36,0,0,0,4.36-4.36V480.06c5.41-2.94,15.49-11.5,14.34-34.31-1.34-26.68,0-67.83,0-68.25a4.13,4.13,0,0,0,0-.5c-.07-.85-1.46-21.05,14.7-26,7.68-2.37,14.2-9.09,18.36-18.92,7.24-17.13,8.52-48.11-9.62-83.68C274.22,204.82,185.5,43.67,166.43,9.07V6.49a4.36,4.36,0,0,0-3.27-4.22,4.31,4.31,0,0,0-2.11,0,4.31,4.31,0,0,0-2.11,0,4.36,4.36,0,0,0-3.27,4.22V9.07C136.6,43.66,47.89,204.81,25.69,248.36,7.56,283.93,8.83,314.91,16.07,332c4.16,9.83,10.68,16.55,18.36,18.92,16.16,5,14.77,25.19,14.7,26.05a4,4,0,0,0,0,.49c0,.42,1.34,41.57,0,68.25-1.14,22.81,8.93,31.37,14.34,34.31v13.45A4.36,4.36,0,0,0,67.82,497.87Zm182.1-8.72H72.18V477.21A4.36,4.36,0,0,0,68.92,473c-.44-.13-12.24-3.9-11.09-26.81,1.31-26,.12-65.42,0-68.74a45.27,45.27,0,0,0-1.62-14.27c-3-10.48-9.64-17.59-19.21-20.54-5.19-1.6-9.77-6.57-12.9-14-6.48-15.32-7.43-43.42,9.35-76.32C54.82,210.42,138.11,59,161.05,17.37,184,59,267.28,210.43,288.64,252.32c16.78,32.9,15.83,61,9.35,76.32-3.13,7.42-7.71,12.39-12.89,14-9.58,2.95-16.22,10.06-19.22,20.54a45.27,45.27,0,0,0-1.62,14.27c-.11,3.32-1.3,42.73,0,68.74,1.15,22.91-10.65,26.68-11.15,26.83a4.27,4.27,0,0,0-3.2,4.2Z" transform="translate(-11 -2.13)"/><path class="cls-1" d="M115.22,296.53c7.66,0,15.27-3.37,19.81-9.39a22,22,0,0,0,2.87-21.53c-3.19-7.39-11.11-12.25-18.84-11.57-8.34.75-15.33,8-15.57,16.1a15.68,15.68,0,0,0,4.85,11.59,14.89,14.89,0,0,0,11.09,4.4,4.36,4.36,0,1,0-.45-8.7,6.25,6.25,0,0,1-4.54-1.93,7.11,7.11,0,0,1-2.24-5.1c.12-3.73,3.68-7.32,7.63-7.67a10.55,10.55,0,0,1,10.06,6.34,13.27,13.27,0,0,1-1.83,12.82c-4.19,5.57-13,7.57-19.6,4.46S97.52,275.52,98,267.91a28.34,28.34,0,0,1,2.07-8.64,28.63,28.63,0,0,1,8.3-12.08c5.18-4.22,12.68-6,20.06-4.8,6.85,1.12,13.61,4.65,19.56,10.2,3.5,3.26,9.29,9.88,8.75,17.47a4.36,4.36,0,0,0,8.69.63c.6-8.31-3.48-17-11.5-24.48-7.2-6.73-15.54-11-24.09-12.42-9.8-1.61-19.89.87-27,6.63a37.24,37.24,0,0,0-10.92,15.67,36.71,36.71,0,0,0-2.65,11.31c-.66,11.2,5.71,22.24,15.49,26.84A24.55,24.55,0,0,0,115.22,296.53Z" transform="translate(-11 -2.13)"/><path class="cls-1" d="M130.74,432h29.95a4.36,4.36,0,0,0,0-8.72H135.28c.14-4.76.25-12.69-.19-21.38a31.88,31.88,0,0,1,5.23-19.59,4.35,4.35,0,0,0,0-5.26c-4.69-6.29-6.65-12.17-5.82-17.48.86-5.57,4.79-10.9,11.68-15.85a82.7,82.7,0,0,0,19.17-20.26,4.36,4.36,0,0,0-7.36-4.69h0c-.06.11-6.86,10.65-16.9,17.86-8.86,6.37-14,13.64-15.21,21.61-1.07,6.93.85,14.17,5.71,21.54a41.94,41.94,0,0,0-5.25,22.56c.66,13.22,0,24.94,0,25.06a4.34,4.34,0,0,0,4.35,4.6Z" transform="translate(-11 -2.13)"/><path class="cls-1" d="M113,461.94h48a4.36,4.36,0,0,0,0-8.72H117.4v-44a5.06,5.06,0,0,0-.05-.68c-.64-4.16-1-16.1,5-21.19a4.35,4.35,0,0,0,1.06-5.3c-4.18-8.23-12.54-31.62-1.13-40.93,25.93-21.17,40-41.32,43.08-61.61a4.62,4.62,0,0,0,0-.65V8.34a4.36,4.36,0,1,0-8.72,0V278.57c-2.83,17.95-15.89,36.22-39.92,55.84-16.22,13.23-6.35,39.95-2.47,48.78-7.52,9.16-6,23.8-5.6,26.38v48A4.35,4.35,0,0,0,113,461.94Z" transform="translate(-11 -2.13)"/><path class="cls-1" d="M67.53,481.57h.23a114.77,114.77,0,0,0,20.68-3.3C103.6,474.33,113.21,468,117,459.35a144.79,144.79,0,0,1,17.11-29,4.36,4.36,0,0,0-6.8-5.47,151.57,151.57,0,0,0-18.29,30.92c-5.52,12.48-32,16.53-41.74,17a4.36,4.36,0,0,0,.22,8.71Z" transform="translate(-11 -2.13)"/><path class="cls-1" d="M65.75,354.88c20.53,0,47.59-4.93,70-25.82a4.36,4.36,0,1,0-5.94-6.38c-37.82,35.26-92.44,20.08-93,19.93A4.36,4.36,0,1,0,34.4,351,121.71,121.71,0,0,0,65.75,354.88Z" transform="translate(-11 -2.13)"/><path class="cls-1" d="M161.37,219.62h.11a4.37,4.37,0,0,0,4.25-4.47c-.57-23.13-11.32-36.45-20.24-43.55a52.89,52.89,0,0,0-19.6-9.95,4.36,4.36,0,0,0-4.52,6.75c2.72,3.91,4.11,7.67,4.14,11.17,0,.31,0,.64,0,1-.4,6.66-5.64,13.27-13,16.41-6.69,2.84-13.46,2.16-18.1-1.81-7.53-6.45-11.78-17.35-10.81-27.77A22.7,22.7,0,0,1,92,151.23c6.44-5.23,16.23-7.67,26.18-6.53,17,1.94,32.88,13.75,39.55,29.38a4.36,4.36,0,1,0,8-3.42A58.57,58.57,0,0,0,119.14,136c-12.42-1.43-24.32,1.65-32.67,8.43a31.53,31.53,0,0,0-11.62,22.11c-1.21,13.15,4.21,27,13.83,35.2,7.21,6.17,17.37,7.37,27.18,3.2,10.53-4.46,17.73-13.86,18.33-23.93,0-.53,0-1,0-1.53a23.2,23.2,0,0,0-.71-5.51c9.55,5.22,22.89,16.89,23.49,41.35A4.36,4.36,0,0,0,161.37,219.62Z" transform="translate(-11 -2.13)"/><path class="cls-1" d="M15.37,314.57a4.35,4.35,0,0,0,4.33-3.91c3.06-29.78,19.84-50.13,49.88-60.48a133.78,133.78,0,0,1,45.26-6.74,4.36,4.36,0,1,0,.48-8.71,141,141,0,0,0-48.58,7.21C33.68,253.33,14.41,276.79,11,309.77a4.36,4.36,0,0,0,3.9,4.78A3.39,3.39,0,0,0,15.37,314.57Z" transform="translate(-11 -2.13)"/><path class="cls-1" d="M66.91,335.3a21.88,21.88,0,0,0,14.5-5.66c5.79-5.24,8.35-13.47,6.37-20.48-2.24-7.91-10.39-13.47-18.16-12.4a15.12,15.12,0,0,0-10.53,7.06,13.79,13.79,0,0,0-1.6,11.61,4.36,4.36,0,0,0,8.28-2.75,5.08,5.08,0,0,1,.73-4.25,6.4,6.4,0,0,1,4.31-3c3.51-.48,7.51,2.38,8.58,6.14s-.49,8.61-3.83,11.62a13,13,0,0,1-10.2,3.31c-4.39-.63-8.8-4.05-12.09-9.4a42.21,42.21,0,0,1-5.66-24.53A64.28,64.28,0,0,1,55,267.33l.56-1.09c3.41-6.69,6.94-13.6,12.9-15.58a4.36,4.36,0,1,0-2.75-8.27c-9.35,3.1-13.9,12-17.92,19.89l-.55,1.08A72.64,72.64,0,0,0,38.91,292c-.66,10.78,1.8,21.3,6.93,29.64,2.73,4.44,8.74,12.09,18.29,13.46A19.88,19.88,0,0,0,66.91,335.3Z" transform="translate(-11 -2.13)"/><path class="cls-1" d="M75.12,353.88a4.41,4.41,0,0,0,1.69-.35c7.67-3.25,16.28-7.37,21.38-15.25,2.43-3.75,4-8.27,5-14.22a41.44,41.44,0,0,0,.42-12.76c-2-14.55-15.59-26.55-30.27-26.75s-28.59,11.41-31,25.89a4.36,4.36,0,1,0,8.6,1.43c1.71-10.23,11.91-18.71,22.29-18.6s20.33,9,21.76,19.22a33.45,33.45,0,0,1-.39,10.15c-.78,4.73-2,8.19-3.72,10.9-3.76,5.81-11,9.22-17.46,12a4.36,4.36,0,0,0,1.71,8.38Z" transform="translate(-11 -2.13)"/><path class="cls-1" d="M79.77,245.89c.65,0,1.3,0,2-.07a4.36,4.36,0,0,0-.6-8.7A19.81,19.81,0,0,1,64.54,230a17.17,17.17,0,0,1-2.34-17.2,8.34,8.34,0,0,1,2.64-3.52c1.46-1,3.69-1.3,5.84-1.54a20.14,20.14,0,0,1,5.07-.09,8.43,8.43,0,0,1,3.06,15.49,4.38,4.38,0,0,1-2.24.75c-1.87-.09-4.1-3.1-5.17-4.54a4.36,4.36,0,1,0-7,5.2c2,2.71,5.76,7.75,11.74,8.05a12.68,12.68,0,0,0,7.24-2,17.14,17.14,0,0,0-6.22-31.51,27.35,27.35,0,0,0-7.41,0c-3.11.34-6.69.88-9.81,3a16.67,16.67,0,0,0-5.7,7.16,26.1,26.1,0,0,0,3.46,26.17A28.3,28.3,0,0,0,79.77,245.89Z" transform="translate(-11 -2.13)"/><path class="cls-1" d="M127.32,146.2a4.36,4.36,0,0,0,1.1-8.58,18,18,0,0,1-12.52-23,12.08,12.08,0,0,1,4.06-6.08c2-1.49,4.85-2.13,7.33-2.56a16.93,16.93,0,0,1,6.72-.15,7.92,7.92,0,0,1,2.7,14.14,4.27,4.27,0,0,1-3.12,1,1.3,1.3,0,0,1-.82-.61c0-1.49,0-4.1-1.9-5.92a5.15,5.15,0,0,0-4-1.37,4.36,4.36,0,0,0-4,4.69,4.28,4.28,0,0,0,1.17,2.63,9.64,9.64,0,0,0,7.68,9.1,12.74,12.74,0,0,0,10-2.38,16.64,16.64,0,0,0-5.66-29.69,24.81,24.81,0,0,0-10.31,0c-3.27.56-7.48,1.54-11,4.1A20.55,20.55,0,0,0,107.61,112a26.68,26.68,0,0,0,18.59,34.09A4.37,4.37,0,0,0,127.32,146.2Z" transform="translate(-11 -2.13)"/><path class="cls-1" d="M139.31,106.46a4.21,4.21,0,0,0,1.16-.16,17.89,17.89,0,0,0,12.16-23.12,25.3,25.3,0,0,0-2-4.29c-3-5.21-6.7-8.53-10.93-9.88a19.73,19.73,0,0,0-6.93-.75,12.91,12.91,0,0,0-7.21,2.17A10.26,10.26,0,0,0,121.46,79a13.12,13.12,0,0,0,2.93,7.78,4.36,4.36,0,1,0,6.87-5.37,4.63,4.63,0,0,1-1.08-2.59,1.76,1.76,0,0,1,.5-1.34,5.38,5.38,0,0,1,2.47-.49,11.14,11.14,0,0,1,3.87.34c2.1.67,4.13,2.68,6,6A15.55,15.55,0,0,1,144.39,86a9.19,9.19,0,0,1-6.24,11.87,4.36,4.36,0,0,0,1.16,8.56Z" transform="translate(-11 -2.13)"/><path class="cls-1" d="M126,240.72a4.37,4.37,0,0,0,4.06-5.94,22.87,22.87,0,0,1-1-12.89,6.64,6.64,0,0,1,.58-1.83,5.31,5.31,0,0,1,2.24-1.81c3.63-1.82,8.25-1.14,10.31,1.51a5.15,5.15,0,0,1,.42,5.71,3.57,3.57,0,0,1-4.33,1.18,4.36,4.36,0,1,0-4.56,7.44c5.2,3.18,12.57,1.48,16.1-3.72a13.92,13.92,0,0,0-.74-16c-4.63-6-13.71-7.68-21.11-4a13.46,13.46,0,0,0-5.89,5.27,15,15,0,0,0-1.55,4.34,31.66,31.66,0,0,0,1.42,17.86A4.36,4.36,0,0,0,126,240.72Z" transform="translate(-11 -2.13)"/><path class="cls-1" d="M83.37,395.81a20.38,20.38,0,0,0,12-3.93,24,24,0,0,0,9.33-19.35,32.53,32.53,0,0,0-7-19.47c-3.32-4.35-7-6.82-11-7.33a4.36,4.36,0,1,0-1.11,8.65c1.57.2,3.37,1.57,5.19,4A23.66,23.66,0,0,1,96,372.51a15.48,15.48,0,0,1-5.79,12.35c-3.61,2.66-8.72,3-12.13.77a13.68,13.68,0,0,1-4.62-5.8c-1.4-3.05-1.69-5.95-.79-8a5.36,5.36,0,0,1,10.25,1.88,4.36,4.36,0,0,0,8.71-.48,14.08,14.08,0,0,0-26.93-4.94c-1.94,4.36-1.64,9.74.83,15.14a22.07,22.07,0,0,0,7.8,9.48A18.39,18.39,0,0,0,83.37,395.81Z" transform="translate(-11 -2.13)"/><path class="cls-1" d="M74.72,467.6a14.65,14.65,0,0,0,2.91-.29c7-1.35,14-8,13.39-16.73-.6-9.22-6.5-15.2-15.37-15.59-12.68-.59-22.78,9.13-24.24,18.53A4.36,4.36,0,0,0,60,454.86c1-6.62,9-11.44,15.23-11.16,4.37.19,6.75,2.7,7.06,7.45.26,4-3,7-6.34,7.6-2.79.54-4.68-.66-5.62-3.56a4.36,4.36,0,0,0-8.3,2.7C64.05,464,68.86,467.6,74.72,467.6Z" transform="translate(-11 -2.13)"/><path class="cls-1" d="M84.86,446.8a4.24,4.24,0,0,0,1.66-.33c7.9-3.24,14.45-9.87,17.09-17.3,3-8.34.76-16.62-6.07-22.71-7.36-6.56-18.38-8.82-25.63-5.26-5.39,2.64-8.2,8.11-7.72,15A18.72,18.72,0,0,0,72.54,430a14.43,14.43,0,0,0,13,1.83c4.83-1.71,8.36-6,8.77-10.62a4.36,4.36,0,0,0-8.69-.77,4.4,4.4,0,0,1-3,3.17,6,6,0,0,1-5.27-.9,10,10,0,0,1-4.43-7.09c-.35-5,2.07-6.19,2.86-6.58,4-2,11.36-.17,16,4,2.9,2.59,5.89,7,3.66,13.28-1.81,5.09-6.6,9.86-12.19,12.15a4.36,4.36,0,0,0,1.65,8.4Z" transform="translate(-11 -2.13)"/><path class="cls-1" d="M122.1,445.92H201a4.36,4.36,0,0,0,0-8.72H122.1a4.36,4.36,0,1,0,0,8.72Z" transform="translate(-11 -2.13)"/></svg>