<svg id="Layer_1" data-name="Layer 1" xmlns="http://www.w3.org/2000/svg" xmlns:xlink="http://www.w3.org/1999/xlink" viewBox="0 0 345.99 341.06"><defs><style>.cls-1{fill:url(#linear-gradient);}.cls-2{fill:url(#linear-gradient-2);}.cls-3{fill:url(#linear-gradient-3);}.cls-4{fill:#ef9344;}.cls-5{fill:url(#linear-gradient-4);}.cls-6{fill:url(#linear-gradient-5);}.cls-7{fill:url(#linear-gradient-6);}.cls-8{fill:url(#linear-gradient-7);}.cls-9{fill:url(#linear-gradient-8);}.cls-10{fill:url(#linear-gradient-9);}.cls-11{fill:url(#linear-gradient-10);}.cls-12{fill:url(#linear-gradient-11);}.cls-13{fill:url(#linear-gradient-12);}.cls-14{fill:url(#linear-gradient-13);}.cls-15{fill:url(#linear-gradient-14);}.cls-16{fill:url(#linear-gradient-15);}</style><linearGradient id="linear-gradient" x1="186.14" y1="126.55" x2="289.57" y2="126.55" gradientUnits="userSpaceOnUse"><stop offset="0"/><stop offset="1" stop-color="#220a06"/></linearGradient><linearGradient id="linear-gradient-2" x1="290.92" y1="417.68" x2="267.48" y2="209.08" xlink:href="#linear-gradient"/><linearGradient id="linear-gradient-3" x1="350.77" y1="302.91" x2="324.83" y2="72.07" gradientTransform="translate(-48.41 188.55) rotate(-11.33)" xlink:href="#linear-gradient"/><linearGradient id="linear-gradient-4" x1="152.16" y1="188.18" x2="171.64" y2="188.18" xlink:href="#linear-gradient"/><linearGradient id="linear-gradient-5" x1="248.91" y1="370.88" x2="422.3" y2="370.88" xlink:href="#linear-gradient"/><linearGradient id="linear-gradient-6" x1="153.66" y1="396.34" x2="208.78" y2="200.7" xlink:href="#linear-gradient"/><linearGradient id="linear-gradient-7" x1="282.87" y1="-67.97" x2="338" y2="-263.62" gradientTransform="matrix(0.7, -0.72, 0.72, 0.7, 24.06, 642.48)" xlink:href="#linear-gradient"/><linearGradient id="linear-gradient-8" x1="283.73" y1="-67.73" x2="338.86" y2="-263.38" gradientTransform="matrix(0.7, -0.72, 0.72, 0.7, 24.06, 642.48)" xlink:href="#linear-gradient"/><linearGradient id="linear-gradient-9" x1="285.88" y1="-67.12" x2="341.01" y2="-262.77" gradientTransform="matrix(0.7, -0.72, 0.72, 0.7, 24.06, 642.48)" xlink:href="#linear-gradient"/><linearGradient id="linear-gradient-10" x1="307.02" y1="-61.17" x2="362.15" y2="-256.82" gradientTransform="matrix(0.7, -0.72, 0.72, 0.7, 24.06, 642.48)" xlink:href="#linear-gradient"/><linearGradient id="linear-gradient-11" x1="310.84" y1="372.13" x2="365.97" y2="176.49" xlink:href="#linear-gradient"/><linearGradient id="linear-gradient-12" x1="409.81" y1="27.84" x2="464.94" y2="-167.81" gradientTransform="matrix(0.7, -0.72, 0.72, 0.7, 24.06, 642.48)" xlink:href="#linear-gradient"/><linearGradient id="linear-gradient-13" x1="410.67" y1="28.09" x2="465.8" y2="-167.56" gradientTransform="matrix(0.7, -0.72, 0.72, 0.7, 24.06, 642.48)" xlink:href="#linear-gradient"/><linearGradient id="linear-gradient-14" x1="412.82" y1="28.69" x2="467.95" y2="-166.96" gradientTransform="matrix(0.7, -0.72, 0.72, 0.7, 24.06, 642.48)" xlink:href="#linear-gradient"/><linearGradient id="linear-gradient-15" x1="433.96" y1="34.65" x2="489.09" y2="-161" gradientTransform="matrix(0.7, -0.72, 0.72, 0.7, 24.06, 642.48)" xlink:href="#linear-gradient"/></defs><path class="cls-1" d="M208.31,119.4a2.42,2.42,0,0,0,1.44-.26,2.17,2.17,0,0,0,.66-.92c3.83-7.93,7.42-16,12.68-23.11s12.49-13,21.09-14.91A32.31,32.31,0,0,1,255.74,80a39.72,39.72,0,0,1,33.76,41.56,58.26,58.26,0,0,1-3.19,15,58.34,58.34,0,0,1-5.83,13c-4.41,7-10.94,12.43-18.09,16.55-7.4,4.27-15.7,7.26-24.24,7.46a78.79,78.79,0,0,1-14.43-1.44c-5.08-.82-10.21-1.65-15-3.53a36.86,36.86,0,0,1-20.28-20c-1.71-4.14-3.24-9.56-1.6-14,1.2-3.25,4.39-5.27,6.77-7.6C197.82,122.84,202,119.32,208.31,119.4Z" transform="translate(-77.01 -79.47)"/><path class="cls-2" d="M384.73,217.8s-33.59,6.41-48.52,7.82S295.42,223,261.52,201l-26.77-13.34s-3.05-5.73-6.22-7.32.18-10.18-5.55-10.3-6,3.42-6,3.42-10.37-21.7-33.29-17.43-21.12,12.6-21.12,12.6a100.18,100.18,0,0,0-11.23,13.3c-5.34,7.64-11.74,17.44-17,21.92s-7.5,6.58-2.13,7.29a12.37,12.37,0,0,0,12.09-5.26c2.3-3.44,7.87-4,7.87-4s-3.93,2-3.42,5.31,3.48,3.93,6.21,3.39a61.88,61.88,0,0,0,6.09-1.67s-.52,2.64,1.72,2.64c0,0-1.64.78-1.06,3.65s5.89,1.06,5.89,1.06-1.06,13.35,17.6,7.37S226,207.7,242.18,214a262.45,262.45,0,0,1,30.87,14.73s3.74,3.73-11.86,6.4-25.81,4.58-25.81,4.58-5.83.72-2.95,12.09,21.88,6.37,21.88,6.37,2.42,42.33,45.65,36.52c0,0,20.24,17.19,21.9,41.27l29.68-8.48s-11.8-20.13-10.65-42c11.16-2.88,34-12.81,39.91-46.19a121.55,121.55,0,0,1,14.73-4s11-.31,11.64-13.11S384.73,217.8,384.73,217.8Z" transform="translate(-77.01 -79.47)"/><path class="cls-3" d="M171.34,165.44c-.32-.41-6.72,6.38-9.12,2.17s-2.75-6.75,4.37-7.65c0,0-1-5.71,2.74-7.15,0,0-3.61-1.54-.17-3.44s2.6-5.22,5.41-4.21c0,0-1.24-7,2.14-7.56s5.54-2.67,4.74-4.94-1.27-6.35,4.17-.84c0,0,3.48.87,2.44-3.44s.8-5.55,1.7-7.12.9-4.17-.7-4.37-.8-3.14,1.74-1.74,4.38,5.38,4.81,7.55,4.75,4.61,3.68,8A9.31,9.31,0,0,1,202,138.1s3.61,4.14,2.64,7.11l4.24-7.45,1.37,1.64,5.21-7,0,6.24s5.14,5.75,3.84,7.92c0,0,4.07-7.42,6.55-4.61,0,0,3,2,4.44-2.11,0,0,1.5-.3,1.64,2.11s4.78,5.64,3.58,11.79a11,11,0,0,1,5.81-3.95c3.94-1.13,4.81-4.61,4.84.77,0,0,2.41,3.34,2.14,6.35,0,0,5.28-5.75,5.91-6.92s2.44,2.64,2.44,2.64l5-6.38,1,5.71s3-10,4.54-11.16c0,0-2.73,19.31-5.67,24.59,0,0,6.45-.77,5.82,7.35,0,0,3.47-2.61,7.45.77s4.27,3.13,4.94,2.13,1.87-5.41,2.84-2.3a6.83,6.83,0,0,1-.33,5.27,6.82,6.82,0,0,1,8.35-.8c4.58,2.91,5.95,1.94,6.58,1.64s2.81-2.48,3.38-1.38.23,3.78-.47,3.75,4.48-1.94,7.48.06,8.59-3.11,10.83-1.47,4.78-.44,4.78-.44l.16-1.77s3-8.59,11.23-2.07c0,0-.37-6.19,7.18-4.92,0,0-4.38-9.72,5.21-10.42s13.9,2.6,11.06,11.85c0,0,6.68,5.61,1.37,10.33a4.82,4.82,0,0,1,.34,5.14s4.48-.2,5.48,2.2c0,0,3.71-6.64,8.25-4.78,0,0-.91-11.45,7.48-10.36s9,9.16,9,9.16,5.31.5,5.38,3.44-1.2,3.54-1.2,3.54,6.11,3.64.87,7.82c0,0,6.78,8.71-3.61,10.62,0,0,4.38,6.25-3.7,6.65,0,0-45.27,10.81-56.8,9.64A147.39,147.39,0,0,1,274.75,209c-24.12-12.89-40.8-20.66-40.8-20.66s-.52-4.22-5.86-7.94c0,0-1.42-1.55-1.82-5.29s-4.43-9.14-9.7-1.6c0,0,.38,12.33.81,15.37s-.46,7.21,1.68,8.35,5,5.07,2.3,4.57-5.85-4.91-6.08-7.81-.47-6.68-2.48-9.76-2.8-4.47-3.11-6a8.78,8.78,0,0,0-1.67-3.14s-10.26-5.24-16.57-3.8-6.78,2.58-6.78,2.58-5,.83-5.28-2.94,2-4,5.21-4.35,8.29-2.87,4.88-6.88-8.12.23-9.73,2.64S174.85,170,171.34,165.44Z" transform="translate(-77.01 -79.47)"/><path class="cls-4" d="M317.7,202.72a6.49,6.49,0,0,1-3.31-.56,5.8,5.8,0,0,0-3.31-.51,5.54,5.54,0,0,0-1.07.47,3,3,0,0,1-4.12-.46,7.07,7.07,0,0,0-1-.68c-1.28-.7-2.82-.45-4.46-.17-1.82.3-3.69.61-5.18-.52a6.15,6.15,0,0,1-1.21-1.34,4.93,4.93,0,0,0-1.33-1.36,5.24,5.24,0,0,0-2.39-.43,3.58,3.58,0,0,1-4-2,4.7,4.7,0,0,0-.73-1,4.55,4.55,0,0,0-2.94-.81,4.89,4.89,0,0,1-3.44-1.09,5.26,5.26,0,0,1-.52-.67,2.73,2.73,0,0,0-.67-.78,2.79,2.79,0,0,0-1.51-.29,3.54,3.54,0,0,1-1.75-.31,3.59,3.59,0,0,1-1.36-1.6,3.26,3.26,0,0,0-1-1.3,3.54,3.54,0,0,0-2-.2,3.3,3.3,0,0,1-2.6-.49c-.78-.12-.92-.87-1-1.43a2,2,0,0,0-.42-1.12,2.1,2.1,0,0,0-1.22-.33,2.19,2.19,0,0,1-1.73-.67,2.36,2.36,0,0,1-.29-.6,2.49,2.49,0,0,0-.11-.29c-.46-.94-1.88-1-2.69-.95h-.26a4.5,4.5,0,0,1-3.29-.61,4.38,4.38,0,0,1-1-1.34,3.63,3.63,0,0,0-.82-1.14,3.56,3.56,0,0,0-1.91-.57A4.84,4.84,0,0,1,251,177a5,5,0,0,1-1.45-1.63c-.45-.67-.87-1.31-1.54-1.51a3.35,3.35,0,0,0-1.61.12,4.38,4.38,0,0,1-1.66.18,4.44,4.44,0,0,1-2.56-1.71,5,5,0,0,0-1.84-1.47,4.65,4.65,0,0,0-1.8-.12,9.28,9.28,0,0,1-1.18,0,2.87,2.87,0,0,1-2-1,1.54,1.54,0,0,1-.34-.75l-1.87.41a.35.35,0,0,1-.37-.14.36.36,0,0,1,0-.4,8.31,8.31,0,0,0,1-7c-.1-.32-.49-1.36-1.22-1.37s-1.21,1.34-1.32,1.92a.37.37,0,0,1-.38.29.36.36,0,0,1-.32-.35,3.1,3.1,0,0,0-.56-2.14,1,1,0,0,0-1-.2.48.48,0,0,0-.36.39.34.34,0,0,1-.34.31.35.35,0,0,1-.36-.3,8.67,8.67,0,0,0-1.13-3.73,2.68,2.68,0,0,0-3.11-1.14.33.33,0,0,1-.29,0,.34.34,0,0,1-.2-.22,18.27,18.27,0,0,1-.41-9,8.82,8.82,0,0,0-3.22,5.65.36.36,0,0,1-.38.31c-.58-.05-.76-.61-.89-1-.07-.23-.17-.52-.28-.53s-.14,0-.33.26a13.4,13.4,0,0,0-2.61,4.77.35.35,0,0,1-.17.21.39.39,0,0,1-.28,0,1.38,1.38,0,0,0-1.42.59,4.69,4.69,0,0,0-.67,1.82l-.62,2.74c-.4,1.78-.69,3.48.05,4.87a.34.34,0,0,1-.14.47.35.35,0,0,1-.48-.14c-.86-1.6-.54-3.44-.12-5.35l.62-2.74a5.15,5.15,0,0,1,.79-2.08,2.2,2.2,0,0,1,1.87-.93,14,14,0,0,1,2.64-4.71,1.2,1.2,0,0,1,.93-.5c.58,0,.76.61.89,1l0,.09a9.6,9.6,0,0,1,4.15-5.95.35.35,0,0,1,.4,0,.33.33,0,0,1,.13.37,17.68,17.68,0,0,0,.09,9.19,3.51,3.51,0,0,1,3.61,1.52,7.59,7.59,0,0,1,1.12,3.18,1.23,1.23,0,0,1,.26-.12,1.73,1.73,0,0,1,1.76.38,2.45,2.45,0,0,1,.58,1,1.68,1.68,0,0,1,1.5-1c.82,0,1.52.71,1.89,1.86a9.08,9.08,0,0,1-.64,6.91l1.43-.32h0a.45.45,0,0,1,.36.08.41.41,0,0,1,.14.31.88.88,0,0,0,.19.7,2.22,2.22,0,0,0,1.51.73,10,10,0,0,0,1.09,0,5.39,5.39,0,0,1,2.07.16A5.64,5.64,0,0,1,242.7,172a3.84,3.84,0,0,0,2.13,1.49,3.92,3.92,0,0,0,1.41-.17,3,3,0,0,1,3.9,1.7,4.37,4.37,0,0,0,1.23,1.41,4.14,4.14,0,0,0,1.78.45,4.21,4.21,0,0,1,2.27.72,4.13,4.13,0,0,1,1,1.36,3.82,3.82,0,0,0,.8,1.13,4,4,0,0,0,2.79.45l.27,0c1.7-.1,2.89.38,3.36,1.35a2.67,2.67,0,0,1,.14.36,1.82,1.82,0,0,0,.2.42c.23.31.69.35,1.22.39a2.51,2.51,0,0,1,1.64.52,2.63,2.63,0,0,1,.64,1.5c.12.68.19.85.5.87a.33.33,0,0,1,.23.1c.49.51,1.25.45,2.14.38a4.06,4.06,0,0,1,2.44.29,3.79,3.79,0,0,1,1.29,1.57,3.07,3.07,0,0,0,1.08,1.32,3.24,3.24,0,0,0,1.43.23,3.28,3.28,0,0,1,1.89.41,3,3,0,0,1,.86,1,4.66,4.66,0,0,0,.45.58c.7.74,1.8.8,3,.88A3.92,3.92,0,0,1,287,194.8a2.94,2.94,0,0,0,3.38,1.66,5.67,5.67,0,0,1,2.73.52,5.41,5.41,0,0,1,1.54,1.55,6.27,6.27,0,0,0,1.08,1.2c1.24,1,2.89.67,4.63.38s3.43-.57,4.92.25a8.73,8.73,0,0,1,1.06.74,3.27,3.27,0,0,0,1.77.92,3.23,3.23,0,0,0,1.58-.53,6.89,6.89,0,0,1,1.21-.52,6.39,6.39,0,0,1,3.73.52c1.31.46,2.54.89,3.58.3a4.64,4.64,0,0,0,1-.88,4.67,4.67,0,0,1,1.24-1,5,5,0,0,1,2.64-.32l.57,0c.44,0,1.9,0,2.34-.94a3,3,0,0,0,.17-.58,3.68,3.68,0,0,1,.15-.57,4.19,4.19,0,0,1,2-1.94,3.58,3.58,0,0,0,1.74-1.56,3.54,3.54,0,0,0,0-1.72,5.88,5.88,0,0,1,0-1.57,6,6,0,0,1,1.33-2.54c.68-.91,1.32-1.76,1.08-2.7a3.18,3.18,0,0,0-.28-.67c-.08-.17-.17-.34-.24-.52a6.22,6.22,0,0,1-.31-2,7.39,7.39,0,0,0-.15-1.44,2.06,2.06,0,0,0-1.18-1.34.78.78,0,0,0-.77.1.38.38,0,0,1-.34,0,.35.35,0,0,1-.22-.28c-.17-1.08-.52-1.67-1-1.75s-.93.31-1.41.71-1.3,1.09-2.13.74a.38.38,0,0,1-.13-.09,1.84,1.84,0,0,1-.17-2.15.35.35,0,0,1,.49-.11.35.35,0,0,1,.1.49,1.16,1.16,0,0,0,.05,1.24c.39.1.77-.19,1.33-.66a2.63,2.63,0,0,1,2-.87c.74.12,1.25.75,1.52,1.88a1.55,1.55,0,0,1,.95,0,2.74,2.74,0,0,1,1.63,1.84,7.81,7.81,0,0,1,.18,1.58,5.34,5.34,0,0,0,.26,1.77c.06.15.14.3.21.45a3.44,3.44,0,0,1,.33.81c.33,1.27-.45,2.3-1.19,3.3a5.57,5.57,0,0,0-1.21,2.23,5.34,5.34,0,0,0,.06,1.37,4.12,4.12,0,0,1-.08,2.06,4.23,4.23,0,0,1-2,1.92,3.61,3.61,0,0,0-1.74,1.58,3.37,3.37,0,0,0-.12.48,4.21,4.21,0,0,1-.22.72c-.61,1.29-2.3,1.37-3,1.35l-.6,0a3.1,3.1,0,0,0-3.32,1.15,5.29,5.29,0,0,1-1.18,1A3.24,3.24,0,0,1,317.7,202.72Z" transform="translate(-77.01 -79.47)"/><path class="cls-4" d="M219.8,169.27h-.06a4.13,4.13,0,0,1-3.42-2.19,9.84,9.84,0,0,1-1-8.71.36.36,0,0,1,.41-.22.35.35,0,0,1,.28.36,8.31,8.31,0,0,0,.62,3.55,1.69,1.69,0,0,1,0-.23,5,5,0,0,1,1.83-4.15,3.85,3.85,0,0,1,4.51-.15,5.7,5.7,0,0,1,1.87,3.28,22.41,22.41,0,0,1,.57,2.8,8.41,8.41,0,0,1,.06,1.55c.05-.14.1-.28.14-.43a8.7,8.7,0,0,0,.22-2.65l0-2.16a.35.35,0,0,1,.27-.34.36.36,0,0,1,.4.17,8.07,8.07,0,0,1-.36,8.09.35.35,0,1,1-.58-.38,7.42,7.42,0,0,0,1-5.44v.05a9.7,9.7,0,0,1-.25,2.86,3.52,3.52,0,0,1-1.87,2.32.35.35,0,0,1-.44-.14.37.37,0,0,1,.08-.46c.64-.51.85-1.47.65-2.95a23.24,23.24,0,0,0-.55-2.71,5.12,5.12,0,0,0-1.61-2.89,3.15,3.15,0,0,0-3.66.15,4.3,4.3,0,0,0-1.56,3.56,6.7,6.7,0,0,0,1.51,3.8.36.36,0,0,1-.05.49.37.37,0,0,1-.5,0,12.29,12.29,0,0,1-2.79-5.33,9.13,9.13,0,0,0,1.4,6c.39.59,1.43,1.94,2.81,1.87a.36.36,0,0,1,.37.34A.34.34,0,0,1,219.8,169.27Z" transform="translate(-77.01 -79.47)"/><path class="cls-4" d="M219.69,157.13a.38.38,0,0,1-.33-.11,10.4,10.4,0,0,1-1.56-2.23.32.32,0,0,1-.17,0,.35.35,0,0,1-.25-.43l.11-.4a.35.35,0,0,1,.32-.25.35.35,0,0,1,.35.21,9.66,9.66,0,0,0,1.22,2.05A10.4,10.4,0,0,1,221,152a.35.35,0,0,1,.58.4,9.65,9.65,0,0,0-1.6,4.4.36.36,0,0,1-.24.3Z" transform="translate(-77.01 -79.47)"/><path class="cls-4" d="M280.65,190.63a11.14,11.14,0,0,1-2,.23.35.35,0,0,1,0-.7,12,12,0,0,0,9.17-4.85l.34-.47a5.4,5.4,0,0,1,2.22-2.17,5.49,5.49,0,0,1,3.16,0l.19,0c3.07.56,5.28.14,6.57-1.24a.36.36,0,0,1,.5,0,.35.35,0,0,1,0,.5c-1.46,1.57-3.89,2.06-7.21,1.46l-.18,0a5,5,0,0,0-2.77,0,4.83,4.83,0,0,0-1.91,1.92l-.35.49A12.76,12.76,0,0,1,280.65,190.63Z" transform="translate(-77.01 -79.47)"/><path class="cls-4" d="M269.85,185.08a5.42,5.42,0,0,1-2.5-.07.37.37,0,0,1-.24-.44.35.35,0,0,1,.44-.24,5.1,5.1,0,0,0,5.75-2.63c.12-.26.22-.53.32-.8a4,4,0,0,1,1.53-2.24,3.89,3.89,0,0,1,3.18.11,3.88,3.88,0,0,0,2.65.34,2.59,2.59,0,0,0,1.32-1.6.36.36,0,0,1,.67.24,3.31,3.31,0,0,1-1.73,2,4.5,4.5,0,0,1-3.14-.33,3.24,3.24,0,0,0-2.6-.17,3.39,3.39,0,0,0-1.22,1.89c-.11.28-.22.57-.35.84A5.78,5.78,0,0,1,269.85,185.08Z" transform="translate(-77.01 -79.47)"/><path class="cls-4" d="M257,180.19a.36.36,0,0,1-.31-.09.35.35,0,0,1,0-.49,5.31,5.31,0,0,1,3-1.4l.76-.12a9.52,9.52,0,0,0,2.24-.53,6.18,6.18,0,0,0,2.59-2.29,19.8,19.8,0,0,0,1.62-3.26.35.35,0,0,1,.46-.19.36.36,0,0,1,.19.46,19.76,19.76,0,0,1-1.69,3.38,6.94,6.94,0,0,1-2.89,2.55,10.85,10.85,0,0,1-2.41.58c-.25,0-.5.07-.74.12a4.67,4.67,0,0,0-2.63,1.17A.31.31,0,0,1,257,180.19Z" transform="translate(-77.01 -79.47)"/><path class="cls-4" d="M251,174.3a6.9,6.9,0,0,1-1.2.14.35.35,0,0,1-.36-.35.35.35,0,0,1,.34-.36A7,7,0,0,0,256,169.2a6.61,6.61,0,0,0,.09-2.71c0-.42-.08-.83-.09-1.22a4.57,4.57,0,0,0-1.95-3.66,4.49,4.49,0,0,0-4.89,0,9.64,9.64,0,0,0-.9.71,7.41,7.41,0,0,1-1.21.92c-1.86,1.08-4.18.53-5.74-.35a2.78,2.78,0,0,1-1.6-1.95,3.74,3.74,0,0,1,0-.58c0-.1,0-.21,0-.31a2.23,2.23,0,0,0-1.36-1.9,3.42,3.42,0,0,0-2.54,0,4.74,4.74,0,0,0-2.07,1.49.35.35,0,0,1-.4.11.36.36,0,0,1-.23-.34,1.71,1.71,0,0,0-.44-1.48,1.29,1.29,0,0,0-1.65.4,4.51,4.51,0,0,0-.69,2.11.35.35,0,0,1-.4.29.37.37,0,0,1-.3-.4,5.14,5.14,0,0,1,.84-2.44,2,2,0,0,1,2.63-.52,1.88,1.88,0,0,1,.67,1.21,5.29,5.29,0,0,1,1.8-1.1,4.21,4.21,0,0,1,3.07,0,2.94,2.94,0,0,1,1.78,2.54c0,.12,0,.24,0,.36a2.36,2.36,0,0,0,0,.46c.06.5.48,1,1.25,1.41a5.24,5.24,0,0,0,5,.36,6.55,6.55,0,0,0,1.1-.84,9.38,9.38,0,0,1,1-.77,5.26,5.26,0,0,1,5.68,0,5.33,5.33,0,0,1,2.26,4.23c0,.38,0,.77.08,1.17a7,7,0,0,1-.13,3A7.72,7.72,0,0,1,251,174.3Z" transform="translate(-77.01 -79.47)"/><path class="cls-4" d="M256.59,168a.37.37,0,0,1-.18,0,.36.36,0,0,1-.22-.45c.86-2.51,5.14-2.47,5.33-2.47a.34.34,0,0,1,.34.36.35.35,0,0,1-.36.34s-3.95,0-4.65,2A.36.36,0,0,1,256.59,168Z" transform="translate(-77.01 -79.47)"/><path class="cls-4" d="M291.19,196.29a6.24,6.24,0,0,1-4.23-.56.35.35,0,0,1-.13-.48.36.36,0,0,1,.48-.14,5.62,5.62,0,0,0,4.28.36,10.26,10.26,0,0,0,3.87-2.28l.43-.38a9.39,9.39,0,0,1,1.83-1.41c1.69-.92,3.62-.75,5.49-.6a10.52,10.52,0,0,0,4.69-.28,10.23,10.23,0,0,0,2.29-1.42,15.12,15.12,0,0,1,1.66-1.13,13.4,13.4,0,0,1,5.87-1.34l1.21,0a22.79,22.79,0,0,0,4.6-.47A6.68,6.68,0,0,0,328,183c.77-1.5.54-3.83-1.05-4.77a.35.35,0,0,1,.36-.6c1.95,1.15,2.25,3.88,1.32,5.7a7.41,7.41,0,0,1-4.93,3.47,23.07,23.07,0,0,1-4.75.49l-1.2.05a12.58,12.58,0,0,0-5.56,1.25,15.21,15.21,0,0,0-1.58,1.08,10.73,10.73,0,0,1-2.45,1.5,11,11,0,0,1-5,.34c-1.85-.16-3.59-.31-5.09.51a8.63,8.63,0,0,0-1.69,1.31l-.44.39a10.93,10.93,0,0,1-4.15,2.43Z" transform="translate(-77.01 -79.47)"/><path class="cls-4" d="M325.28,183.84a3.12,3.12,0,0,1-.86,0,2.51,2.51,0,0,1-1.7-.69,2.67,2.67,0,0,1-.54-1.49,1.45,1.45,0,0,1,.37-1.4.36.36,0,0,1,.48.05l.12.14a.35.35,0,0,1,0,.49.38.38,0,0,1-.24.09,2,2,0,0,0,0,.54,2.09,2.09,0,0,0,.36,1.11,1.89,1.89,0,0,0,1.25.45,1.69,1.69,0,0,0,.84-.06,1.44,1.44,0,0,0,.6-1.48c0-.17-.08-.6-.34-.72a.72.72,0,0,0-.48,0,1.07,1.07,0,0,0-.65.44.6.6,0,0,0,0,.59.35.35,0,0,1,.28.27.34.34,0,0,1-.26.42.55.55,0,0,1-.59-.27,1.29,1.29,0,0,1,0-1.39,1.83,1.83,0,0,1,1.07-.74,1.39,1.39,0,0,1,1,0,1.53,1.53,0,0,1,.74,1.29,2.11,2.11,0,0,1-1,2.2A1.19,1.19,0,0,1,325.28,183.84Z" transform="translate(-77.01 -79.47)"/><path class="cls-4" d="M188.2,159.26a.37.37,0,0,1-.37-.17.34.34,0,0,1,.11-.48,5.07,5.07,0,0,0,2.4-4.53,4.5,4.5,0,0,0-3.11-3.93,4,4,0,0,0-4.52,1.87.34.34,0,0,1-.36.18.35.35,0,0,1-.3-.28,3.18,3.18,0,0,0-2.49-2.4,4.38,4.38,0,0,0-3.53.94,6.79,6.79,0,0,0-2.11,3.19.35.35,0,0,1-.28.24.35.35,0,0,1-.34-.14,3,3,0,0,0-3.92-.58.36.36,0,0,1-.5-.08.36.36,0,0,1,.08-.49,3.67,3.67,0,0,1,4.49.28,7.37,7.37,0,0,1,2.14-3,5.09,5.09,0,0,1,4.11-1.08,4,4,0,0,1,2.81,2.22,4.79,4.79,0,0,1,4.91-1.58A5.21,5.21,0,0,1,191,154a5.77,5.77,0,0,1-2.73,5.18Z" transform="translate(-77.01 -79.47)"/><path class="cls-4" d="M171.2,166a.35.35,0,0,1-.42-.26,15.45,15.45,0,0,1-.64-3.92,5.39,5.39,0,0,1,1.39-3.82,5.51,5.51,0,0,1,1.35-1,8.31,8.31,0,0,1,9,1,10.61,10.61,0,0,1,.54-6.78.35.35,0,0,1,.65.28,10,10,0,0,0-.07,7.65.35.35,0,0,1-.14.44.36.36,0,0,1-.46-.08,7.56,7.56,0,0,0-9.15-1.85,4.83,4.83,0,0,0-1.18.84,4.76,4.76,0,0,0-1.19,3.33,14.94,14.94,0,0,0,.63,3.75.36.36,0,0,1-.26.43Z" transform="translate(-77.01 -79.47)"/><path class="cls-4" d="M173.91,157.36a.35.35,0,0,1-.41-.24,11,11,0,0,1-.26-3.61.34.34,0,0,1,.38-.32.35.35,0,0,1,.32.39,10,10,0,0,0,.24,3.34.35.35,0,0,1-.24.44Z" transform="translate(-77.01 -79.47)"/><path class="cls-4" d="M170.74,161a.34.34,0,0,1-.33-.1c-1.24-1.32-3.7-.63-3.72-.62a.37.37,0,0,1-.44-.24.36.36,0,0,1,.24-.44c.12,0,2.9-.81,4.43.82a.35.35,0,0,1,0,.5A.38.38,0,0,1,170.74,161Z" transform="translate(-77.01 -79.47)"/><path class="cls-4" d="M187.23,157.43c-.23,0-.47.07-.73.09a3.57,3.57,0,0,1-3-1,3.91,3.91,0,0,1-.72-2.39,3.73,3.73,0,0,1,.34-1.94,2.32,2.32,0,0,1,2.29-1.13.37.37,0,0,1,.3.4.36.36,0,0,1-.13.22,2.08,2.08,0,0,1,1-.3,3.15,3.15,0,0,1,1.35.3,3.38,3.38,0,0,1,1.41.9,2.86,2.86,0,0,1,.32,2.83,3.22,3.22,0,0,1-1,1.43A3.41,3.41,0,0,1,187.23,157.43Zm-2.4-5.69a1.61,1.61,0,0,0-1.07.76,3,3,0,0,0-.26,1.56,3.36,3.36,0,0,0,.56,2,3,3,0,0,0,2.4.79,3.12,3.12,0,0,0,1.76-.57,2.57,2.57,0,0,0,.78-1.13,2.2,2.2,0,0,0-.19-2.13,3,3,0,0,0-1.15-.7,2.7,2.7,0,0,0-1-.25,1.6,1.6,0,0,0-1.12.62A2.82,2.82,0,0,0,185,154a1,1,0,0,0,0,.48c.11.28.51.42.83.49a1.29,1.29,0,0,0,.82,0,.43.43,0,0,0,.22-.24.29.29,0,0,0,0-.16.34.34,0,0,1,.15-.47.35.35,0,0,1,.47.15.89.89,0,0,1,0,.7,1.22,1.22,0,0,1-.58.66,2,2,0,0,1-1.28.07,1.42,1.42,0,0,1-1.38-1.76,3.47,3.47,0,0,1,.67-1.65,2.63,2.63,0,0,1,.58-.53.31.31,0,0,1-.19,0A1.4,1.4,0,0,0,184.83,151.74Z" transform="translate(-77.01 -79.47)"/><path class="cls-4" d="M178.14,155.36a2.86,2.86,0,0,1-1.64-.06,2.16,2.16,0,0,1-1.28-1.78,2.67,2.67,0,0,1,.75-2,2,2,0,0,1,1.63-.66.35.35,0,0,1,.29.41.35.35,0,0,1-.4.29,1.22,1.22,0,0,0-1,.45,1.91,1.91,0,0,0-.55,1.46,1.41,1.41,0,0,0,.83,1.19,2.73,2.73,0,0,0,1.66-.07,2.21,2.21,0,0,0,.61-.21,1.43,1.43,0,0,0,.46-.46,2.56,2.56,0,0,0,.44-1.46.57.57,0,0,0,0-.18s-.07-.08-.33-.11a2.3,2.3,0,0,0-1.75.46.65.65,0,0,0-.22.34c0,.08,0,.15.05.15a.35.35,0,0,1,.21.45.34.34,0,0,1-.44.22.83.83,0,0,1-.52-.92,1.25,1.25,0,0,1,.45-.76,3,3,0,0,1,2.29-.64,1.07,1.07,0,0,1,.87.45,1,1,0,0,1,.12.52,3.29,3.29,0,0,1-.56,1.88,2.09,2.09,0,0,1-.69.67,2.72,2.72,0,0,1-.79.29Z" transform="translate(-77.01 -79.47)"/><path class="cls-4" d="M175.68,164.41a3.36,3.36,0,0,1-2.72-.65,2.72,2.72,0,0,1-1-1.44,3.4,3.4,0,0,1,1.48-3.33,4.08,4.08,0,0,1,4.52-.5.35.35,0,0,1,.11.49.35.35,0,0,1-.48.11,3.41,3.41,0,0,0-3.72.46,2.72,2.72,0,0,0-1.23,2.6,2,2,0,0,0,.72,1.06,2.55,2.55,0,0,0,4.14-1.73,1.25,1.25,0,0,0-.36-1.11,1.73,1.73,0,0,0-1.22-.16c-.41,0-.91.13-1.09.45a1.6,1.6,0,0,0-.12.42,1.09,1.09,0,0,0,0,.48.15.15,0,0,0,.1.07.35.35,0,0,1,.47.14.35.35,0,0,1-.15.48.68.68,0,0,1-.54.05.85.85,0,0,1-.51-.44,1.44,1.44,0,0,1-.07-.89,1.78,1.78,0,0,1,.2-.66,2,2,0,0,1,1.63-.8,2.33,2.33,0,0,1,1.72.29,1.92,1.92,0,0,1,.63,1.75,3.29,3.29,0,0,1-2,2.68A2.79,2.79,0,0,1,175.68,164.41Z" transform="translate(-77.01 -79.47)"/><path class="cls-4" d="M165.81,167.16a1.86,1.86,0,0,1-.33,0,3,3,0,0,1-1.28-.28,3.73,3.73,0,0,1-1.8-1.55,2.8,2.8,0,0,1-.16-2.42,3.07,3.07,0,0,1,2.72-1.66,7.21,7.21,0,0,1,3,.7c.48.21,1.14.56,1.2,1.24a.35.35,0,1,1-.7.06c0-.23-.27-.44-.77-.65A6.44,6.44,0,0,0,165,162a2.4,2.4,0,0,0-2.1,1.23A2,2,0,0,0,163,165a3,3,0,0,0,1.46,1.26,2.37,2.37,0,0,0,1,.22,1.41,1.41,0,0,0,1.29-1,1.16,1.16,0,0,0-.19-.84,1,1,0,0,0-.63-.42.89.89,0,0,0-.74.28.77.77,0,0,0-.23.66.36.36,0,0,1-.28.41h0a.35.35,0,0,1-.41-.29,1.43,1.43,0,0,1,.42-1.27,1.57,1.57,0,0,1,1.35-.49,1.65,1.65,0,0,1,1.09.71,1.84,1.84,0,0,1,.31,1.39A2.08,2.08,0,0,1,165.81,167.16Z" transform="translate(-77.01 -79.47)"/><path class="cls-4" d="M170.81,158.88a3,3,0,0,1-1.12,0,2.55,2.55,0,0,1-1.27-.56,2.08,2.08,0,0,1-.47-2,2.87,2.87,0,0,1,1-1.57,2.17,2.17,0,0,1,1.85-.42.35.35,0,0,1,.25.43.35.35,0,0,1-.43.25,1.47,1.47,0,0,0-1.24.3,2.06,2.06,0,0,0-.71,1.18,1.43,1.43,0,0,0,.26,1.35,1.76,1.76,0,0,0,.92.37,2.23,2.23,0,0,0,.85.05h0a1.12,1.12,0,0,0,.71-.53,1.07,1.07,0,0,0,.15-.86c0-.09,0-.11-.05-.12a.57.57,0,0,0-.27-.06,2.47,2.47,0,0,0-.72,0,.52.52,0,0,0-.38.28,1,1,0,0,0,.07.59.37.37,0,0,1-.24.44.36.36,0,0,1-.44-.24,1.64,1.64,0,0,1-.05-1,1.21,1.21,0,0,1,.88-.72,2.71,2.71,0,0,1,.94,0,1.06,1.06,0,0,1,.71.26,1.08,1.08,0,0,1,.24.44A1.85,1.85,0,0,1,172,158a1.88,1.88,0,0,1-1.16.84Z" transform="translate(-77.01 -79.47)"/><path class="cls-4" d="M212.11,159.27a3.64,3.64,0,0,1-3.15-.9c-.21-.2-.4-.43-.59-.65a5.13,5.13,0,0,0-.54-.6,6,6,0,0,0-2.1-1.09,12.07,12.07,0,0,0-3.43-.9,10.31,10.31,0,0,0-1.24,0,13.1,13.1,0,0,1-1.53,0,10.08,10.08,0,0,1-3.51-1.2,2.36,2.36,0,0,1-.88-.65,1.05,1.05,0,0,1,0-1.32,1.31,1.31,0,0,1,.56-.31c.47-.15.94-.28,1.42-.42a18.16,18.16,0,0,0,2.05-.64,6.77,6.77,0,0,1-.78,0,3.77,3.77,0,0,1-2.55-1.1,5.73,5.73,0,0,1-.47-.63,6,6,0,0,0-.38-.5,2.94,2.94,0,0,0-2.63-.86,4.76,4.76,0,0,0-2.6,1.43.35.35,0,0,1-.46,0,.36.36,0,0,1-.09-.46,12,12,0,0,0-2.46-15l-.4-.34a10.06,10.06,0,0,1-1.07-1,.35.35,0,1,1,.53-.46,9.78,9.78,0,0,0,1,.92l.42.35a12.72,12.72,0,0,1,3.31,14.48,4.63,4.63,0,0,1,1.73-.63,3.6,3.6,0,0,1,3.26,1.08,4.83,4.83,0,0,1,.43.58c.13.18.26.37.41.54a3,3,0,0,0,2.08.87,9.39,9.39,0,0,0,2.47-.26.36.36,0,0,1,.39.2.34.34,0,0,1-.1.42,10.36,10.36,0,0,1-3.89,1.67c-.47.13-.94.26-1.39.41a.85.85,0,0,0-.27.13.35.35,0,0,0,0,.41,1.67,1.67,0,0,0,.63.44,9.52,9.52,0,0,0,3.26,1.13,9.86,9.86,0,0,0,1.44,0c.42,0,.86,0,1.3,0a12.9,12.9,0,0,1,3.64.94,6.64,6.64,0,0,1,2.33,1.23,6.26,6.26,0,0,1,.6.67,7.43,7.43,0,0,0,.53.59,2.93,2.93,0,0,0,2.6.7.4.4,0,0,1,.42.27.35.35,0,0,1-.27.42Z" transform="translate(-77.01 -79.47)"/><path class="cls-4" d="M183.8,148.78a3.25,3.25,0,0,1-1.12,0,.38.38,0,0,1-.25-.16.35.35,0,0,1,0-.28,5.55,5.55,0,0,0-.33-3.72,8.93,8.93,0,0,1-.39,1c-.07.14-.13.28-.19.42-.28.65-.41,1.48.05,1.91a.34.34,0,0,1,.07.43.35.35,0,0,1-.4.17,4.77,4.77,0,0,1-1.89-8.14,8.49,8.49,0,0,1,1.22-.87,8.58,8.58,0,0,0,1-.72,4.68,4.68,0,0,0,1.12-1.6c.08-.16.16-.32.25-.48a.35.35,0,0,1,.41-.17c.48.15.75.67,1,1.14.07.13.14.26.2.35.21.33.44.66.67,1s.54.76.79,1.16a7.05,7.05,0,0,1,1.07,5.43A4.43,4.43,0,0,1,183.8,148.78Zm-.63-.63a3.64,3.64,0,0,0,3.21-2.7,6.27,6.27,0,0,0-1-4.87c-.24-.39-.5-.76-.76-1.12s-.47-.66-.69-1a3,3,0,0,1-.23-.41,5.08,5.08,0,0,0-.35-.59l-.05.09a5.33,5.33,0,0,1-1.29,1.83,10.25,10.25,0,0,1-1.12.78,7.07,7.07,0,0,0-1.12.8h0a4.15,4.15,0,0,0-1.24,3.94,4.23,4.23,0,0,0,2,2.64,3.07,3.07,0,0,1,.27-1.75c.06-.15.13-.3.2-.44a3.35,3.35,0,0,0,.45-1.71.36.36,0,0,1,.22-.38.35.35,0,0,1,.41.12A6.2,6.2,0,0,1,183.17,148.15Zm-3.63-7.46h0Z" transform="translate(-77.01 -79.47)"/><path class="cls-4" d="M202,151a.33.33,0,0,1-.17,0,.35.35,0,0,1-.25-.26,24.46,24.46,0,0,1-.47-4.24c0-.6-.06-1.2-.11-1.79a10.89,10.89,0,0,0-1.47-5.07,4.72,4.72,0,0,1-2.88,2.21.37.37,0,0,1-.33-.12.36.36,0,0,1-.05-.36,13.94,13.94,0,0,0,.37-9.17,8.81,8.81,0,0,1-1.09,1.9,4.1,4.1,0,0,1-2.78,1.64.41.41,0,0,1-.26-.09.42.42,0,0,1-.12-.26,10.12,10.12,0,0,1,.43-2.64c.06-.26.13-.53.19-.8a14.78,14.78,0,0,0-.36-7.75,9.91,9.91,0,0,1-1.81,2.67.37.37,0,0,1-.33.1.36.36,0,0,1-.26-.23l-1.14-3.23a.67.67,0,0,0-.09-.14.36.36,0,0,1-.49-.47.49.49,0,0,1,.5-.28,1,1,0,0,1,.74.65l1,2.67A9.22,9.22,0,0,0,192.3,123a.35.35,0,0,1,.33-.23.32.32,0,0,1,.33.22,15.51,15.51,0,0,1,.7,9c-.06.28-.13.55-.2.83a10.77,10.77,0,0,0-.39,2A3.56,3.56,0,0,0,195,133.6a10.38,10.38,0,0,0,1.36-2.57.36.36,0,0,1,.34-.22.34.34,0,0,1,.32.23,14.74,14.74,0,0,1,.17,9.85,6.26,6.26,0,0,0,2.06-2.12.35.35,0,0,1,.28-.15.34.34,0,0,1,.28.14,10.85,10.85,0,0,1,1.9,5.83c.06.6.09,1.21.12,1.82a26.66,26.66,0,0,0,.32,3.45A18.43,18.43,0,0,0,206,143a.33.33,0,0,1,.28-.24.35.35,0,0,1,.34.14,3.89,3.89,0,0,1,.47,2.35v.42c0,.37.08,1.6.88,1.88a.4.4,0,0,0,.36,0,.83.83,0,0,0,.18-.41l1-4a6.26,6.26,0,0,1,1.92-3.69.37.37,0,0,1,.29-.06.33.33,0,0,1,.23.17,31.48,31.48,0,0,1,2,4.52l.12.35a8.1,8.1,0,0,0,1.28,2.6c.16-.23.29-.44.42-.66a2.89,2.89,0,0,1,1.64-1.56.37.37,0,0,1,.32.08.31.31,0,0,1,.11.3.61.61,0,0,0,.23.51.55.55,0,0,0,.53.16l.12,0a.94.94,0,0,1,.67,0,.6.6,0,0,1,.32.75.46.46,0,0,1-.58.3.36.36,0,0,1-.25-.32l-.1,0a1.28,1.28,0,0,1-1.17-.31,1.38,1.38,0,0,1-.4-.57,3.47,3.47,0,0,0-.83,1.08,8.81,8.81,0,0,1-.52.78.61.61,0,0,1-.46.28.67.67,0,0,1-.55-.27,8.25,8.25,0,0,1-1.44-2.87l-.12-.34a31.37,31.37,0,0,0-1.77-4,6.71,6.71,0,0,0-1.35,3l-1,4a1.37,1.37,0,0,1-.42.79,1.11,1.11,0,0,1-1,.12c-.84-.28-1.34-1.23-1.35-2.54v-.43a7.62,7.62,0,0,0,0-1.08,19.18,19.18,0,0,1-4.19,6.66A.46.46,0,0,1,202,151Z" transform="translate(-77.01 -79.47)"/><path class="cls-4" d="M239.12,186.63a.9.9,0,0,1-.46,0,.35.35,0,0,1-.25-.34,5.65,5.65,0,0,0-1.32-3.34,18.07,18.07,0,0,0-2.77-2.62,2.66,2.66,0,0,0-2-.83h0a.36.36,0,0,1-.41-.27.35.35,0,0,1,.25-.42,3.09,3.09,0,0,1,2.59,1,18,18,0,0,1,2.88,2.72,6.42,6.42,0,0,1,1.45,3.4,1.38,1.38,0,0,0,.48-.91,6.78,6.78,0,0,0-4.83-7.35.36.36,0,0,1-.27-.37.35.35,0,0,1,.32-.32,7.07,7.07,0,0,1,5.3,1.78l.56.56a7.6,7.6,0,0,0,1,.86,3.14,3.14,0,0,0-1.13-2.56,9.45,9.45,0,0,0-5.13-2.62.36.36,0,0,1-.3-.34.36.36,0,0,1,.28-.35c1.7-.39,3.3.26,4.85.87A14.32,14.32,0,0,0,243,176c-.19-.95-1.29-1.62-2-2a6.36,6.36,0,0,0-4.33-.76.32.32,0,0,1-.43-.25.35.35,0,0,1,.25-.43,7,7,0,0,1,4.82.81c.94.45,2.51,1.45,2.4,3a.35.35,0,0,1-.12.25.34.34,0,0,1-.26.08,12.62,12.62,0,0,1-3.45-1c-.51-.19-1-.39-1.49-.55a10.24,10.24,0,0,1,2.54,1.84c1,1,1.79,2.47,1.12,3.75a.35.35,0,0,1-.47.15,5.81,5.81,0,0,1-1.48-1.21c-.18-.18-.35-.36-.54-.53a6.36,6.36,0,0,0-2.79-1.46,7.57,7.57,0,0,1,3.45,7.31,2.07,2.07,0,0,1-.8,1.4A1,1,0,0,1,239.12,186.63Z" transform="translate(-77.01 -79.47)"/><path class="cls-4" d="M254.92,194.27a5.72,5.72,0,0,1-3.65-.44,4.39,4.39,0,0,1-2.44-3.86.35.35,0,0,1,.22-.32.34.34,0,0,1,.38.07,7.61,7.61,0,0,0,3.15,2,3.77,3.77,0,0,0,3.39-.6,1.38,1.38,0,0,0,.53-.94,7.1,7.1,0,0,1-3.47.28,3.31,3.31,0,0,1-2.68-2.79.34.34,0,0,1,.16-.32.36.36,0,0,1,.36,0,8,8,0,0,0,5.63.82,6.14,6.14,0,0,1-2.29-.18,3.3,3.3,0,0,1-2.51-3.42.36.36,0,0,1,.41-.29.35.35,0,0,1,.29.4,2.61,2.61,0,0,0,2,2.63,8.34,8.34,0,0,0,3.91-.14,6,6,0,0,0,1.33-.38,7.9,7.9,0,0,0,.84-.71.35.35,0,0,1,.46,0,.36.36,0,0,1,.09.46,2.44,2.44,0,0,1-1,.88,9.07,9.07,0,0,1-8.78.92,2.88,2.88,0,0,0,2,1.46,6.87,6.87,0,0,0,3.46-.37.33.33,0,0,1,.41.17,1.76,1.76,0,0,1-.62,2.09,4.49,4.49,0,0,1-4,.74,7.59,7.59,0,0,1-2.74-1.51,3.8,3.8,0,0,0,1.94,2.34,5.12,5.12,0,0,0,4,.14.34.34,0,0,1,.45.22.35.35,0,0,1-.21.45A8.08,8.08,0,0,1,254.92,194.27Z" transform="translate(-77.01 -79.47)"/><path class="cls-4" d="M272.4,202.94h0a.36.36,0,0,1-.34-.18,14.42,14.42,0,0,0-2.21-2.94,4.33,4.33,0,0,0-1.44-1.08,1.6,1.6,0,0,0-1.52.12.35.35,0,0,1-.5-.07.34.34,0,0,1,.07-.49,2.28,2.28,0,0,1,2.21-.21,5,5,0,0,1,1.69,1.24,15.12,15.12,0,0,1,1.87,2.34,3.94,3.94,0,0,0-.45-2.36,3.89,3.89,0,0,0-2.55-1.88c-.4-.08-1.25-.26-1.29-1a.35.35,0,0,1,.28-.36,6.17,6.17,0,0,1,3.77.48,13.24,13.24,0,0,1,2.39,1.4,4.36,4.36,0,0,0-2-2.29,5.93,5.93,0,0,0-4-.49h0a.35.35,0,0,1-.4-.24.33.33,0,0,1,.19-.42c2.65-1.22,5.67-.39,7.85.45a1.38,1.38,0,0,0-.42-.57,10.85,10.85,0,0,0-3.06-1.13,18.15,18.15,0,0,0-3.62-.16.35.35,0,0,1-.37-.32.36.36,0,0,1,.31-.38,11.82,11.82,0,0,1,3.8.16,10.23,10.23,0,0,1,2.65.8l.17.09a3.08,3.08,0,0,0-1-1.32,8.71,8.71,0,0,0-2.28-1.25c-.45-.19-1.25-.45-1.56-.05a.36.36,0,0,1-.55-.45c.32-.39,1-.74,2.39-.15a9.3,9.3,0,0,1,2.46,1.36,3.47,3.47,0,0,1,1.33,2.51,1.44,1.44,0,0,1,.36,1.5.3.3,0,0,1-.19.19.36.36,0,0,1-.27,0,14.8,14.8,0,0,0-4.51-1.18,5.75,5.75,0,0,1,1,.42,4.94,4.94,0,0,1,2.6,3.7.35.35,0,0,1-.17.34.35.35,0,0,1-.38,0,17.53,17.53,0,0,0-3-1.87,6,6,0,0,0-2.65-.53l.32.07a4.54,4.54,0,0,1,3.32,6A.34.34,0,0,1,272.4,202.94Z" transform="translate(-77.01 -79.47)"/><path class="cls-4" d="M291,211.85a7.2,7.2,0,0,1-6.61-2.07.36.36,0,0,1,0-.48.35.35,0,0,1,.48,0,4.29,4.29,0,0,0,3.46.83h0a4.26,4.26,0,0,0,2.4-1.45,12.42,12.42,0,0,1-2.52.32,6.14,6.14,0,0,1-2.08-.32,3.72,3.72,0,0,1-1.3-.69.35.35,0,0,1,.44-.55,3.67,3.67,0,0,0,1,.55,8.18,8.18,0,0,0,3.74-.07,5.58,5.58,0,0,0,2.94-1.21,11.78,11.78,0,0,1-3.2.45,6,6,0,0,1-2.15-.43,2,2,0,0,1-.87-.07,1.25,1.25,0,0,1-.91-1.48.37.37,0,0,1,.27-.24h0a.36.36,0,0,1,.34.12,3.72,3.72,0,0,0,1.27.95l.42-.09,3.72-.83a7.66,7.66,0,0,0,2.74-1,25.18,25.18,0,0,1-4,.59,5.66,5.66,0,0,1-2.38-.23,2.43,2.43,0,0,1-1.63-1.93.33.33,0,0,1,.31-.38.35.35,0,0,1,.39.31,1.77,1.77,0,0,0,1.18,1.34,4.8,4.8,0,0,0,2.09.18,24,24,0,0,0,5-.86.35.35,0,0,1,.37.12.35.35,0,0,1,0,.39c-.79,1.37-2.45,1.84-3.94,2.18l-2.84.64c.2,0,.4,0,.6,0a13.77,13.77,0,0,0,3.86-.66.35.35,0,0,1,.35.1.37.37,0,0,1,.07.36,3.32,3.32,0,0,1-2.2,1.92.65.65,0,0,1,0,.13,5,5,0,0,1-3.35,2.51,5.1,5.1,0,0,1-1.16.1,6.48,6.48,0,0,0,5.18-.32.34.34,0,0,1,.47.14.35.35,0,0,1-.14.48A6.58,6.58,0,0,1,291,211.85Z" transform="translate(-77.01 -79.47)"/><path class="cls-4" d="M316.66,214.52a.38.38,0,0,1-.21,0,1.72,1.72,0,0,1-.82-.93c-.05-.08-.09-.17-.13-.25a2.94,2.94,0,0,0-2.21-1.27,9.37,9.37,0,0,0-2.83.25l-2.94.56a.35.35,0,0,1-.29-.62,7.88,7.88,0,0,1,4.14-1.55,17.49,17.49,0,0,1,2.4-.05,9,9,0,0,0-6.36.28.35.35,0,0,1-.44-.13.34.34,0,0,1,.07-.45,9.49,9.49,0,0,1,6.09-2.36,6.8,6.8,0,0,0-5.4,1.12.35.35,0,0,1-.46,0,.36.36,0,0,1,0-.45,7.16,7.16,0,0,1,6-3,7.3,7.3,0,0,0-4.43.33,3.54,3.54,0,0,0-2.17,2.06.34.34,0,0,1-.43.24.35.35,0,0,1-.25-.43,4.24,4.24,0,0,1,2.59-2.52,8,8,0,0,1,6.23.11,1.71,1.71,0,0,1,1,.9.36.36,0,0,1-.47.45,6.37,6.37,0,0,0-6,.79,7.51,7.51,0,0,1,6.49.8.35.35,0,0,1,.13.44.36.36,0,0,1-.41.2,8.92,8.92,0,0,0-6.09.64,9.6,9.6,0,0,1,6.46,1.22.35.35,0,0,1,.16.41.37.37,0,0,1-.37.24c-.82-.07-1.66-.14-2.5-.15l.24,0a3.63,3.63,0,0,1,2.73,1.62,2.44,2.44,0,0,1,.14.28c.14.26.27.52.47.6a.34.34,0,0,1,.19.46A.33.33,0,0,1,316.66,214.52Zm-6.8-2.82.47-.09c.51-.1,1-.2,1.55-.26l-.44,0A8.5,8.5,0,0,0,309.86,211.7Z" transform="translate(-77.01 -79.47)"/><path class="cls-4" d="M331,206.47a16.14,16.14,0,0,1-3.49.22.35.35,0,0,1-.08-.69,8.89,8.89,0,0,0,4.15-2.4,7.91,7.91,0,0,1-4.65,1.78.37.37,0,0,1-.36-.32.35.35,0,0,1,.28-.38l.12,0a5.36,5.36,0,0,0,3.19-2,8.06,8.06,0,0,0,1-2,11,11,0,0,1-.77,1,5.57,5.57,0,0,1-4.17,2.14.35.35,0,0,1-.35-.35.35.35,0,0,1,.36-.35,4.92,4.92,0,0,0,3.63-1.9,15.6,15.6,0,0,0,2.17-3.84.35.35,0,0,1,.42-.2.37.37,0,0,1,.25.4,18,18,0,0,1-.82,3.15,8.62,8.62,0,0,1-1.2,2.34,5.81,5.81,0,0,1-.56.65,10.14,10.14,0,0,0,3.57-3.66.36.36,0,0,1,.45-.14.35.35,0,0,1,.19.43,9.7,9.7,0,0,1-4.82,5.6,8.55,8.55,0,0,0,2.76-.61,4.28,4.28,0,0,0,2.75-3.43.36.36,0,1,1,.71.05,5,5,0,0,1-3.18,4A8.3,8.3,0,0,1,331,206.47Z" transform="translate(-77.01 -79.47)"/><path class="cls-4" d="M337.61,191.09a.35.35,0,0,1-.4-.22,9.8,9.8,0,0,1-.47-4.83,7.91,7.91,0,0,0-1.06,4.61.35.35,0,0,1-.27.37.39.39,0,0,1-.41-.22c-.55-1.49-1.27-4.3.23-6.39a.35.35,0,0,1,.49-.08.34.34,0,0,1,.08.49,4.92,4.92,0,0,0-.69,3.58,8.51,8.51,0,0,1,2.14-4.22.35.35,0,0,1,.44-.06.37.37,0,0,1,.15.42,9.06,9.06,0,0,0-.45,4.07c.11-.47.24-.93.37-1.38a10.17,10.17,0,0,0,.56-3.07.34.34,0,0,1,.28-.35h0a.36.36,0,0,1,.4.22,21.52,21.52,0,0,1,1.3,5.53.68.68,0,0,1-.28.62.44.44,0,0,1-.48,0,.34.34,0,0,1-.09-.48.25.25,0,0,1,.13-.12,19.72,19.72,0,0,0-.72-3.75c-.11.55-.27,1.09-.42,1.62a9.36,9.36,0,0,0-.55,3.29.35.35,0,0,1-.27.37Z" transform="translate(-77.01 -79.47)"/><path class="cls-4" d="M183.52,172.76a4.91,4.91,0,0,1-.79.08,2.42,2.42,0,0,1-.93-.16,1.72,1.72,0,0,1-1-1.05,2.24,2.24,0,0,1,.12-1.78,3.27,3.27,0,0,1,2.54-1.53,9.73,9.73,0,0,1,2.16,0l.64.05a8.65,8.65,0,0,0,4.74-.84,4.52,4.52,0,0,0,2.46-3.76,5.52,5.52,0,0,0-1.42-3.36c-.38-.48-.8-.94-1.22-1.38s-1-1-1.39-1.6a.36.36,0,0,1,.06-.5.37.37,0,0,1,.5.07c.41.54.89,1.05,1.35,1.55s.86.92,1.26,1.42a6.17,6.17,0,0,1,1.56,3.8,5.2,5.2,0,0,1-2.82,4.37,9.14,9.14,0,0,1-5.13.93l-.65,0a9.05,9.05,0,0,0-2,0,2.62,2.62,0,0,0-2,1.17,1.51,1.51,0,0,0-.08,1.2,1,1,0,0,0,.57.64,1.75,1.75,0,0,0,.67.1,2.49,2.49,0,0,0,1.47-.4,1.28,1.28,0,0,0,.56-1.19.87.87,0,0,0-.38-.53.55.55,0,0,0-.49-.1.5.5,0,0,0-.35.39.4.4,0,0,0,.08.4.35.35,0,0,1,0,.49.36.36,0,0,1-.5,0,1.1,1.1,0,0,1-.27-1.09,1.26,1.26,0,0,1,.86-.9,1.34,1.34,0,0,1,1,.19,1.59,1.59,0,0,1,.69,1,2,2,0,0,1-.83,1.89A3,3,0,0,1,183.52,172.76Z" transform="translate(-77.01 -79.47)"/><path class="cls-4" d="M212.21,177.67a4.67,4.67,0,0,1-2-.06,3.19,3.19,0,0,1-1.05-.43,2.64,2.64,0,0,1-.71-.77,3.65,3.65,0,0,1,.58-4.33,5,5,0,0,1,4.18-1.36c.75.09,1.25.45,1.34,1a.37.37,0,0,1-.29.41.37.37,0,0,1-.41-.29c0-.22-.41-.34-.72-.38a4.33,4.33,0,0,0-3.59,1.15A2.92,2.92,0,0,0,209,176a1.85,1.85,0,0,0,.51.56,2.28,2.28,0,0,0,.81.32,3.57,3.57,0,0,0,2.42-.17,2.29,2.29,0,0,0,1.35-1.79c0-.38-.13-.84-.44-.93a1.33,1.33,0,0,0-.49,0,3.06,3.06,0,0,0-.87.19.68.68,0,0,0-.42.47.38.38,0,0,0,.07.25.17.17,0,0,0,.13.08.34.34,0,0,1,.32.38.35.35,0,0,1-.38.32.89.89,0,0,1-.62-.34,1,1,0,0,1-.22-.79,1.38,1.38,0,0,1,.82-1,3.49,3.49,0,0,1,1.1-.25,2,2,0,0,1,.76,0,1.57,1.57,0,0,1,.94,1.67,3,3,0,0,1-1.74,2.37A3.61,3.61,0,0,1,212.21,177.67Z" transform="translate(-77.01 -79.47)"/><path class="cls-4" d="M206.46,172.64a.33.33,0,0,1-.27-.06c-2.95-2.06-6.29-4.4-10.07-5a.37.37,0,0,1-.24-.16.35.35,0,0,1,0-.28,11.75,11.75,0,0,0-2.08-10.33.35.35,0,0,1,.06-.49.34.34,0,0,1,.49.06,12.45,12.45,0,0,1,2.31,10.57c3.62.7,6.79,2.83,9.61,4.8a6.67,6.67,0,0,1,6.29-4,.35.35,0,1,1,0,.7,5.94,5.94,0,0,0-5.75,4,.37.37,0,0,1-.23.23Z" transform="translate(-77.01 -79.47)"/><path class="cls-4" d="M215.38,180.74h-.1a7.66,7.66,0,0,0-2.24.12h0a.34.34,0,0,1-.41-.27.32.32,0,0,1,.28-.42,8.69,8.69,0,0,1,2.44-.14.37.37,0,0,1,.33.39A.36.36,0,0,1,215.38,180.74Z" transform="translate(-77.01 -79.47)"/><path class="cls-4" d="M215.52,182.5h-.1a4.87,4.87,0,0,0-2,.22.35.35,0,1,1-.22-.67,5.72,5.72,0,0,1,2.25-.25.35.35,0,0,1,.32.38A.34.34,0,0,1,215.52,182.5Z" transform="translate(-77.01 -79.47)"/><path class="cls-4" d="M215.58,184.87l-1.29.26a.36.36,0,0,1-.41-.28.35.35,0,0,1,.27-.42l1.29-.25a.34.34,0,0,1,.41.27A.35.35,0,0,1,215.58,184.87Z" transform="translate(-77.01 -79.47)"/><path class="cls-4" d="M231.55,171c-1.11.23-2.23.41-3.35.56a.37.37,0,0,1-.4-.3.35.35,0,0,1,.31-.4c1.64-.22,3.3-.52,4.92-.9a.33.33,0,0,1,.42.26.36.36,0,0,1-.26.43Z" transform="translate(-77.01 -79.47)"/><path class="cls-4" d="M228.24,173.71a.37.37,0,0,1-.41-.27.35.35,0,0,1,.26-.42l3.64-.83h0a.35.35,0,0,1,.41.27.34.34,0,0,1-.26.42l-3.64.83Z" transform="translate(-77.01 -79.47)"/><path class="cls-4" d="M231.64,174.84a.34.34,0,0,1-.34-.12l-3.2.77a.35.35,0,0,1-.16-.68l3.32-.81a.56.56,0,0,1,.66.28.46.46,0,0,1-.14.5A.35.35,0,0,1,231.64,174.84Z" transform="translate(-77.01 -79.47)"/><path class="cls-4" d="M228.19,177a.35.35,0,0,1-.39-.22.35.35,0,0,1,.2-.45,14.73,14.73,0,0,1,3.19-.85.35.35,0,0,1,.4.29.33.33,0,0,1-.29.4,15.24,15.24,0,0,0-3.05.81Z" transform="translate(-77.01 -79.47)"/><path class="cls-4" d="M230.32,177.89h-.07a9.85,9.85,0,0,0-2.23.26.36.36,0,0,1-.43-.26.35.35,0,0,1,.26-.42,10.16,10.16,0,0,1,2.4-.28.35.35,0,0,1,.35.35A.34.34,0,0,1,230.32,177.89Z" transform="translate(-77.01 -79.47)"/><path class="cls-4" d="M279.1,187.42a10.75,10.75,0,0,1-4.79-.31.35.35,0,0,1-.25-.43.36.36,0,0,1,.44-.25c1.64.46,4.71,1,6.78-.78a8.44,8.44,0,0,0,1-1l.46-.51a8.32,8.32,0,0,1,8-2.64.35.35,0,0,1,.25.43.36.36,0,0,1-.44.25,7.62,7.62,0,0,0-7.27,2.45l-.44.49a11.75,11.75,0,0,1-1.05,1.07A5.86,5.86,0,0,1,279.1,187.42Z" transform="translate(-77.01 -79.47)"/><path class="cls-4" d="M291.49,192.37a8.39,8.39,0,0,1-2.4.14.35.35,0,0,1-.32-.38.36.36,0,0,1,.38-.32,8,8,0,0,0,4.86-1.18,17.67,17.67,0,0,0,2.23-1.77c1.43-1.26,2.9-2.56,4.83-2.72a9.34,9.34,0,0,1,3,.41,6.37,6.37,0,0,0,3.32.27A6.72,6.72,0,0,0,309,186c.21-.14.43-.28.65-.4a9.14,9.14,0,0,1,7.37-.74.34.34,0,0,1,.22.45.35.35,0,0,1-.44.22,8.43,8.43,0,0,0-6.8.68l-.63.38a6.77,6.77,0,0,1-1.8.91,7,7,0,0,1-3.68-.25,8.64,8.64,0,0,0-2.75-.4c-1.71.15-3,1.31-4.42,2.55a19.62,19.62,0,0,1-2.33,1.84A8.61,8.61,0,0,1,291.49,192.37Z" transform="translate(-77.01 -79.47)"/><path class="cls-4" d="M268.08,181.74a7.9,7.9,0,0,1-1.16.13.35.35,0,1,1,0-.7,3.82,3.82,0,0,0,2.72-.95,4.58,4.58,0,0,0,.78-1.37,8.31,8.31,0,0,1,.51-1,4.27,4.27,0,0,1,3.57-2,.36.36,0,1,1,0,.71,3.54,3.54,0,0,0-3,1.66,7.64,7.64,0,0,0-.47.95,5,5,0,0,1-.9,1.57A3.68,3.68,0,0,1,268.08,181.74Z" transform="translate(-77.01 -79.47)"/><path class="cls-4" d="M257.28,210.59c-1.18.24-2.71-.67-3.22-1-1.05.41-6.15,1.93-13.37-3.76a.35.35,0,0,1-.06-.49.36.36,0,0,1,.5-.06c7.58,6,12.77,3.62,12.82,3.59a.36.36,0,0,1,.35,0c.52.37,2,1.25,2.95,1a1,1,0,0,0,.62-.65,1.11,1.11,0,0,0-.05-1,3.58,3.58,0,0,0-2.35-1,.36.36,0,0,1-.33-.37,2,2,0,0,0-.66-1.43c-2.58-2.67-11.61-4.19-12.36-4.18a.33.33,0,0,1-.39-.28.38.38,0,0,1,.3-.42c.49-.1,9.42,1.34,12.61,4.06a3.05,3.05,0,0,1,1.19,1.95,3.93,3.93,0,0,1,2.58,1.28,1.76,1.76,0,0,1,.12,1.62,1.66,1.66,0,0,1-1.07,1.09Z" transform="translate(-77.01 -79.47)"/><path class="cls-4" d="M254.17,207.77a.41.41,0,0,1-.24,0c-4.64-2.44-12.12-3.94-12.19-3.95a.36.36,0,0,1-.28-.42.35.35,0,0,1,.42-.27c.07,0,7.65,1.53,12.38,4a.36.36,0,0,1,.15.48A.36.36,0,0,1,254.17,207.77Z" transform="translate(-77.01 -79.47)"/><path class="cls-4" d="M148.89,192.09s7-10.44,18.19-8.63,20.66-4.79,23.18-6,6.8-.06,3,1.89S164,193.52,151.56,193.65C151.56,193.65,146.32,194.3,148.89,192.09Z" transform="translate(-77.01 -79.47)"/><path class="cls-5" d="M152.16,191.57s4.58-10.2,19.48-5.6C171.64,186,161.87,191.24,152.16,191.57Z" transform="translate(-77.01 -79.47)"/><path class="cls-4" d="M157.57,189.93c-1.51.31-2.49.45-2.51.45a.35.35,0,0,1-.32-.58c5.53-6.45,13.48-3.74,13.56-3.71a.36.36,0,0,1,.23.32.37.37,0,0,1-.21.34A56.28,56.28,0,0,1,157.57,189.93Zm-1.6-.41a60.84,60.84,0,0,0,11.1-3A12.08,12.08,0,0,0,156,189.52Z" transform="translate(-77.01 -79.47)"/><path class="cls-4" d="M146.09,192.51a76.26,76.26,0,0,1,8.21-11.32,31.31,31.31,0,0,1,5.26-4.8,10.78,10.78,0,0,1,1.63-.93,4.46,4.46,0,0,1,.93-.34,3.88,3.88,0,0,1,1-.2,9.71,9.71,0,0,1,3.75.45,60.91,60.91,0,0,1,6.5,2.71,21.17,21.17,0,0,0,3.16,1.1,8.51,8.51,0,0,0,3.2.28l.79-.12.76-.25a12.75,12.75,0,0,0,1.57-.65L186,177c2.1-1,4.17-2,6.23-3.06a.07.07,0,0,1,.11,0,.09.09,0,0,1,0,.11c-1.91,1.34-3.92,2.51-5.94,3.67-1,.59-2,1.11-3.08,1.65-.54.25-1,.55-1.6.77-.29.11-.58.23-.88.33l-.92.2a13.46,13.46,0,0,1-7.13-1.2c-2.19-.86-4.26-1.92-6.37-2.54a8.27,8.27,0,0,0-3.12-.37,2.36,2.36,0,0,0-.71.15,2.3,2.3,0,0,0-.7.23,9.7,9.7,0,0,0-1.4.78,34.23,34.23,0,0,0-5.12,4.42c-3.21,3.28-6.21,6.81-9.16,10.4a0,0,0,0,1-.07,0A.05.05,0,0,1,146.09,192.51Z" transform="translate(-77.01 -79.47)"/><path class="cls-4" d="M153.38,207.76h0a2,2,0,0,1-2.08-1,1.71,1.71,0,0,1,.6-2.23,1.3,1.3,0,0,1,1.72.41.35.35,0,0,1-.13.48.36.36,0,0,1-.48-.14.6.6,0,0,0-.76-.13,1,1,0,0,0-.32,1.27,1.3,1.3,0,0,0,1.33.6,1.94,1.94,0,0,0,1.26-1,2.87,2.87,0,0,0,.18-1.74,2.71,2.71,0,0,0-1.2-1.87,1.74,1.74,0,0,0-2,.1.36.36,0,0,1-.5,0,.35.35,0,0,1,0-.5,2.43,2.43,0,0,1,2.82-.18,3.4,3.4,0,0,1,1.53,2.34,3.53,3.53,0,0,1-.24,2.18A2.52,2.52,0,0,1,153.38,207.76Z" transform="translate(-77.01 -79.47)"/><path class="cls-4" d="M160.67,209s6.29-3.41,12.58.06,10.16-1.33,10.16-1.33-.43,7.36-12.29,2.35c0,0-5.71.17-8.72,1.56A2.22,2.22,0,0,1,160.67,209Z" transform="translate(-77.01 -79.47)"/><path class="cls-4" d="M182.51,216a8.33,8.33,0,0,1-3,0c-.62-.11-1.23-.26-1.83-.4s-1.32-.33-2-.43a12.29,12.29,0,0,0-8.23,1.64.36.36,0,0,1-.49-.12.34.34,0,0,1,.12-.48,13,13,0,0,1,8.71-1.74c.69.11,1.38.28,2,.44s1.19.29,1.78.4a6.42,6.42,0,0,0,3.65-.24,5,5,0,0,0,2.82-4.35,13.24,13.24,0,0,0-.53-3.67,10.33,10.33,0,0,1-.38-4.87,5.44,5.44,0,0,1,3.33-3.77,3,3,0,0,1,1.63-.21,2.26,2.26,0,0,1,1.45,1A2.59,2.59,0,0,1,192,201a2.66,2.66,0,0,1-1.22,1.73,2.79,2.79,0,0,1-.7.33,2.06,2.06,0,0,0,1.28-.21,2.82,2.82,0,0,0,1.36-2.14,4.76,4.76,0,0,0-.58-2.66,4,4,0,0,0-1.05-1.34,3.46,3.46,0,0,0-2.84-.53,6.34,6.34,0,0,0-2.7,1.48,5.8,5.8,0,0,0-2.15,3.6,8.47,8.47,0,0,0,.36,2.75,6.52,6.52,0,0,1,.13,3.86.34.34,0,0,1-.45.2.36.36,0,0,1-.21-.45,6,6,0,0,0-.16-3.45,9.13,9.13,0,0,1-.37-3,6.44,6.44,0,0,1,2.39-4,7,7,0,0,1,3-1.64,4.11,4.11,0,0,1,3.42.66,4.57,4.57,0,0,1,1.24,1.57,5.33,5.33,0,0,1,.66,3.07,3.53,3.53,0,0,1-1.73,2.69,2.68,2.68,0,0,1-3.17-.48.36.36,0,0,1,0-.42.33.33,0,0,1,.38-.15,2.08,2.08,0,0,0,2.43-1.56,1.87,1.87,0,0,0-.31-1.38,1.62,1.62,0,0,0-1-.68,2.46,2.46,0,0,0-1.26.18,4.74,4.74,0,0,0-2.9,3.27,9.63,9.63,0,0,0,.38,4.54,13.38,13.38,0,0,1,.55,3.88,5.74,5.74,0,0,1-3.24,5A4.94,4.94,0,0,1,182.51,216Z" transform="translate(-77.01 -79.47)"/><path class="cls-4" d="M203.53,182.08a1.49,1.49,0,0,1-.83,0,1.68,1.68,0,0,1-.57-.4,3.06,3.06,0,0,1-1-1.72,1.78,1.78,0,0,1,.92-1.88,1.41,1.41,0,0,1,1.26.1,1.19,1.19,0,0,1,.59.92.35.35,0,0,1-.33.37.36.36,0,0,1-.38-.33.46.46,0,0,0-.24-.35.67.67,0,0,0-.61-.06,1.08,1.08,0,0,0-.51,1.13,2.39,2.39,0,0,0,.77,1.32,1.15,1.15,0,0,0,.33.24.94.94,0,0,0,.5,0,3.6,3.6,0,0,0,2.48-2.63,6.5,6.5,0,0,0-.37-3.89.36.36,0,0,1,.21-.45.34.34,0,0,1,.45.2,7.2,7.2,0,0,1,.39,4.32,4.22,4.22,0,0,1-3,3.14Z" transform="translate(-77.01 -79.47)"/><path class="cls-4" d="M211.17,195.32l-.28,0a2.1,2.1,0,0,1-1.67-.55.36.36,0,0,1,0-.5.35.35,0,0,1,.5,0,1.42,1.42,0,0,0,1.12.35,1.85,1.85,0,0,0,1.31-.73,2.71,2.71,0,0,0,0-2.85,5.83,5.83,0,0,0-2.4-2.07c-.86-.45-2.16-1.13-2.09-2.37a2.64,2.64,0,0,1,.41-1.14c.06-.11.12-.21.17-.32.15-.32.23-.75,0-.94s-.57-.08-1.13.15a1.87,1.87,0,0,1-1.87.07,1,1,0,0,1-.42-.75,2.26,2.26,0,0,1,.54-1.59c.3-.37.62-.71.94-1a10.27,10.27,0,0,0,1.12-1.28,2.59,2.59,0,0,0,.37-2.57.36.36,0,0,1,.14-.48.35.35,0,0,1,.48.13,3.23,3.23,0,0,1-.41,3.31,10.64,10.64,0,0,1-1.19,1.38c-.32.33-.62.64-.89,1a1.59,1.59,0,0,0-.4,1.07.36.36,0,0,0,.15.28c.24.19.62.06,1.17-.16s1.32-.54,1.88,0a1.5,1.5,0,0,1,.14,1.76l-.19.35a2.16,2.16,0,0,0-.33.84c0,.72.79,1.22,1.72,1.71a6.47,6.47,0,0,1,2.68,2.34,3.38,3.38,0,0,1,0,3.6A2.48,2.48,0,0,1,211.17,195.32Z" transform="translate(-77.01 -79.47)"/><path class="cls-4" d="M225.62,188.68a4.84,4.84,0,0,1-1.07.06A4.43,4.43,0,0,1,222,188a2.1,2.1,0,0,1-.67-2.62.35.35,0,0,1,.61.36,1.4,1.4,0,0,0,.49,1.7,3.74,3.74,0,0,0,2.12.58,3.12,3.12,0,0,0,1.14-.1,2.25,2.25,0,0,0,1.14-2.72,4.88,4.88,0,0,0-2.27-2.61c-.42-.27-.87-.52-1.31-.76a16.3,16.3,0,0,1-2-1.21,4.73,4.73,0,0,1-2.07-3.38,5.44,5.44,0,0,1,.47-2.23,3.73,3.73,0,0,1,1.77-2.27,2.49,2.49,0,0,1,2.7.67,3.24,3.24,0,0,1,.73,2.66,1.63,1.63,0,0,1-1.11,1.44h0a1.29,1.29,0,0,1-.69-.07,2.11,2.11,0,0,1-1.31-2.55.35.35,0,0,1,.44-.23.35.35,0,0,1,.23.44,1.41,1.41,0,0,0,.86,1.67.74.74,0,0,0,.34.05c.29-.06.5-.47.56-.86a2.54,2.54,0,0,0-.55-2.07,1.74,1.74,0,0,0-1.91-.5,3.1,3.1,0,0,0-1.39,1.87,5.13,5.13,0,0,0-.42,1.94,4.11,4.11,0,0,0,1.8,2.86,14.07,14.07,0,0,0,1.88,1.15c.46.25.91.5,1.35.78a5.6,5.6,0,0,1,2.57,3,2.93,2.93,0,0,1-1.6,3.59Z" transform="translate(-77.01 -79.47)"/><path class="cls-4" d="M227.16,194.54a3.08,3.08,0,0,1-.91,0,2.5,2.5,0,0,1-1.5-.66,4,4,0,0,1-.42-.5,3.15,3.15,0,0,0-.22-.29,5.47,5.47,0,0,0-1.22-.95,1.22,1.22,0,0,0-.53-.24,1.15,1.15,0,0,0-.44.15c-.59.3-.91.62-.95,1a.64.64,0,0,0,1.24.29.35.35,0,0,1,.66.25,1.36,1.36,0,0,1-1.57.84,1.39,1.39,0,0,1-1-1.46,2.09,2.09,0,0,1,1.33-1.52,1.6,1.6,0,0,1,.78-.22,1.75,1.75,0,0,1,.89.34,6.12,6.12,0,0,1,1.38,1.1l.25.32a2.64,2.64,0,0,0,.34.41,1.82,1.82,0,0,0,1.09.47,2.78,2.78,0,0,0,2.88-2.33,3.15,3.15,0,0,0-2.08-3.24.35.35,0,1,1,.23-.66,3.84,3.84,0,0,1,2.55,4A3.55,3.55,0,0,1,227.16,194.54Z" transform="translate(-77.01 -79.47)"/><path class="cls-4" d="M216.05,214a.34.34,0,0,1-.26-.05.35.35,0,0,1-.11-.48,13.48,13.48,0,0,1,11.89-6.38,25.93,25.93,0,0,1,3.43.43c.75.13,1.53.27,2.29.35a8.06,8.06,0,0,0,5.34-.89c2.46-1.58,3.07-4.89,2.82-7.45a6.27,6.27,0,0,0-.88-2.93,8,8,0,0,0-2.82-2.33l-.16-.09a10.45,10.45,0,0,1-3-2.29,3.68,3.68,0,0,1-.58-4,.35.35,0,1,1,.61.35,3,3,0,0,0,.52,3.19,9.86,9.86,0,0,0,2.8,2.12l.16.09a8.89,8.89,0,0,1,3,2.56,6.89,6.89,0,0,1,1,3.24c.27,2.77-.41,6.36-3.13,8.11a8.69,8.69,0,0,1-5.8,1c-.79-.09-1.58-.22-2.34-.35a26.76,26.76,0,0,0-3.34-.43,13,13,0,0,0-11.26,6.05A.38.38,0,0,1,216.05,214Z" transform="translate(-77.01 -79.47)"/><path class="cls-4" d="M213.08,214.52a.39.39,0,0,1-.21,0,.34.34,0,0,1-.18-.46,18.31,18.31,0,0,1,9.23-9.24.35.35,0,0,1,.46.18.34.34,0,0,1-.18.46,17.65,17.65,0,0,0-8.87,8.88A.35.35,0,0,1,213.08,214.52Z" transform="translate(-77.01 -79.47)"/><path class="cls-4" d="M237.87,206.27a.35.35,0,0,1-.27-.63,5.72,5.72,0,0,0,2-3.06,4.81,4.81,0,0,0,0-3.4,3.61,3.61,0,0,0-3.11-2,4.82,4.82,0,0,0-3.56,1.49,3.94,3.94,0,0,0-1.15,2.11,2.33,2.33,0,0,0,.71,2.1,2.83,2.83,0,0,0,1.73.56c1.23.06,2.7-.5,3-1.65a3.5,3.5,0,0,0,0-1.37,1,1,0,0,0-.12-.37.82.82,0,0,0-.46-.21,2.25,2.25,0,0,0-1.44.11,1.06,1.06,0,0,0-.64,1,.65.65,0,0,0,.33.48.52.52,0,0,0,.42.06.35.35,0,0,1,.45.21.35.35,0,0,1-.2.45,1.15,1.15,0,0,1-1-.11,1.41,1.41,0,0,1-.67-1,1.76,1.76,0,0,1,1-1.72,2.88,2.88,0,0,1,1.89-.17,1.42,1.42,0,0,1,.89.47,1.45,1.45,0,0,1,.25.68,4,4,0,0,1,0,1.66c-.39,1.54-2.16,2.27-3.7,2.19a3.59,3.59,0,0,1-2.15-.73,3,3,0,0,1-1-2.74,4.64,4.64,0,0,1,1.34-2.51,5.58,5.58,0,0,1,4.1-1.7,4.34,4.34,0,0,1,3.71,2.41,5.51,5.51,0,0,1,0,3.9,6.2,6.2,0,0,1-2.26,3.42A.31.31,0,0,1,237.87,206.27Z" transform="translate(-77.01 -79.47)"/><path class="cls-4" d="M255.48,219.94a.36.36,0,0,1-.24-.66,8.34,8.34,0,0,0,4.31-6.58.36.36,0,0,1,.71.06,9.07,9.07,0,0,1-4.69,7.15Z" transform="translate(-77.01 -79.47)"/><path class="cls-4" d="M257.71,221.08a.34.34,0,0,1-.36-.14.35.35,0,0,1,.09-.49,23.88,23.88,0,0,0,6-5.3,2.73,2.73,0,0,0,.6-1.33.36.36,0,0,1,.71.05,3.34,3.34,0,0,1-.74,1.69,25,25,0,0,1-6.2,5.47Z" transform="translate(-77.01 -79.47)"/><path class="cls-4" d="M285.36,236.85a.35.35,0,0,1-.22-.08c-3.36-2.69-13.47-7.82-13.57-7.87a.35.35,0,0,1,.32-.63c.42.21,10.28,5.22,13.69,7.95a.36.36,0,0,1,.05.5A.37.37,0,0,1,285.36,236.85Z" transform="translate(-77.01 -79.47)"/><path class="cls-4" d="M332.86,226.53c-.77,0-1.47,0-2.07-.09a147.75,147.75,0,0,1-56.2-17.13c-23.84-12.73-40.62-20.58-40.79-20.65a.41.41,0,0,1-.2-.28s-.58-4.12-5.71-7.69c-.12-.12-1.56-1.73-2-5.54-.22-2.08-1.57-4.51-3.45-5-1.7-.44-3.62.75-5.54,3.46,0,1.27.41,12.38.81,15.21a21.29,21.29,0,0,1,.15,3c0,2.25,0,4.38,1.34,5.07,1.61.85,4,3.5,3.54,4.7-.12.35-.47.72-1.46.53-2.93-.54-6.13-5.12-6.37-8.13l0-.33c-.23-2.84-.51-6.38-2.39-9.26-2.06-3.17-2.85-4.56-3.16-6.11a8.36,8.36,0,0,0-1.55-2.93c-.89-.43-10.41-5.07-16.27-3.74S185,174,185,174.05a.3.3,0,0,1-.25.18c-.12,0-2.86.46-4.51-.85A3.16,3.16,0,0,1,179,171c-.26-4.18,2.42-4.43,5.53-4.72,2.18-.2,4.84-1.41,5.52-3.08.4-1,.1-2.07-.88-3.22a3.84,3.84,0,0,0-3.22-1.52c-2.44.14-4.89,2.54-5.94,4.13l-.11.15c-1.18,1.78-3.17,4.77-5.58,4.86a3.93,3.93,0,0,1-3.15-1.73c-.2.13-.54.38-.85.61-1.62,1.23-4.35,3.28-6.51,2.83a2.86,2.86,0,0,1-1.94-1.49c-1.31-2.3-2-4.13-1.32-5.57s2.43-2.12,5.6-2.56c-.14-1.24-.37-5.26,2.36-6.87a2.31,2.31,0,0,1-1.23-1.66c0-.74.52-1.44,1.67-2.07a6.77,6.77,0,0,0,2.64-2.79c.57-1,1.12-1.87,2.51-1.6-.17-1.31-.44-4.63.8-6.35a2.51,2.51,0,0,1,1.71-1.06,5.91,5.91,0,0,0,4.23-2.34,2.46,2.46,0,0,0,.24-2.14c-.19-.53-1.07-3.21.06-3.92.84-.53,2.31.31,4.62,2.64a2,2,0,0,0,1.67-.36c.47-.47.56-1.4.25-2.68-.88-3.65.26-5.25,1.17-6.53q.31-.42.57-.84a3.91,3.91,0,0,0,.34-3.27,1,1,0,0,0-.78-.58,1.25,1.25,0,0,1-1.09-.9,1.51,1.51,0,0,1,.54-1.57,2.15,2.15,0,0,1,2.5.07c2.63,1.45,4.53,5.51,5,7.79a6.75,6.75,0,0,0,1.55,2.42c1.29,1.56,2.75,3.31,2.18,5.49a9.59,9.59,0,0,1,2.67,7.44c.49.59,2.53,3.17,2.77,5.65l3.44-6a.36.36,0,0,1,.58-.06l1.08,1.3,5-6.59a.35.35,0,0,1,.39-.13.35.35,0,0,1,.24.33l0,6.12c.66.76,3.52,4.1,4,6.57,1-1.55,2.84-3.92,4.55-4.11a2,2,0,0,1,1.74.71,2.65,2.65,0,0,0,2.06.3,3.28,3.28,0,0,0,1.82-2.25.34.34,0,0,1,.26-.23,1.55,1.55,0,0,1,1.2.31,2.78,2.78,0,0,1,.86,2.12,6.83,6.83,0,0,0,1.26,2.68c1.18,1.9,2.77,4.44,2.48,8a11.8,11.8,0,0,1,5.2-3.11,10.07,10.07,0,0,0,3-1.52c.72-.49,1.2-.82,1.66-.58s.63,1,.64,3.09A12.42,12.42,0,0,1,248.7,156a77.76,77.76,0,0,0,5.25-6.17.67.67,0,0,1,.61-.4h0c.76,0,1.66,1.53,2.18,2.55l4.63-5.94a.35.35,0,0,1,.37-.12.34.34,0,0,1,.26.28l.72,4.26c.92-2.87,3-9,4.23-9.93a.35.35,0,0,1,.39,0,.38.38,0,0,1,.17.36c-.11.76-2.61,18.27-5.43,24.17a5.7,5.7,0,0,1,3.82,1.49c1.28,1.22,1.88,3.1,1.79,5.6a6.37,6.37,0,0,1,7.29,1.13c1.67,1.41,3.28,2.7,3.89,2.7h.05c.15,0,.27-.17.49-.49a10.64,10.64,0,0,0,.53-1.1c.66-1.51,1.15-2.5,1.87-2.46s.89.78,1.07,1.34a7.72,7.72,0,0,1,.12,4.35,6.94,6.94,0,0,1,7.75-.07c4.17,2.65,5.54,2,6.13,1.67l.11,0a8,8,0,0,0,.68-.48c.81-.62,1.82-1.38,2.56-1.21a.89.89,0,0,1,.6.47,5.07,5.07,0,0,1,.17,3.1c1.68-.45,4.68-.79,6.73.58,1.43,1,3.62.07,5.73-.78s3.89-1.57,5.11-.69c1.76,1.29,3.73,0,4.23-.34l.15-1.61c.07-.23,1.31-3.71,4.42-4.62,2-.59,4.31,0,6.83,1.88a5.3,5.3,0,0,1,1.63-3.43c1.22-1.1,3-1.51,5.33-1.22-.51-1.38-1.53-4.88,0-7.47,1-1.7,2.94-2.67,5.72-2.88,5.52-.4,9.1.52,10.93,2.81,1.63,2,1.81,5.09.56,9.29.72.65,3.33,3.23,3.38,6.28a5.61,5.61,0,0,1-1.94,4.21,5.13,5.13,0,0,1,.44,4.74c1.17,0,3.78.28,4.92,1.86,1-1.52,4.05-5.7,7.86-4.59,0-1.59.06-6.27,2.67-8.74a6.08,6.08,0,0,1,5.24-1.46,10.48,10.48,0,0,1,9.22,9.18c1.16.15,5.35.91,5.42,3.75a4.83,4.83,0,0,1-1,3.52c.83.58,2.62,2.08,2.76,4.08a4.7,4.7,0,0,1-2,3.83c.69,1,2.83,4.36,1.74,7.22-.67,1.77-2.44,3-5.26,3.59.51.88,1.46,2.89.66,4.53-.66,1.35-2.31,2.09-4.92,2.22C385.94,217.21,346.74,226.53,332.86,226.53ZM234.27,188.1c1.82.85,18.07,8.53,40.65,20.59a147.26,147.26,0,0,0,55.94,17.05c11.34,1.14,56.22-9.53,56.67-9.63,2.4-.13,3.85-.74,4.38-1.84.86-1.74-.86-4.24-.88-4.27a.33.33,0,0,1,0-.33.36.36,0,0,1,.26-.22c2.85-.52,4.61-1.61,5.23-3.24,1.13-2.94-1.81-6.78-1.84-6.82a.35.35,0,0,1,.06-.49c1.39-1.11,2.06-2.27,2-3.45-.15-2.18-2.79-3.77-2.81-3.79a.35.35,0,0,1,0-.62s1.07-.59,1-3.22-5-3.09-5.07-3.09a.37.37,0,0,1-.32-.33,9.71,9.71,0,0,0-8.65-8.83,5.44,5.44,0,0,0-4.66,1.28c-2.86,2.72-2.42,8.65-2.42,8.71a.34.34,0,0,1-.14.31.35.35,0,0,1-.34,0c-4.21-1.73-7.78,4.56-7.81,4.63a.34.34,0,0,1-.33.18.37.37,0,0,1-.31-.22c-.89-2.15-5.09-2-5.13-2a.38.38,0,0,1-.32-.16.36.36,0,0,1,0-.36,4.45,4.45,0,0,0-.3-4.76.35.35,0,0,1,0-.48,5,5,0,0,0,1.93-3.88c0-3.14-3.26-5.88-3.3-5.91a.36.36,0,0,1-.11-.37c1.24-4,1.11-7-.38-8.86-1.67-2.1-5-2.93-10.32-2.54-2.53.18-4.27,1-5.16,2.53-1.73,2.91.23,7.35.25,7.4a.34.34,0,0,1,0,.36.36.36,0,0,1-.34.13c-2.39-.4-4.19-.08-5.35,1a4.9,4.9,0,0,0-1.42,3.58.37.37,0,0,1-.19.34.35.35,0,0,1-.38,0c-2.55-2-4.81-2.74-6.74-2.18-2.76.81-3.92,4.06-3.93,4.1l-.15,1.68a.36.36,0,0,1-.13.24s-2.78,2.23-5.21.45c-.9-.65-2.61,0-4.42.77-2.18.88-4.64,1.88-6.39.71-2.14-1.42-5.52-.72-6.7-.32a.68.68,0,0,1-.61.32.47.47,0,0,1-.38-.27.46.46,0,0,1,.16-.44,2.36,2.36,0,0,1,.39-.19,4.61,4.61,0,0,0,0-3c0-.09-.08-.11-.12-.12-.42-.09-1.44.68-2,1.09a5,5,0,0,1-.8.55l-.1.05c-.75.38-2.31,1.16-6.82-1.7a6.39,6.39,0,0,0-7.91.76.36.36,0,0,1-.47,0,.35.35,0,0,1-.08-.46,6.57,6.57,0,0,0,.29-5c-.24-.77-.43-.84-.43-.84-.31,0-.92,1.43-1.19,2a10.06,10.06,0,0,1-.58,1.21,1.5,1.5,0,0,1-1,.8c-.72.1-1.78-.57-4.49-2.87-3.72-3.15-7-.77-7-.75a.37.37,0,0,1-.39,0,.36.36,0,0,1-.18-.34c.21-2.6-.31-4.51-1.53-5.69a5.23,5.23,0,0,0-3.89-1.28.35.35,0,0,1-.35-.52c2.4-4.31,4.7-18.37,5.41-23a74.21,74.21,0,0,0-3.63,9.83.35.35,0,0,1-.36.25.36.36,0,0,1-.33-.29l-.83-4.93L257,152.9a.36.36,0,0,1-.31.13.33.33,0,0,1-.28-.2c-.65-1.36-1.51-2.63-1.82-2.66-.64,1.23-5.74,6.79-6,7a.35.35,0,0,1-.61-.27c.25-2.85-2.05-6.08-2.07-6.11a.31.31,0,0,1-.07-.21c0-2-.15-2.48-.27-2.57s-.57.29-.93.53a10.81,10.81,0,0,1-3.19,1.61,10.81,10.81,0,0,0-5.62,3.81.35.35,0,0,1-.43.12.35.35,0,0,1-.21-.39c.76-3.9-.89-6.56-2.22-8.69a7.13,7.13,0,0,1-1.36-3,2.19,2.19,0,0,0-.59-1.6.82.82,0,0,0-.45-.18,3.78,3.78,0,0,1-2.18,2.46,3.36,3.36,0,0,1-2.71-.41l-.07-.06a1.27,1.27,0,0,0-1.16-.5c-1.74.19-4,3.58-4.77,5a.41.41,0,0,1-.05.09.35.35,0,0,1-.47.13.36.36,0,0,1-.14-.48l0-.07c.84-1.65-2.47-5.92-3.84-7.44a.39.39,0,0,1-.09-.23l0-5.2-4.58,6.11a.32.32,0,0,1-.27.14.36.36,0,0,1-.28-.13l-1-1.24-4,7a.36.36,0,0,1-.65-.29c.9-2.75-2.53-6.73-2.57-6.77a.38.38,0,0,1-.08-.27,9,9,0,0,0-2.6-7.15.36.36,0,0,1-.1-.37c.61-1.91-.71-3.5-2-5a7,7,0,0,1-1.7-2.73c-.45-2.24-2.31-6-4.64-7.31a1.61,1.61,0,0,0-1.73-.14.82.82,0,0,0-.29.83.53.53,0,0,0,.49.39,1.66,1.66,0,0,1,1.33,1,4.61,4.61,0,0,1-.36,3.94q-.27.45-.6.9c-.88,1.23-1.87,2.61-1.06,6,.37,1.56.22,2.68-.44,3.34a2.77,2.77,0,0,1-2.43.52.32.32,0,0,1-.17-.09c-2.9-2.94-3.69-2.69-3.82-2.61-.39.24-.28,1.63.23,3.08a3.13,3.13,0,0,1-.29,2.74,6.57,6.57,0,0,1-4.73,2.67,1.78,1.78,0,0,0-1.24.78c-1.37,1.89-.61,6.32-.6,6.37a.38.38,0,0,1-.12.33.37.37,0,0,1-.35.06c-1.27-.45-1.56,0-2.21,1.14a7.52,7.52,0,0,1-2.91,3.05c-.61.33-1.33.85-1.3,1.41s1.05,1.23,1.44,1.39a.36.36,0,0,1,.21.33.35.35,0,0,1-.23.33c-3.4,1.32-2.52,6.71-2.51,6.76a.38.38,0,0,1-.07.27.32.32,0,0,1-.24.14c-3.09.39-4.86,1.12-5.41,2.22s.26,3.09,1.3,4.91a2.15,2.15,0,0,0,1.47,1.15c1.86.38,4.52-1.62,5.95-2.7,1-.78,1.38-1,1.67-.67h0a3.54,3.54,0,0,0,2.64,1.65h.09c2-.08,3.91-2.88,5-4.55l.1-.16c1-1.46,3.58-4.27,6.49-4.44a4.43,4.43,0,0,1,3.79,1.77c1.46,1.71,1.35,3.09,1,3.95-.81,2-3.75,3.29-6.11,3.51-3.45.32-5.1.63-4.89,4a2.48,2.48,0,0,0,.92,1.91c1.21,1,3.27.79,3.82.73.38-.44,1.79-1.43,6.89-2.59,6.36-1.45,16.39,3.61,16.81,3.83a.24.24,0,0,1,.11.09,8.87,8.87,0,0,1,1.75,3.29c.29,1.44,1.05,2.78,3.06,5.86s2.27,6.67,2.51,9.59l0,.33c.22,2.69,3.25,7,5.8,7.5.36.07.63,0,.67-.07.2-.58-1.52-2.95-3.21-3.85s-1.69-3.33-1.71-5.68a23,23,0,0,0-.15-2.93c-.43-3-.8-14.9-.81-15.4a.33.33,0,0,1,.06-.22c2.68-3.83,4.93-4.2,6.35-3.84,2.26.58,3.74,3.32,4,5.6.38,3.56,1.72,5.08,1.73,5.09C233.11,183.47,234.1,187.2,234.27,188.1Z" transform="translate(-77.01 -79.47)"/><path class="cls-4" d="M336.32,224.3a.34.34,0,0,1-.31-.19c-.91-1.73.73-3.55,1.79-4.48a22.75,22.75,0,0,1,6.63-4.37c4.4-1.68,9.15-.93,13.75-.2a49.39,49.39,0,0,0,7.95.82,23.4,23.4,0,0,0,19.92-12,13.51,13.51,0,0,0,1.86-7.8,7.5,7.5,0,0,0-4.32-6.23c-2.75-1.1-5.68,0-7.18.81-2.67,1.37-4.45,3.42-4.89,5.63a5.85,5.85,0,0,0,9.37,5.7,3.62,3.62,0,0,0,1.52-2.74,2.52,2.52,0,0,0-5-.21.35.35,0,1,1-.7-.06,3.22,3.22,0,0,1,6.43.26,4.32,4.32,0,0,1-1.78,3.3,6.55,6.55,0,0,1-10.5-6.39c.48-2.41,2.39-4.64,5.25-6.12,1.61-.83,4.77-2,7.77-.83a8.17,8.17,0,0,1,4.76,6.81,14.19,14.19,0,0,1-1.94,8.2,24.15,24.15,0,0,1-20.53,12.41h-.2a50.75,50.75,0,0,1-7.87-.83c-4.71-.75-9.17-1.45-13.39.16a22,22,0,0,0-6.41,4.24c-.73.64-2.35,2.27-1.64,3.62a.35.35,0,0,1-.15.48A.47.47,0,0,1,336.32,224.3Z" transform="translate(-77.01 -79.47)"/><path class="cls-4" d="M347.06,211.89c-.85,0-1.69,0-2.53-.11-1.24-.1-5.31-.67-5.82-3.71-.31-1.82,1-3.43,2.24-4.32a15.18,15.18,0,0,1,2.58-1.36c.56-.25,1.14-.52,1.68-.81a11.56,11.56,0,0,0,5.85-10.52,20.35,20.35,0,0,0-2.51-7.82l-.63-1.24a33.62,33.62,0,0,1-2.77-6.53c-.48-1.86-1-5.43.89-8.43,1.7-2.67,5.17-3.87,7.73-2.66a.36.36,0,0,1,.17.47.37.37,0,0,1-.47.17c-2.52-1.19-5.51.32-6.84,2.4-1.76,2.77-1.25,6.12-.79,7.87a32,32,0,0,0,2.71,6.39l.63,1.24a21,21,0,0,1,2.58,8.11,12.26,12.26,0,0,1-6.21,11.16c-.56.32-1.15.58-1.73.84a14.72,14.72,0,0,0-2.46,1.3c-1.06.73-2.2,2.13-1.95,3.63.42,2.53,4.07,3,5.17,3.12a30.25,30.25,0,0,0,6.31-.14,10.55,10.55,0,0,0,5.16-1.81,4.44,4.44,0,0,0,1.68-4.66,4.21,4.21,0,0,0-3.43-2.55,8.59,8.59,0,0,0-4.55.8c-.9.38-3,1.45-2.91,3.19a2.87,2.87,0,0,0,2.62,2.39,9.17,9.17,0,0,0,4.07-.73.35.35,0,1,1,.23.66,9.77,9.77,0,0,1-4.4.77,3.56,3.56,0,0,1-3.23-3.06c-.09-2.19,2.31-3.44,3.34-3.87a9.3,9.3,0,0,1,4.93-.85,4.94,4.94,0,0,1,4,3,5,5,0,0,1-1.92,5.45,11.1,11.1,0,0,1-5.5,2A32.11,32.11,0,0,1,347.06,211.89Z" transform="translate(-77.01 -79.47)"/><path class="cls-4" d="M368,211a5.8,5.8,0,0,1-1.67-.26c-4.53-1.37-6.14-6.58-6.62-8.75-.31-1.36-.5-2.76-.68-4.12a29.1,29.1,0,0,0-1.47-6.73,29.15,29.15,0,0,0-2.6-4.75c-.69-1.07-1.39-2.19-2-3.34a21.36,21.36,0,0,1-2.31-8.93c-.05-1.78.2-5,2.59-6.38a.36.36,0,0,1,.48.13.35.35,0,0,1-.13.48c-2.07,1.21-2.28,4.12-2.23,5.75a20.58,20.58,0,0,0,2.23,8.63c.57,1.13,1.27,2.22,1.94,3.29a28.87,28.87,0,0,1,2.66,4.86,29.38,29.38,0,0,1,1.52,6.9c.18,1.34.37,2.73.66,4.06.46,2.05,2,7,6.14,8.23a4.3,4.3,0,0,0,2.82,0,3.24,3.24,0,0,0,1.86-2.27,4.63,4.63,0,0,0-.76-4,3.65,3.65,0,0,0-2.76-1.51h-.05a2.22,2.22,0,0,0-2.18,1.82,1.8,1.8,0,0,0,.71,1.54,3.61,3.61,0,0,0,3.12.62.35.35,0,0,1,.2.68,4.36,4.36,0,0,1-3.77-.76,2.46,2.46,0,0,1-1-2.14,2.91,2.91,0,0,1,2.87-2.47,4.3,4.3,0,0,1,3.38,1.78,5.29,5.29,0,0,1,.88,4.58,3.9,3.9,0,0,1-2.27,2.74A4.29,4.29,0,0,1,368,211Z" transform="translate(-77.01 -79.47)"/><path class="cls-4" d="M383.9,186.36l-.13,0a.36.36,0,0,1-.21-.45,6.5,6.5,0,0,0,.25-4.27,3.87,3.87,0,0,0-3-2.66,2.74,2.74,0,0,0-3,2,2.11,2.11,0,0,0,.7,1.86,1.76,1.76,0,0,0,1.61.5,1,1,0,0,0,.48-.24c.34-.32.32-.94-.07-1.89a.36.36,0,0,1,.66-.27c.18.46.75,1.85-.1,2.67a1.7,1.7,0,0,1-.81.42,2.48,2.48,0,0,1-2.25-.67,2.84,2.84,0,0,1-.91-2.49,3.44,3.44,0,0,1,3.82-2.63,4.56,4.56,0,0,1,3.54,3.14,7.14,7.14,0,0,1-.24,4.73A.37.37,0,0,1,383.9,186.36Z" transform="translate(-77.01 -79.47)"/><path class="cls-4" d="M328.47,221c-.49,0-1,0-1.39-.05a9.68,9.68,0,0,1-5-1.41,8,8,0,0,1-2.86-5.32,27.16,27.16,0,0,1-.27-3.34c0-.85-.08-1.73-.17-2.58a.36.36,0,0,1,.31-.39.35.35,0,0,1,.39.31c.1.88.14,1.77.17,2.63a29.83,29.83,0,0,0,.26,3.26A7.3,7.3,0,0,0,322.5,219a9,9,0,0,0,4.63,1.29c2,.14,4.55.11,6-1.5a6.78,6.78,0,0,0,1.31-2.83,7.35,7.35,0,0,0,.29-2.71,3,3,0,0,0-1.22-2.16,3.37,3.37,0,0,0-1.5-.45,5.28,5.28,0,0,0-3.7.89,3.69,3.69,0,0,0-1.58,3.25,2.82,2.82,0,0,0,2.31,2.5,2.28,2.28,0,0,0,1.73-.57,2,2,0,0,0,.73-1.42.33.33,0,0,1,.36-.35.35.35,0,0,1,.34.36,2.67,2.67,0,0,1-1,1.94A3,3,0,0,1,329,218a3.54,3.54,0,0,1-2.93-3.13,4.42,4.42,0,0,1,1.86-3.89,6,6,0,0,1,4.19-1,4,4,0,0,1,1.81.56,3.58,3.58,0,0,1,1.54,2.66,8,8,0,0,1-.31,3,7.31,7.31,0,0,1-1.47,3.13C332.34,220.7,330.28,221,328.47,221Z" transform="translate(-77.01 -79.47)"/><path class="cls-6" d="M249.89,420.53H421.3c1.91-7.4,1.23-16.13-3.31-22.28-3.9-5.28-11.45-7.17-14.71-12.87-1.52-2.66-1.88-5.8-2.66-8.77-4.16-15.87-19.74-25.68-34.5-32.85-4.66-2.27-9.71-4.74-12.05-9.36-1.09-2.15-1.49-4.61-2.62-6.74-3-5.75-10.84-7.74-17-5.6s-10.66,7.48-13.65,13.25c-.84,1.64-3.18,1.5-5,1.47s-4.05.32-4.82,2c-.51,1.11-.21,2.51-.92,3.51a3.84,3.84,0,0,1-1.25,1c-5.21,2.95-11.75,3.52-16.19,7.54a28.2,28.2,0,0,0-5,7C281.76,367.86,275,377.63,266,385c-2.76,2.25-5.74,4.26-8.29,6.75A30.07,30.07,0,0,0,249.89,420.53Z" transform="translate(-77.01 -79.47)"/><path class="cls-4" d="M292.54,254.68c-4.35,0-7.69-.78-10.4-2.42-3.49-2.1-6.38-6.55-5.16-11a15,15,0,0,1,1-2.46c.23-.5.47-1,.67-1.52a7.46,7.46,0,0,0-.31-4.83.36.36,0,0,1,.64-.31,8.29,8.29,0,0,1,.33,5.39c-.21.54-.45,1.06-.69,1.57a14.58,14.58,0,0,0-.94,2.35c-1.13,4.11,1.58,8.25,4.85,10.21,3,1.8,6.79,2.52,12,2.26a30.47,30.47,0,0,0,11-2.3,16.89,16.89,0,0,0,8.22-7.21,19.61,19.61,0,0,0,2.05-7.2c.67-5.75.45-10.3-2.83-13.83a.34.34,0,0,1,0-.49.35.35,0,0,1,.5,0c3.68,3.95,3.62,9.25,3,14.39a20.53,20.53,0,0,1-2.12,7.45,17.71,17.71,0,0,1-8.57,7.53,31.37,31.37,0,0,1-11.21,2.36C293.85,254.66,293.18,254.68,292.54,254.68Z" transform="translate(-77.01 -79.47)"/><path class="cls-4" d="M299.12,287.61a55.16,55.16,0,0,1-17.25-2.47c-7.6-2.5-13.87-7.07-17.66-12.87a19.67,19.67,0,0,1-3.12-7.64c-1-6.38,1.89-13.33,8.6-20.65l.7-.76a24.17,24.17,0,0,0,4.1-5.31c1-2,1.61-4.89.25-7.18a.35.35,0,1,1,.61-.36c1.5,2.53.87,5.72-.23,7.86a25.24,25.24,0,0,1-4.21,5.47l-.7.76c-6.56,7.15-9.4,13.91-8.42,20.06a18.78,18.78,0,0,0,3,7.36c3.7,5.67,9.85,10.14,17.29,12.59,6.13,2,13.21,2.76,21.66,2.31a64.6,64.6,0,0,0,10.33-1.31,39.78,39.78,0,0,0,20.44-11.11A29.19,29.19,0,0,0,342.74,253c-.45-8.06-5.05-15.58-11.72-19.16-.65-.35-1.31-.66-2-1a21.46,21.46,0,0,1-3.88-2.17c-1.68-1.26-3.33-3.49-2.94-6a.35.35,0,0,1,.7.11c-.34,2.16,1.15,4.14,2.66,5.28a21.22,21.22,0,0,0,3.76,2.09c.67.32,1.35.64,2,1,6.88,3.69,11.63,11.44,12.1,19.74a29.9,29.9,0,0,1-8.41,21.9,40.47,40.47,0,0,1-20.81,11.32,64.87,64.87,0,0,1-10.44,1.32C302.19,287.57,300.63,287.61,299.12,287.61Z" transform="translate(-77.01 -79.47)"/><path class="cls-4" d="M292.26,259.94a8.11,8.11,0,0,1-4.15-1.2,6.46,6.46,0,0,1-2.95-3.69,5.16,5.16,0,0,1-9.11-.26c-1-1.94-.71-4.38.74-7.28a3.81,3.81,0,0,1-3.54-.92,4.84,4.84,0,0,1-1.24-4.46,7.22,7.22,0,0,1,2.5-3.89,9.69,9.69,0,0,1,4.46-2.13.35.35,0,0,1,.13.69,9.11,9.11,0,0,0-4.14,2,6.54,6.54,0,0,0-2.26,3.5,4.12,4.12,0,0,0,1,3.8,3,3,0,0,0,3.65.38.36.36,0,0,1,.45,0,.37.37,0,0,1,.07.44c-1.77,3.09-2.18,5.64-1.23,7.55a4.47,4.47,0,0,0,8.39-1.13.37.37,0,0,1,.41-.28.36.36,0,0,1,.28.41c-.31,1.91,1.14,3.72,2.71,4.67a6.79,6.79,0,0,0,5.92.7,4.71,4.71,0,0,0,3-4.71.34.34,0,0,1,.29-.39.35.35,0,0,1,.4.28,4.14,4.14,0,0,0,2.5,2.57,10.86,10.86,0,0,0,5.82.93,4.93,4.93,0,0,0,3.21-1.4,4.32,4.32,0,0,0,.88-3.33,13.37,13.37,0,0,0-1.1-3.58.38.38,0,0,1,.05-.34.35.35,0,0,1,.32-.14,13.5,13.5,0,0,0,5,0,9.18,9.18,0,0,0,2.88-1.43c1.18-.82,3.18-2.54,3.31-4.83.14-2.63-2.23-4.7-4.54-5.32a.35.35,0,0,1-.26-.36.36.36,0,0,1,.3-.33c1.17-.19,4-.87,4.78-3a4.59,4.59,0,0,0-1.46-4.66,14.15,14.15,0,0,0-4.75-2.59.35.35,0,0,1-.21-.46.36.36,0,0,1,.46-.2,15,15,0,0,1,5,2.73,5.31,5.31,0,0,1,1.64,5.42c-.69,1.89-2.57,2.8-4.13,3.24,2.15,1,4,3.07,3.89,5.61-.1,1.92-1.39,3.82-3.61,5.37a10.07,10.07,0,0,1-3.09,1.53,12.89,12.89,0,0,1-4.71.11,12.08,12.08,0,0,1,.92,3.21,5,5,0,0,1-1.05,3.88,5.62,5.62,0,0,1-3.66,1.63,11.57,11.57,0,0,1-6.2-1,6,6,0,0,1-2.26-1.7,5.64,5.64,0,0,1-3.4,4A6.62,6.62,0,0,1,292.26,259.94Z" transform="translate(-77.01 -79.47)"/><path class="cls-4" d="M289,280.3a99.62,99.62,0,0,1-18.84-1.64.35.35,0,0,1-.27-.42.35.35,0,0,1,.42-.27c.41.09,41.54,8.68,70.93-14.55a.36.36,0,0,1,.44.56C324.68,277.41,303.8,280.3,289,280.3Z" transform="translate(-77.01 -79.47)"/><path class="cls-4" d="M281,276.05a119.68,119.68,0,0,1-14.17-.74.35.35,0,1,1,.09-.7c.45.06,45.25,5.89,75.52-16.17a.34.34,0,0,1,.49.07.36.36,0,0,1-.08.5C323,273.51,296.88,276.05,281,276.05Z" transform="translate(-77.01 -79.47)"/><path class="cls-4" d="M332.19,262.55a.37.37,0,0,1-.33-.22.35.35,0,0,1,.2-.46,8.72,8.72,0,0,0,2.07-1.28c2.87-2.23,4.51-4.36,5.15-6.68.7-2.52-.14-6-2.73-7.13a5.55,5.55,0,0,0-5.42.76c-1.37,1-2.62,3-2.1,4.91a4.71,4.71,0,0,0,4.34,3.12,4.85,4.85,0,0,0,4.06-1.67,3.48,3.48,0,0,0,.18-4.11,2.7,2.7,0,0,0-2-1,2.3,2.3,0,0,0-1.8.62,4,4,0,0,0-.88,1.68,2.6,2.6,0,0,0-.13,1.34c.09.34.39.72.74.67a.37.37,0,0,1,.37.33.35.35,0,0,1-.33.37,1.52,1.52,0,0,1-1.46-1.19,3.21,3.21,0,0,1,.13-1.72,4.69,4.69,0,0,1,1.06-2,3,3,0,0,1,2.34-.82,3.41,3.41,0,0,1,2.49,1.28,4.12,4.12,0,0,1-.19,5,5.62,5.62,0,0,1-4.64,1.94,5.41,5.41,0,0,1-5-3.64,5.56,5.56,0,0,1,2.36-5.66,6.27,6.27,0,0,1,6.13-.83c3,1.34,3.92,5.1,3.12,8-.68,2.47-2.4,4.71-5.4,7a8.82,8.82,0,0,1-2.24,1.37A.31.31,0,0,1,332.19,262.55Z" transform="translate(-77.01 -79.47)"/><path class="cls-4" d="M319.6,268.06a.36.36,0,0,1-.33-.22.36.36,0,0,1,.19-.46,16.29,16.29,0,0,0,5.72-3.46,8.48,8.48,0,0,0,2.17-5.87,5,5,0,0,0-.45-2.15c-.85-1.7-3-2.33-4.61-2.2a6.35,6.35,0,0,0-4.59,2.51,5.52,5.52,0,0,0-.73,5.09,2.2,2.2,0,0,0,.81,1.14,2.91,2.91,0,0,0,1.09.35,5.88,5.88,0,0,0,3.57-.23,4.3,4.3,0,0,0,2.06-3,2.9,2.9,0,0,0-.33-2.28,2.33,2.33,0,0,0-1.36-.75,2.72,2.72,0,0,0-2.8,1.05,2,2,0,0,0-.2,1.58,1.53,1.53,0,0,0,.79,1,.36.36,0,0,1-.31.64,2.3,2.3,0,0,1-1.16-1.46,2.68,2.68,0,0,1,.29-2.15,3.41,3.41,0,0,1,3.52-1.36,3,3,0,0,1,1.78,1,3.45,3.45,0,0,1,.47,2.86,5,5,0,0,1-2.44,3.5,6.45,6.45,0,0,1-4,.29,3.56,3.56,0,0,1-1.36-.44,2.88,2.88,0,0,1-1.09-1.48,6.24,6.24,0,0,1,.81-5.76,7.06,7.06,0,0,1,5.11-2.8,5.38,5.38,0,0,1,5.3,2.58,5.77,5.77,0,0,1,.53,2.46,9.22,9.22,0,0,1-2.36,6.36,17,17,0,0,1-6,3.63Z" transform="translate(-77.01 -79.47)"/><path class="cls-4" d="M303.5,272.66a.35.35,0,0,1-.05-.7c3.06-.49,6.89-1.9,8.47-4.43a4.93,4.93,0,0,0,.48-4.23,5.07,5.07,0,0,0-1.73-2.53,4.76,4.76,0,0,0-4.48-.66,5.79,5.79,0,0,0-3.05,3.44,3.4,3.4,0,0,0,.22,2.94,2.71,2.71,0,0,0,2.31,1.14h0c1.64,0,3.44-.89,3.56-2.55a2,2,0,0,0-1.54-2,1.72,1.72,0,0,0-1.31.41,1.51,1.51,0,0,0-.54,1.1.34.34,0,0,1-.34.36.37.37,0,0,1-.36-.35,2.17,2.17,0,0,1,.78-1.64,2.42,2.42,0,0,1,1.88-.58,2.69,2.69,0,0,1,2.13,2.79c-.15,2.08-2.3,3.21-4.26,3.21h0a3.46,3.46,0,0,1-2.91-1.47,4.11,4.11,0,0,1-.29-3.54,6.5,6.5,0,0,1,3.47-3.87,5.45,5.45,0,0,1,5.16.75,5.76,5.76,0,0,1,2,2.89,5.63,5.63,0,0,1-.55,4.81c-1.71,2.72-5.75,4.24-9,4.74Z" transform="translate(-77.01 -79.47)"/><path class="cls-4" d="M291,273.57h-.45a.36.36,0,0,1-.33-.38.36.36,0,0,1,.37-.33,7.91,7.91,0,0,0,7.62-5.23,4.4,4.4,0,0,0-.65-3.83,5.54,5.54,0,0,0-4.14-2.33,4.83,4.83,0,0,0-3.64,1.2,4.55,4.55,0,0,0-1.28,2.24,3.41,3.41,0,0,0,.49,3,3.93,3.93,0,0,0,3.33,1.11,3.79,3.79,0,0,0,3-1.44,2.24,2.24,0,0,0-.26-2.55,2.13,2.13,0,0,0-2-.65,2.57,2.57,0,0,0-1.9,1.45.35.35,0,1,1-.64-.28,3.23,3.23,0,0,1,2.42-1.86,2.8,2.8,0,0,1,2.6.86,2.93,2.93,0,0,1,.35,3.39,4.4,4.4,0,0,1-3.57,1.78,4.72,4.72,0,0,1-3.93-1.36,4.16,4.16,0,0,1-.63-3.62,5.31,5.31,0,0,1,1.48-2.59,5.66,5.66,0,0,1,4.17-1.39,6.29,6.29,0,0,1,4.67,2.63,5.05,5.05,0,0,1,.75,4.45A8.55,8.55,0,0,1,291,273.57Z" transform="translate(-77.01 -79.47)"/><path class="cls-4" d="M277.89,274.52a7.52,7.52,0,0,1-1.77-.21.36.36,0,0,1-.26-.43.35.35,0,0,1,.43-.26,7.38,7.38,0,0,0,7.1-2.27,6.4,6.4,0,0,0,.85-6.53,3.18,3.18,0,0,0-3.5-1.52,5.34,5.34,0,0,0-3.21,1.81,4.77,4.77,0,0,0-1.32,3.37,3,3,0,0,0,.59,1.67,3.2,3.2,0,0,0,2.12,1.16,3.45,3.45,0,0,0,2.89-.72,1.48,1.48,0,0,0,.18-1.44,3.91,3.91,0,0,0-2.67-1.47c-.11,0-.18,0-.18.24a.35.35,0,0,1-.35.35h0a.35.35,0,0,1-.35-.35.89.89,0,0,1,.78-.94,4.43,4.43,0,0,1,3.44,2,2.1,2.1,0,0,1-.31,2.1,4.1,4.1,0,0,1-3.52,1,4,4,0,0,1-2.6-1.43,3.79,3.79,0,0,1-.73-2.05,5.49,5.49,0,0,1,1.5-3.89,6,6,0,0,1,3.64-2,3.87,3.87,0,0,1,4.21,1.88,7.06,7.06,0,0,1-.92,7.33A8,8,0,0,1,277.89,274.52Z" transform="translate(-77.01 -79.47)"/><path class="cls-4" d="M270.35,272.42a4.36,4.36,0,0,1-.51,0,5.37,5.37,0,0,1-4.23-2.82.35.35,0,0,1,.64-.28,4.65,4.65,0,0,0,3.66,2.4,3.81,3.81,0,0,0,4.13-2.94,6.68,6.68,0,0,0-1.8-6.63,4,4,0,0,0-3.62-1.16,3.48,3.48,0,0,0-1.93,1.63,4.13,4.13,0,0,0,.51,4.81,2.62,2.62,0,0,0,3.39.24,2.05,2.05,0,0,0,.86-2.17,2.75,2.75,0,0,0-1.27-1.7,1.15,1.15,0,0,0-1-.06.35.35,0,0,1-.28-.64,1.82,1.82,0,0,1,1.59.08,3.42,3.42,0,0,1,1.64,2.16,2.73,2.73,0,0,1-1.2,2.94,3.3,3.3,0,0,1-4.24-.35,4.87,4.87,0,0,1-.62-5.67,4.12,4.12,0,0,1,2.35-2,4.67,4.67,0,0,1,4.29,1.33,7.36,7.36,0,0,1,2,7.35A4.56,4.56,0,0,1,270.35,272.42Z" transform="translate(-77.01 -79.47)"/><path class="cls-4" d="M289.68,280.13a.35.35,0,0,1-.29-.15L287,276.5,285,279.77a.37.37,0,0,1-.29.17h0a.37.37,0,0,1-.3-.16l-2.26-3.31-2.26,3.22a.35.35,0,0,1-.28.15h0a.35.35,0,0,1-.28-.14l-2.55-3.44-2,2.84a.37.37,0,0,1-.26.15.36.36,0,0,1-.28-.1l-3.43-3.34a.35.35,0,1,1,.49-.5l3.14,3.05,2-2.9a.31.31,0,0,1,.29-.15.35.35,0,0,1,.28.14l2.55,3.44,2.28-3.24a.3.3,0,0,1,.29-.15.36.36,0,0,1,.29.16l2.24,3.28,2.07-3.27c.07-.1.2-.2.3-.17a.34.34,0,0,1,.29.16l2.35,3.48,2.46-3.87a.35.35,0,0,1,.3-.16h0a.34.34,0,0,1,.29.16l2.42,3.71,2-3.87a.32.32,0,0,1,.27-.19.37.37,0,0,1,.31.11l3.16,3.61,1.94-4.49a.34.34,0,0,1,.27-.21.33.33,0,0,1,.32.12l3,3.5,1.93-4.3a.32.32,0,0,1,.25-.2.33.33,0,0,1,.31.09l3.45,3.36,1.77-4.61a.36.36,0,0,1,.24-.21.35.35,0,0,1,.31.06l3.63,2.92,1.5-4.52a.37.37,0,0,1,.24-.23.36.36,0,0,1,.33.08l3.3,2.86,1.13-4.35a.35.35,0,0,1,.22-.24.33.33,0,0,1,.32,0l3.35,2.21,1.62-4.49a.37.37,0,0,1,.22-.22.38.38,0,0,1,.31.05l3,2.09,1.51-4.27a.37.37,0,0,1,.22-.22.34.34,0,0,1,.31.05l2.29,1.61,1.7-4.2a.33.33,0,0,1,.25-.21.32.32,0,0,1,.31.08l1.38,1.28a.35.35,0,1,1-.48.51l-1-.92-1.67,4.13a.37.37,0,0,1-.23.21.36.36,0,0,1-.3-.05l-2.27-1.6-1.51,4.27a.34.34,0,0,1-.23.22.35.35,0,0,1-.31-.05l-3-2.08-1.61,4.47a.33.33,0,0,1-.22.21.32.32,0,0,1-.3,0l-3.32-2.18-1.15,4.43a.36.36,0,0,1-.24.25.36.36,0,0,1-.33-.07l-3.33-2.9-1.51,4.51a.32.32,0,0,1-.23.22.34.34,0,0,1-.32-.06l-3.65-2.93-1.79,4.65a.35.35,0,0,1-.25.22.34.34,0,0,1-.32-.1L308.73,274l-2,4.34a.34.34,0,0,1-.27.21.35.35,0,0,1-.32-.12l-3-3.49-1.93,4.48a.36.36,0,0,1-.27.21.38.38,0,0,1-.32-.12l-3.19-3.63-2,3.95a.35.35,0,0,1-.61,0l-2.45-3.76L290,280A.42.42,0,0,1,289.68,280.13Z" transform="translate(-77.01 -79.47)"/><path class="cls-4" d="M284.29,285.82l-.12,0a.34.34,0,0,1-.21-.45c.73-1.86,2.84-2.71,4.62-2.73a15.81,15.81,0,0,1,4.22.78l1,.28a7.92,7.92,0,0,0,5,.08,8.62,8.62,0,0,0,1.78-1.06,9.46,9.46,0,0,1,1.89-1.13,10,10,0,0,1,4.85-.32,9.59,9.59,0,0,0,4.42-.22,9.49,9.49,0,0,0,1.94-1.11,10.14,10.14,0,0,1,2-1.16,11,11,0,0,1,4.6-.43c1.78.09,3.46.16,4.85-.69a9.4,9.4,0,0,0,1.52-1.32,6,6,0,0,1,2.57-1.8,6.32,6.32,0,0,1,1-.17,4.27,4.27,0,0,0,1-.16,5,5,0,0,0,2-1.48l.61-.6c.95-.89,2.39-1.59,3.59-.9a.35.35,0,0,1-.35.61c-.87-.5-2,.12-2.76.8l-.58.58a5.64,5.64,0,0,1-2.29,1.66,4.86,4.86,0,0,1-1.12.19,6.4,6.4,0,0,0-.91.15,5.47,5.47,0,0,0-2.27,1.62,9.3,9.3,0,0,1-1.64,1.42c-1.58,1-3.45.88-5.25.8a10.33,10.33,0,0,0-4.31.38,10.15,10.15,0,0,0-1.87,1.08,9.93,9.93,0,0,1-2.08,1.19,10.22,10.22,0,0,1-4.73.26,9.45,9.45,0,0,0-4.52.27,9.25,9.25,0,0,0-1.76,1.06,9.85,9.85,0,0,1-1.91,1.14,8.67,8.67,0,0,1-5.41-.05l-1-.3a15,15,0,0,0-3.95-.74h-.07c-1.54,0-3.37.72-4,2.27A.36.36,0,0,1,284.29,285.82Z" transform="translate(-77.01 -79.47)"/><path class="cls-4" d="M316.79,307.19a6.56,6.56,0,0,1-3.63-1.26c-1.7-1.16-3.19-3.33-2.4-5.33a3.76,3.76,0,0,1,1.85-1.93,3.67,3.67,0,0,1,3.07-.23,2.69,2.69,0,0,1,1.74,2.57,2.26,2.26,0,0,1-.84,1.57,1.94,1.94,0,0,1-1.5.44.35.35,0,0,1-.3-.4.36.36,0,0,1,.4-.3,1.29,1.29,0,0,0,1-.29,1.54,1.54,0,0,0,.58-1.06,2,2,0,0,0-1.3-1.88,3.31,3.31,0,0,0-4,1.77c-.65,1.64.66,3.48,2.14,4.49a5.09,5.09,0,0,0,4.31,1c2-.67,2.89-3.24,2.51-5.23-.42-2.21-1.94-4.08-3.34-5.66a24.75,24.75,0,0,0-4.38-4.09,28.83,28.83,0,0,0-7.45-3.22,14.26,14.26,0,0,0-2.81-.7.34.34,0,0,1-.32-.38.36.36,0,0,1,.39-.32,13.75,13.75,0,0,1,2.94.73,29.1,29.1,0,0,1,7.64,3.31,24.51,24.51,0,0,1,4.51,4.21c1.46,1.65,3.06,3.61,3.52,6s-.59,5.24-3,6A4.31,4.31,0,0,1,316.79,307.19Z" transform="translate(-77.01 -79.47)"/><path class="cls-4" d="M333.65,299.19a4.25,4.25,0,0,1-2.14-.56c-1.9-1.1-2.89-3.53-2.85-7A32.59,32.59,0,0,1,333,275.76a.35.35,0,1,1,.61.35,32,32,0,0,0-4.2,15.5c0,2.25.39,5.19,2.5,6.41a3.81,3.81,0,0,0,3.12.25,5,5,0,0,0,3-2.58,4.63,4.63,0,0,0-.36-4.64,3.44,3.44,0,0,0-4.24-1,4,4,0,0,0-1.56,1.9c-.39.91-.48,2.15.27,2.73a2.23,2.23,0,0,0,1.32.36,6,6,0,0,0,2.25-.45.35.35,0,1,1,.28.64,5.86,5.86,0,0,1-2.54.51,2.83,2.83,0,0,1-1.74-.5c-1.05-.81-1-2.38-.48-3.58a4.77,4.77,0,0,1,1.85-2.22,4.11,4.11,0,0,1,5.15,1.18,5.25,5.25,0,0,1,.44,5.36,5.69,5.69,0,0,1-3.42,3A5.32,5.32,0,0,1,333.65,299.19Z" transform="translate(-77.01 -79.47)"/><path class="cls-4" d="M332.67,347.55h0a.36.36,0,0,1-.32-.38s.05-.71.11-1.89c.92-22.52-12.85-46.28-13-46.52a.35.35,0,0,1,.13-.48.34.34,0,0,1,.48.12c.12.21,10.39,17.9,12.69,37.3.12-11.23-.41-28.68-4.1-42.92a.36.36,0,0,1,.26-.43.35.35,0,0,1,.43.25c5.1,19.73,4.19,45.56,3.82,52.72,0,.63-.07,1.27-.12,1.91A.35.35,0,0,1,332.67,347.55Z" transform="translate(-77.01 -79.47)"/><path class="cls-4" d="M319.46,291.29a8.19,8.19,0,0,1-.85,0,.35.35,0,0,1-.31-.27.36.36,0,0,1,.16-.38,38.26,38.26,0,0,1,3.72-2.05,20.24,20.24,0,0,0-4.5,1.27.35.35,0,0,1-.45-.17.34.34,0,0,1,.13-.46l4.47-2.64a17.8,17.8,0,0,0-5.15,2.15.34.34,0,0,1-.48-.11.35.35,0,0,1,.11-.49,18.46,18.46,0,0,1,7.37-2.61.33.33,0,0,1,.38.23.37.37,0,0,1-.16.42l-3.45,2a20.37,20.37,0,0,1,3.9-.56.35.35,0,0,1,.36.27.36.36,0,0,1-.21.41,36.74,36.74,0,0,0-4.63,2.27,23,23,0,0,0,4.25-.7l1.26-.28a.52.52,0,0,1,.66.31.44.44,0,0,1-.22.48.48.48,0,0,1-.46-.06c-.37.07-.73.16-1.08.24A21.69,21.69,0,0,1,319.46,291.29Z" transform="translate(-77.01 -79.47)"/><path class="cls-4" d="M327.47,299.41h0l-4,0a.35.35,0,0,1-.34-.26.34.34,0,0,1,.17-.39l2.52-1.46-3.43.44a.36.36,0,0,1-.36-.2.35.35,0,0,1,.07-.41,25.57,25.57,0,0,1,3-2.54,15.35,15.35,0,0,0-3.26,1.25.36.36,0,0,1-.33-.63,15.81,15.81,0,0,1,5.23-1.65.37.37,0,0,1,.38.23.37.37,0,0,1-.15.42,24.35,24.35,0,0,0-3.63,2.69l4.09-.53a.34.34,0,0,1,.37.24.35.35,0,0,1-.15.42l-2.93,1.69,2.72,0a.35.35,0,0,1,.35.35A.36.36,0,0,1,327.47,299.41Z" transform="translate(-77.01 -79.47)"/><path class="cls-4" d="M336.67,304.84a5.63,5.63,0,0,1-2.23-.31,2.6,2.6,0,0,1-1.38-1.46,1.87,1.87,0,0,1,.07-1.49.35.35,0,0,1,.47-.16.36.36,0,0,1,.15.48,1.16,1.16,0,0,0,0,.93,1.83,1.83,0,0,0,1,1.05,5.07,5.07,0,0,0,1.95.26,1.46,1.46,0,0,0,.79-.14,1.52,1.52,0,0,0,.38-.49,3.14,3.14,0,0,0,.49-1.38,1.34,1.34,0,0,0-1-1.33,1.06,1.06,0,0,0-.85.25.89.89,0,0,0-.35.67.86.86,0,0,0,.42.69.72.72,0,0,0,.69.07.36.36,0,0,1,.47.16.34.34,0,0,1-.16.47,1.39,1.39,0,0,1-1.37-.11,1.51,1.51,0,0,1-.75-1.29,1.57,1.57,0,0,1,.6-1.2,1.8,1.8,0,0,1,1.42-.41,2.05,2.05,0,0,1,1.61,2,3.75,3.75,0,0,1-.59,1.71,1.86,1.86,0,0,1-.61.73A2,2,0,0,1,336.67,304.84Z" transform="translate(-77.01 -79.47)"/><path class="cls-4" d="M337.29,312.21a4.59,4.59,0,0,1-2-.43,2.27,2.27,0,0,1-1.49-2.44.35.35,0,0,1,.43-.25.36.36,0,0,1,.25.44c-.17.63.44,1.3,1.11,1.61a4,4,0,0,0,3.66-.17,2.6,2.6,0,0,0,1.16-1.27,1.47,1.47,0,0,0-.22-1.51,2.2,2.2,0,0,0-1.67-.52h0a1.86,1.86,0,0,0-1.53.51.9.9,0,0,0-.1.85.86.86,0,0,0,.6.6,2.11,2.11,0,0,0,1-.08.35.35,0,0,1,.42.27.34.34,0,0,1-.26.42,2.88,2.88,0,0,1-1.29.08,1.68,1.68,0,0,1-.89-2.57,2.53,2.53,0,0,1,2.09-.79h0a2.82,2.82,0,0,1,2.18.75,2.18,2.18,0,0,1,.37,2.24,3.31,3.31,0,0,1-1.47,1.63A4.63,4.63,0,0,1,337.29,312.21Z" transform="translate(-77.01 -79.47)"/><path class="cls-4" d="M338.63,319.49a5.36,5.36,0,0,1-2.6-.71,3.61,3.61,0,0,1-1.35-1.22,2,2,0,0,1-.1-1.93.35.35,0,0,1,.62.33,1.29,1.29,0,0,0,.09,1.24,2.76,2.76,0,0,0,1.09,1,4.36,4.36,0,0,0,2.71.6,3.07,3.07,0,0,0,2.22-1.41,2.25,2.25,0,0,0-.15-2.46,1.91,1.91,0,0,0-3.37,1.44.54.54,0,0,0,.1.29.64.64,0,0,0,.23.14,3.43,3.43,0,0,0,1.36.26.36.36,0,0,1,.36.34.34.34,0,0,1-.34.36,4.05,4.05,0,0,1-1.66-.31,1.34,1.34,0,0,1-.48-.33,1.18,1.18,0,0,1-.27-.67,2.61,2.61,0,0,1,4.61-2,2.94,2.94,0,0,1,.22,3.26,3.71,3.71,0,0,1-2.74,1.76A5.07,5.07,0,0,1,338.63,319.49Z" transform="translate(-77.01 -79.47)"/><path class="cls-4" d="M339.56,326.88a4.55,4.55,0,0,1-2.4-.64,3.38,3.38,0,0,1-1.39-4.17.35.35,0,0,1,.63.31,2.68,2.68,0,0,0,1.13,3.26,4.48,4.48,0,0,0,3.85.2,2.4,2.4,0,0,0,.95-.55,3.19,3.19,0,0,0,.61-2,2.4,2.4,0,0,0,0-.54,1.41,1.41,0,0,0-1-.88,2.53,2.53,0,0,0-2,.13,1.69,1.69,0,0,0-.89,1.62,1.28,1.28,0,0,0,1.18,1.11h.06a.35.35,0,0,1,.38.33.35.35,0,0,1-.33.37,2,2,0,0,1-2-1.73,2.41,2.41,0,0,1,1.24-2.31,3.21,3.21,0,0,1,2.59-.19,2,2,0,0,1,1.46,1.39,2.42,2.42,0,0,1,0,.75,3.77,3.77,0,0,1-.81,2.49,3.15,3.15,0,0,1-1.21.72A6.06,6.06,0,0,1,339.56,326.88Z" transform="translate(-77.01 -79.47)"/><path class="cls-4" d="M339.39,334.67H339a4.19,4.19,0,0,1-2.66-.94,2.33,2.33,0,0,1-.55-2.84.37.37,0,0,1,.49-.11.35.35,0,0,1,.11.49,1.62,1.62,0,0,0,.42,1.93A3.47,3.47,0,0,0,339,334a5,5,0,0,0,2.84-.58,1.82,1.82,0,0,0,.69-.65,1.47,1.47,0,0,0,.15-1,2.15,2.15,0,0,0-4.21-.24,1.17,1.17,0,0,0,.15,1,1.88,1.88,0,0,0,1.6.29.33.33,0,0,1,.39.31.35.35,0,0,1-.31.39,2.52,2.52,0,0,1-2.21-.53,1.86,1.86,0,0,1-.3-1.67,2.85,2.85,0,0,1,5.59.33,2.22,2.22,0,0,1-.23,1.39,2.61,2.61,0,0,1-.95.91A5.65,5.65,0,0,1,339.39,334.67Z" transform="translate(-77.01 -79.47)"/><path class="cls-4" d="M338.47,341.93a4.3,4.3,0,0,1-1.77-.4,3.19,3.19,0,0,1-1.6-1.52,2,2,0,0,1,.37-2.26.35.35,0,1,1,.49.51,1.34,1.34,0,0,0-.22,1.46,2.5,2.5,0,0,0,1.26,1.17l.27.11a1.57,1.57,0,0,1-.27-.94,2.67,2.67,0,0,1,3.53-2.49,1.55,1.55,0,0,1,.83.57,1.5,1.5,0,0,1,.25.82,2.86,2.86,0,0,1-1.73,2.68A3.49,3.49,0,0,1,338.47,341.93Zm-.22-1.22a.59.59,0,0,1,.64.4s0,.06,0,.09a2.73,2.73,0,0,0,.69-.2,2.19,2.19,0,0,0,1.32-2,.84.84,0,0,0-.13-.46,1,1,0,0,0-.48-.31,2,2,0,0,0-1.76.27,2,2,0,0,0-.84,1.57.86.86,0,0,0,.19.58.2.2,0,0,0,.15.07h.21Z" transform="translate(-77.01 -79.47)"/><path class="cls-4" d="M326.79,341.65h-.15a1.7,1.7,0,0,1-.66-.14,1.46,1.46,0,0,1-.59-.57,2.64,2.64,0,0,1,1.39-3.9,1.73,1.73,0,0,1,1-.07,1.39,1.39,0,0,1,1,1.62,1.37,1.37,0,0,1-1.57,1,.35.35,0,0,1-.28-.41.34.34,0,0,1,.41-.28.65.65,0,0,0,.29-1.27,1.18,1.18,0,0,0-.6.05,1.93,1.93,0,0,0-1,2.87.89.89,0,0,0,.3.31,1.16,1.16,0,0,0,.37.07,3.46,3.46,0,0,0,2.47-.93c.14-.13.26-.27.39-.41a3.49,3.49,0,0,1,1.16-.95.35.35,0,0,1,.46.18.36.36,0,0,1-.18.47,2.88,2.88,0,0,0-.92.78l-.42.44A4.14,4.14,0,0,1,326.79,341.65Z" transform="translate(-77.01 -79.47)"/><path class="cls-4" d="M327.22,335.13a2.08,2.08,0,0,1-1.39-3.75,1.85,1.85,0,0,1,1.32-.48,1.3,1.3,0,0,1,1.18.93,1.07,1.07,0,0,1-.16.88,1,1,0,0,1-.67.44.36.36,0,0,1-.4-.31.35.35,0,0,1,.31-.39.31.31,0,0,0,.18-.13.4.4,0,0,0,.06-.31.62.62,0,0,0-.55-.4,1,1,0,0,0-.82.31,1.51,1.51,0,0,0-.33,1.94,1.79,1.79,0,0,0,2,.43,5.55,5.55,0,0,0,2-1.55.34.34,0,0,1,.5,0,.34.34,0,0,1,0,.49,6.08,6.08,0,0,1-2.25,1.74A2.75,2.75,0,0,1,327.22,335.13Z" transform="translate(-77.01 -79.47)"/><path class="cls-4" d="M325.85,327.72a2.71,2.71,0,0,1-.82-.12,2.57,2.57,0,0,1-1.69-2.61,2.92,2.92,0,0,1,1.91-2.45.87.87,0,0,1,.87.06.94.94,0,0,1,.28.44,2.39,2.39,0,0,1,.11,1.47,1.42,1.42,0,0,1-1.21,1.05.39.39,0,0,1-.37-.33.35.35,0,0,1,.33-.38.7.7,0,0,0,.57-.54,1.73,1.73,0,0,0-.09-1c0-.09-.05-.11-.05-.12a.63.63,0,0,0-.2,0,2.24,2.24,0,0,0-1.45,1.84,1.87,1.87,0,0,0,1.21,1.88,2.24,2.24,0,0,0,1.13,0,2.45,2.45,0,0,0,2-1.67.36.36,0,0,1,.42-.27.36.36,0,0,1,.27.43,3.17,3.17,0,0,1-2.54,2.21A4,4,0,0,1,325.85,327.72Z" transform="translate(-77.01 -79.47)"/><path class="cls-4" d="M322.24,321.17a3.89,3.89,0,0,1-1.43-.22,1.89,1.89,0,0,1-1.21-1.58,2,2,0,0,1,.35-1.1,2.66,2.66,0,0,1,1.78-1.31,1.76,1.76,0,0,1,2,1.14,1.39,1.39,0,0,1-.36,1.31,1.19,1.19,0,0,1-1.12.39.35.35,0,0,1-.27-.42.35.35,0,0,1,.42-.27.55.55,0,0,0,.46-.18.7.7,0,0,0,.19-.64,1.09,1.09,0,0,0-1.18-.64,2,2,0,0,0-1.29,1,1.27,1.27,0,0,0-.24.71,1.15,1.15,0,0,0,.77.94,3.6,3.6,0,0,0,1.52.17,6.31,6.31,0,0,0,2.12-.32A2.07,2.07,0,0,0,326,318.8a.36.36,0,0,1,.69.18,2.78,2.78,0,0,1-1.74,1.81,6.63,6.63,0,0,1-2.36.38Z" transform="translate(-77.01 -79.47)"/><path class="cls-4" d="M320.39,314.5a2.23,2.23,0,0,1-1.07-.26,3.25,3.25,0,0,1-1.48-2.39c-.28-1.28,0-2.28.76-2.68a2.5,2.5,0,0,1,1.09-.22,1.57,1.57,0,0,1,1.3.39,1.54,1.54,0,0,1,.27,1.05,2.07,2.07,0,0,1-.14.89,1,1,0,0,1-1,.58.35.35,0,0,1-.3-.4.37.37,0,0,1,.4-.3c.09,0,.18-.07.23-.18a1.59,1.59,0,0,0,.08-.6,1,1,0,0,0-.11-.58c-.13-.15-.43-.16-.73-.15a1.83,1.83,0,0,0-.79.14c-.68.36-.48,1.56-.4,1.91a2.65,2.65,0,0,0,1.12,1.92,1.91,1.91,0,0,0,1.56,0,5.44,5.44,0,0,0,1.48-1c.54-.47.76-.84.71-1.17a.35.35,0,0,1,.7-.11,2.12,2.12,0,0,1-1,1.81,5.68,5.68,0,0,1-1.68,1.12A2.82,2.82,0,0,1,320.39,314.5Z" transform="translate(-77.01 -79.47)"/><path class="cls-4" d="M307.31,293.23a18.25,18.25,0,0,1-8.87-2.28c-1.76-1-2.73-2.13-2.9-3.42a.36.36,0,0,1,.31-.39.34.34,0,0,1,.39.3c.14,1.05,1,2,2.54,2.89a17.62,17.62,0,0,0,14.59,1.11.37.37,0,0,1,.45.21.35.35,0,0,1-.21.45A17.86,17.86,0,0,1,307.31,293.23Z" transform="translate(-77.01 -79.47)"/><path class="cls-4" d="M329.18,286.63a.33.33,0,0,1-.32-.22.34.34,0,0,1,.2-.46A14.78,14.78,0,0,0,338.31,270a.35.35,0,0,1,.29-.41.35.35,0,0,1,.4.3,15.49,15.49,0,0,1-9.69,16.72A.27.27,0,0,1,329.18,286.63Z" transform="translate(-77.01 -79.47)"/><path class="cls-4" d="M311.62,299.54a.35.35,0,0,1-.25-.1,7.2,7.2,0,0,1-1.89-6.6.34.34,0,0,1,.42-.26.35.35,0,0,1,.27.42,6.47,6.47,0,0,0,1.7,5.94.35.35,0,0,1-.25.6Z" transform="translate(-77.01 -79.47)"/><path class="cls-4" d="M335.82,289.35h0a.36.36,0,0,1-.34-.36,9.73,9.73,0,0,0-1.6-5.57.36.36,0,0,1,.1-.49.35.35,0,0,1,.49.1,10.37,10.37,0,0,1,1.71,6A.35.35,0,0,1,335.82,289.35Z" transform="translate(-77.01 -79.47)"/><path class="cls-4" d="M330.94,358.51l-.73,0a8,8,0,0,1-5.36-1.87,7.35,7.35,0,0,1-2-5.39c0-.35,0-.71,0-1.07a7,7,0,0,0-.42-3.42c-.93-1.87-3.42-2.4-4.81-2.55-.5-.06-1-.09-1.51-.13a12.42,12.42,0,0,1-4.54-.87,1.72,1.72,0,0,1-.78-.62,1.79,1.79,0,0,1-.12-1.26A10.09,10.09,0,0,1,312,338a.35.35,0,1,1,.6.35,9.83,9.83,0,0,0-1.14,3.06,1.24,1.24,0,0,0,0,.77,1.18,1.18,0,0,0,.48.34,11.82,11.82,0,0,0,4.29.81q.76,0,1.53.12c2.66.29,4.57,1.34,5.37,2.95a7.48,7.48,0,0,1,.49,3.75c0,.35,0,.7,0,1.05a6.84,6.84,0,0,0,1.74,4.88,7.38,7.38,0,0,0,4.91,1.68,7.92,7.92,0,0,0,3.73-.57c1.72-.83,2.79-2.62,3.83-4.35,1.17-2,2.37-4,4.54-4.75a9.58,9.58,0,0,1,4.64-.07,11.18,11.18,0,0,0,3.73.13,6.27,6.27,0,0,0,4.37-3.78,10.11,10.11,0,0,0,.38-6,.35.35,0,1,1,.69-.15,10.71,10.71,0,0,1-.43,6.45,7,7,0,0,1-4.87,4.2,11.76,11.76,0,0,1-4-.13,8.83,8.83,0,0,0-4.31,0c-1.92.68-3,2.51-4.17,4.44s-2.21,3.7-4.12,4.63A7.85,7.85,0,0,1,330.94,358.51Z" transform="translate(-77.01 -79.47)"/><path class="cls-4" d="M329.55,364.65a9.84,9.84,0,0,1-8.61-5.09c-1.43-2.73-1.43-5.89-1.43-8.95a5.26,5.26,0,0,0-.38-2.41,3.91,3.91,0,0,0-3.48-1.67,17.15,17.15,0,0,0-1.75.06,12.74,12.74,0,0,1-2.69,0c-1.51-.21-3.25-1.21-3.5-2.89a.35.35,0,0,1,.3-.4.34.34,0,0,1,.4.3c.2,1.32,1.64,2.11,2.9,2.29a12.76,12.76,0,0,0,2.55,0,18.1,18.1,0,0,1,1.82-.07,4.57,4.57,0,0,1,4.07,2.06,5.62,5.62,0,0,1,.46,2.68c0,3,0,6.1,1.36,8.68a9.06,9.06,0,0,0,10.28,4.38c2.79-.82,5-3,7.17-5,2.36-2.27,4.81-4.63,8.05-5.31a17.37,17.37,0,0,1,2.37-.27,17.59,17.59,0,0,0,1.92-.2,9.76,9.76,0,0,0,7.93-11.69A.35.35,0,1,1,360,341a10.48,10.48,0,0,1-8.5,12.54,19.44,19.44,0,0,1-2,.2,17.29,17.29,0,0,0-2.28.26c-3,.64-5.3,2.82-7.7,5.13-2.21,2.13-4.5,4.34-7.46,5.2A8.89,8.89,0,0,1,329.55,364.65Z" transform="translate(-77.01 -79.47)"/><path class="cls-4" d="M313.47,381.32a15,15,0,0,1-1.88-.12c-4.18-.54-7.85-2.93-11-5.13l-1-.73c-2.89-2.06-5.87-4.19-9.25-5.25-3.19-1-8-1.07-10.89,2a.35.35,0,0,1-.49,0,.36.36,0,0,1,0-.5c2.6-2.73,7.16-3.59,11.61-2.19,3.49,1.09,6.52,3.25,9.45,5.35l1,.73c3.05,2.15,6.63,4.49,10.65,5,5.91.75,11.43-2.42,16.77-5.49l1-.58c4.95-2.83,12.27-6.29,18.65-3.59a23.53,23.53,0,0,1,5.08,3.29,36.42,36.42,0,0,0,2.95,2.15,19.34,19.34,0,0,0,18.26,1,40.11,40.11,0,0,0,5.94-3.74,44.9,44.9,0,0,1,5.38-3.47c4-2.09,9.6-2.77,13,.44a.36.36,0,0,1,0,.5.35.35,0,0,1-.5,0c-3.13-3-8.37-2.3-12.18-.33a45.91,45.91,0,0,0-5.29,3.42,40.05,40.05,0,0,1-6.05,3.81,20.08,20.08,0,0,1-18.94-1c-1-.67-2-1.44-3-2.19a22.65,22.65,0,0,0-4.93-3.2c-6.08-2.57-13.2.79-18,3.55l-1,.58C323.92,378.43,318.89,381.32,313.47,381.32Z" transform="translate(-77.01 -79.47)"/><path class="cls-4" d="M369.83,388.23a26.85,26.85,0,0,1-10.63-2.66c-1.26-.56-2.53-1.17-3.76-1.76a47.39,47.39,0,0,0-9.76-3.84,21.24,21.24,0,0,0-12.66.92,40.09,40.09,0,0,0-4.94,2.6,31.77,31.77,0,0,1-6.35,3.13c-4.38,1.39-9.08.82-13.1.08a35.15,35.15,0,0,1-9.83-3,43.38,43.38,0,0,1-5.68-3.72,42.67,42.67,0,0,0-5.59-3.66c-3.82-2-9.07-2.58-12.19.48a.35.35,0,0,1-.5,0,.36.36,0,0,1,0-.5c3.37-3.31,9-2.69,13-.61a42.9,42.9,0,0,1,5.69,3.73,43.87,43.87,0,0,0,5.58,3.65,34.44,34.44,0,0,0,9.64,3c3.93.73,8.53,1.29,12.75-.05a31.16,31.16,0,0,0,6.21-3.06,39.46,39.46,0,0,1,5-2.65,21.94,21.94,0,0,1,13.09-.95,47,47,0,0,1,9.91,3.89c1.22.58,2.48,1.19,3.74,1.74,5.68,2.51,10.14,3.18,14.05,2.13,3.17-.85,5.85-2.83,8.79-5.14l.14-.11c2.69-2.12,5.47-4.3,8.78-5.36,3.84-1.22,7.78-.46,10.05,1.94a.35.35,0,1,1-.51.48c-2.53-2.67-6.61-2.61-9.33-1.74-3.18,1-5.91,3.16-8.55,5.23l-.15.12c-3,2.35-5.74,4.37-9,5.26A15,15,0,0,1,369.83,388.23Z" transform="translate(-77.01 -79.47)"/><path class="cls-4" d="M249.84,417.64a.36.36,0,0,1-.35-.31.37.37,0,0,1,.31-.4c57.46-7.18,116.13-3.72,172.86-.37a.35.35,0,0,1,.33.37.33.33,0,0,1-.37.33c-56.71-3.34-115.34-6.8-172.73.37Z" transform="translate(-77.01 -79.47)"/><path class="cls-4" d="M249.27,414a.36.36,0,0,1-.35-.32.35.35,0,0,1,.32-.38,910.94,910.94,0,0,1,172.87-.45.36.36,0,0,1,.32.38.36.36,0,0,1-.39.32A909.58,909.58,0,0,0,249.3,414Z" transform="translate(-77.01 -79.47)"/><path class="cls-4" d="M297,366.89h-.67a37,37,0,0,1-10.17-1.67.35.35,0,1,1,.21-.67,36,36,0,0,0,10,1.63,14.93,14.93,0,0,0,4.54-.47c2.3-.68,4.48-2.31,6.66-5,1.48-1.81,3.75-5.3,2.36-8.41a5.63,5.63,0,0,0-4.57-3.1,8.43,8.43,0,0,0-5.55,1.59c-1.88,1.29-3.34,3.62-2.5,5.57a4.24,4.24,0,0,0,1.11,1.44,6.57,6.57,0,0,0,6.09,1.31,4.31,4.31,0,0,0,2.32-1.56A2.49,2.49,0,0,0,307,355,2.64,2.64,0,0,0,304.3,354a5.32,5.32,0,0,0-2.82,1.71.35.35,0,0,1-.5,0,.36.36,0,0,1,0-.5,6.07,6.07,0,0,1,3.2-1.91,3.29,3.29,0,0,1,3.47,1.42,3.17,3.17,0,0,1-.25,3.29,5,5,0,0,1-2.69,1.83,7.27,7.27,0,0,1-6.76-1.45,4.81,4.81,0,0,1-1.3-1.69c-1-2.3.64-5,2.75-6.43a9.17,9.17,0,0,1,6-1.71,6.36,6.36,0,0,1,5.14,3.52c1.54,3.45-.88,7.2-2.46,9.13-2.27,2.77-4.57,4.47-7,5.2A14.42,14.42,0,0,1,297,366.89Z" transform="translate(-77.01 -79.47)"/><path class="cls-4" d="M312,377.23c-2.66,0-5.08-1.48-7.3-3.08a10.38,10.38,0,0,1-2.62-2.45,4,4,0,0,1-.6-3.63.34.34,0,0,1,.45-.2.36.36,0,0,1,.21.45,3.32,3.32,0,0,0,.52,3,9.7,9.7,0,0,0,2.45,2.27c2.13,1.54,4.43,3,6.89,3h.26a10.35,10.35,0,0,0,4.08-1.24c2.93-1.44,4.77-3.12,5.64-5.12a7.06,7.06,0,0,0-2.5-8.36,4.62,4.62,0,0,0-1.87-.77,6.28,6.28,0,0,0-3.47.74c-1.12.53-3.73,2-3.87,4.4a4.41,4.41,0,0,0,1,2.89,5.12,5.12,0,0,0,3.61,1.87,3.36,3.36,0,0,0,2.66-.9,2.52,2.52,0,0,0,.76-2.33,1.71,1.71,0,0,0-1.77-1.28.34.34,0,0,1-.41-.28.35.35,0,0,1,.29-.41,2.38,2.38,0,0,1,2.57,1.8,3.21,3.21,0,0,1-.94,3,4.17,4.17,0,0,1-3.21,1.11,5.83,5.83,0,0,1-4.11-2.15,5.06,5.06,0,0,1-1.17-3.36c.11-1.95,1.67-3.77,4.27-5a7,7,0,0,1,3.88-.8,5.51,5.51,0,0,1,2.15.88,7.78,7.78,0,0,1,2.75,9.23c-.93,2.16-2.88,4-6,5.47a11,11,0,0,1-4.37,1.31Z" transform="translate(-77.01 -79.47)"/><path class="cls-4" d="M379,369a16.22,16.22,0,0,1-7.8-1.81,10.53,10.53,0,0,1-5.46-7.2,7.84,7.84,0,0,1,3.62-8.11,9.48,9.48,0,0,1,10.48,1.52,5.8,5.8,0,0,1,1.39,6c-1.09,2.71-4.2,3.78-6.62,4.19a5.15,5.15,0,0,1-2.7-.09,3.58,3.58,0,0,1-2-2.17,4.51,4.51,0,0,1,.47-3.9,4.58,4.58,0,0,1,3.24-2.24.35.35,0,0,1,.09.7,3.94,3.94,0,0,0-2.73,1.9,3.87,3.87,0,0,0-.41,3.3,2.89,2.89,0,0,0,1.59,1.75,4.27,4.27,0,0,0,2.32.05c2.24-.38,5.12-1.34,6.09-3.75a5.15,5.15,0,0,0-1.25-5.29,8,8,0,0,0-5.31-2.22,7.86,7.86,0,0,0-4.32.83,7.12,7.12,0,0,0-3.27,7.36,9.81,9.81,0,0,0,5.11,6.71A17.8,17.8,0,0,0,390.75,364a.35.35,0,0,1,.5.5A16.76,16.76,0,0,1,380.18,369Z" transform="translate(-77.01 -79.47)"/><path class="cls-4" d="M364.19,374.73a21.39,21.39,0,0,1-9.43-2.57,12.75,12.75,0,0,1-3.85-2.65,9.16,9.16,0,0,1-1.75-2.95,9.47,9.47,0,0,1,.28-7.6,7.15,7.15,0,0,1,6.42-3.91,5.82,5.82,0,0,1,5.48,4.94c.22,2.14-.94,4.42-3.1,6.11a6.69,6.69,0,0,1-3.26,1.49,3.75,3.75,0,0,1-3.41-1.25,3.36,3.36,0,0,1,.07-4.1,3.94,3.94,0,0,1,3.91-1.33.34.34,0,0,1,.26.42.36.36,0,0,1-.42.27,3.24,3.24,0,0,0-3.2,1.07,2.7,2.7,0,0,0-.07,3.23,3.1,3.1,0,0,0,2.78,1,6,6,0,0,0,2.9-1.34,6.47,6.47,0,0,0,2.84-5.49,5.08,5.08,0,0,0-4.81-4.3h-.23a6.46,6.46,0,0,0-5.54,3.54,8.74,8.74,0,0,0-.24,7,8.38,8.38,0,0,0,1.61,2.72,12,12,0,0,0,3.64,2.5c5.14,2.56,9.58,3.15,13.2,1.78a.35.35,0,1,1,.25.66A12.1,12.1,0,0,1,364.19,374.73Z" transform="translate(-77.01 -79.47)"/><path class="cls-4" d="M259,412.83a.34.34,0,0,1-.31-.2c-1.45-2.87-.71-6.85,1.8-9.68s5.95-4.16,8.73-5.08c.9-.3,1.81-.57,2.72-.85a41.36,41.36,0,0,0,6.7-2.45,21.08,21.08,0,0,0,11.27-17.4.36.36,0,0,1,.27-.33.37.37,0,0,1,.39.16,17.45,17.45,0,0,1-1.09,18.89,34.56,34.56,0,0,1-3.09,3.4,34.54,34.54,0,0,0-2.94,3.22c-2.08,2.72-2.77,5.7-1.83,8a.35.35,0,0,1-.65.27c-1-2.51-.32-5.76,1.92-8.68a36.14,36.14,0,0,1,3-3.29,32.76,32.76,0,0,0,3-3.32,16.75,16.75,0,0,0,1.61-17.05,21.52,21.52,0,0,1-11.56,16.78,43,43,0,0,1-6.82,2.5c-.9.27-1.8.54-2.69.84-2.7.89-6.1,2.26-8.43,4.88s-3,6.27-1.7,8.89a.35.35,0,0,1-.16.48A.42.42,0,0,1,259,412.83Z" transform="translate(-77.01 -79.47)"/><path class="cls-4" d="M304.77,410.57a.35.35,0,0,1-.35-.35c0-2.8,1.27-5.68,3.83-8.55,1-1.16,2.18-2.23,3.29-3.27s2.28-2.15,3.31-3.31c1.67-1.89,3.64-4.83,3.58-8.1a.35.35,0,0,1,.67-.16c1.69,3.71,3.41,8,2.29,12.14a20,20,0,0,1-1.24,3.1c-.31.66-.64,1.34-.89,2-.43,1.15-1,3.34,0,5a.35.35,0,0,1-.12.48.36.36,0,0,1-.49-.12,6.51,6.51,0,0,1-.06-5.64c.26-.71.59-1.41.91-2.09a19,19,0,0,0,1.2-3c.93-3.45-.25-7.09-1.67-10.36a14.2,14.2,0,0,1-3.66,7.13c-1.05,1.19-2.23,2.29-3.36,3.35s-2.23,2.1-3.24,3.23c-2.44,2.74-3.67,5.46-3.66,8.08a.35.35,0,0,1-.35.35Z" transform="translate(-77.01 -79.47)"/><path class="cls-4" d="M409.74,411.55h0a.36.36,0,0,1-.34-.37,13.18,13.18,0,0,0-4.7-10.37,26.5,26.5,0,0,0-4.3-2.69c-.58-.31-1.17-.63-1.74-1a23.72,23.72,0,0,1-8.48-7.77,15.11,15.11,0,0,1-2.33-9.81,15.59,15.59,0,0,0-3.43,6.47c-.67,3.47.79,7,2.19,10.32.22.53.45,1.07.66,1.59,1.49,3.71,2.68,8.87-.13,12.4a.34.34,0,0,1-.49.06.36.36,0,0,1-.06-.5c2.6-3.27,1.45-8.16,0-11.69l-.66-1.59c-1.45-3.46-2.94-7-2.24-10.73.6-3.09,2.66-5.63,4.47-7.88a.35.35,0,0,1,.43-.09.34.34,0,0,1,.18.4,14,14,0,0,0,2,10.68,23,23,0,0,0,8.23,7.53c.57.33,1.15.64,1.73.95a27.85,27.85,0,0,1,4.41,2.77,13.86,13.86,0,0,1,4.95,10.94A.35.35,0,0,1,409.74,411.55Z" transform="translate(-77.01 -79.47)"/><path class="cls-4" d="M362.2,410a.35.35,0,0,1-.17,0,.35.35,0,0,1-.14-.47,10.79,10.79,0,0,0-.57-10.89,22.09,22.09,0,0,0-3.14-3.42,26.62,26.62,0,0,1-2.79-2.92,13.4,13.4,0,0,1-2.78-8.36c-2.3,3.28-4.1,6.35-4.11,9.83a19.63,19.63,0,0,0,1.07,5.54c.24.79.48,1.6.67,2.42.58,2.43.84,5.83-1.19,8.17a.35.35,0,1,1-.54-.46c1.85-2.11,1.59-5.27,1-7.55-.19-.8-.42-1.6-.65-2.38a20,20,0,0,1-1.1-5.75c0-4,2.25-7.48,4.95-11.24a.35.35,0,0,1,.41-.12.35.35,0,0,1,.23.36,12.7,12.7,0,0,0,2.55,9.1,25.34,25.34,0,0,0,2.73,2.85,22.61,22.61,0,0,1,3.23,3.53,11.52,11.52,0,0,1,.61,11.62A.34.34,0,0,1,362.2,410Z" transform="translate(-77.01 -79.47)"/><path class="cls-4" d="M397.31,411.4a.28.28,0,0,1-.15,0,.36.36,0,0,1-.17-.47,7.57,7.57,0,0,0,.84-4.77c-.4-2-2-3.57-3.24-4.85l-1.91-1.94a17.73,17.73,0,0,1-3.09-3.78,6.29,6.29,0,0,1-.69-4.89.35.35,0,1,1,.67.22,5.57,5.57,0,0,0,.64,4.33,16.92,16.92,0,0,0,3,3.62l1.91,1.95c1.33,1.35,3,3,3.43,5.19a8.35,8.35,0,0,1-.89,5.23A.37.37,0,0,1,397.31,411.4Z" transform="translate(-77.01 -79.47)"/><path class="cls-4" d="M355.72,410a.33.33,0,0,1-.17,0,.35.35,0,0,1-.14-.48c1.07-2,2.14-4.82,1.2-7.36a11.31,11.31,0,0,0-2.46-3.51,16.5,16.5,0,0,1-2.17-2.8,8.09,8.09,0,0,1-.76-5.9.35.35,0,0,1,.43-.25.34.34,0,0,1,.26.42,7.34,7.34,0,0,0,.69,5.39,15.11,15.11,0,0,0,2.08,2.67,12,12,0,0,1,2.59,3.73c.82,2.21.39,5-1.24,7.95A.36.36,0,0,1,355.72,410Z" transform="translate(-77.01 -79.47)"/><path class="cls-4" d="M311.69,410.16a.35.35,0,0,1-.34-.26,4.64,4.64,0,0,1,1.08-3.84,16.53,16.53,0,0,1,1.44-1.56c.4-.4.82-.81,1.18-1.24a9.41,9.41,0,0,0,2-7.93.34.34,0,0,1,.27-.42.37.37,0,0,1,.42.27,10.18,10.18,0,0,1-2.11,8.54c-.38.45-.81.87-1.22,1.28a14.94,14.94,0,0,0-1.38,1.49,3.91,3.91,0,0,0-1,3.23.35.35,0,0,1-.25.43Z" transform="translate(-77.01 -79.47)"/><path class="cls-4" d="M270.33,412.44a.33.33,0,0,1-.32-.22c-.9-2.11.5-4.46,2.28-5.85a24.66,24.66,0,0,1,2.06-1.38,13.09,13.09,0,0,0,3-2.25c1.6-1.74,2.15-4.22,2.65-6.4a.35.35,0,0,1,.42-.27.35.35,0,0,1,.27.42c-.49,2.16-1.1,4.84-2.82,6.73a13.92,13.92,0,0,1-3.15,2.37,24,24,0,0,0-2,1.34c-1.52,1.18-2.81,3.26-2.06,5a.36.36,0,0,1-.33.49Z" transform="translate(-77.01 -79.47)"/><path class="cls-4" d="M261.4,165.71a.35.35,0,0,1-.23-.62,50.06,50.06,0,0,0,14.12-18.66,33.61,33.61,0,0,0,1.49-22.8,327.1,327.1,0,0,0-60.93-4c-6.32.18-13.51.7-18.65,4.73a.34.34,0,0,1-.49-.06.35.35,0,0,1,0-.49c5.32-4.17,12.63-4.71,19.07-4.88A327.45,327.45,0,0,1,277.11,123a.35.35,0,0,1,.28.24A34.31,34.31,0,0,1,276,146.7a50.9,50.9,0,0,1-14.32,18.93A.34.34,0,0,1,261.4,165.71Z" transform="translate(-77.01 -79.47)"/><path class="cls-4" d="M256.93,112.52a16.29,16.29,0,0,1-6.19-1.21,16.62,16.62,0,0,1-9.88-12.77,20.21,20.21,0,0,1,1.22-9.75,15.15,15.15,0,0,1,8.83-9.29.35.35,0,0,1,.45.19.34.34,0,0,1-.2.46A14.51,14.51,0,0,0,242.74,89a19.56,19.56,0,0,0-1.18,9.41,15.6,15.6,0,0,0,24.79,10.31,11.26,11.26,0,0,0,3.57-4.18,10.32,10.32,0,0,0-.8-9.68A13.89,13.89,0,0,0,261,89.12a8.58,8.58,0,0,0-4.53-.2,8.75,8.75,0,0,0-3.08,1.71A12.65,12.65,0,0,0,248.82,97a7.49,7.49,0,0,0,1.65,7.23c1.8,1.79,4.41,2.28,7.39,2.7a.37.37,0,0,1,.3.4.36.36,0,0,1-.4.3c-2.39-.34-5.67-.8-7.78-2.89a8.18,8.18,0,0,1-1.84-7.92,13.39,13.39,0,0,1,4.77-6.71,9.73,9.73,0,0,1,3.34-1.83,9.19,9.19,0,0,1,4.89.2,14.65,14.65,0,0,1,8.58,6.07,11.06,11.06,0,0,1,.84,10.36,12,12,0,0,1-3.79,4.45A16.49,16.49,0,0,1,256.93,112.52Z" transform="translate(-77.01 -79.47)"/><path class="cls-4" d="M278.49,130.18h-.07c-49.86-10.08-78.52-1.13-78.8-1a.35.35,0,0,1-.22-.67c.29-.1,29.12-9.1,79.16,1a.35.35,0,0,1,.27.42A.34.34,0,0,1,278.49,130.18Z" transform="translate(-77.01 -79.47)"/><path class="cls-4" d="M278.49,135.52l-.11,0c-39.73-12.12-76-.42-76.39-.3a.35.35,0,0,1-.44-.22.36.36,0,0,1,.22-.45c.37-.12,36.87-11.89,76.82.3a.35.35,0,0,1-.1.69Z" transform="translate(-77.01 -79.47)"/><path class="cls-4" d="M223.45,142.3a.38.38,0,0,1-.17,0,.35.35,0,0,1-.13-.48,6.86,6.86,0,0,0,.53-5.41c-.12-.36-.27-.7-.41-1.05a8.92,8.92,0,0,1-.62-1.78,2.89,2.89,0,0,1,1-3,.36.36,0,0,1,.38.6,2.19,2.19,0,0,0-.71,2.29,9,9,0,0,0,.57,1.65c.16.36.31.72.44,1.1a7.54,7.54,0,0,1-.59,6A.33.33,0,0,1,223.45,142.3Z" transform="translate(-77.01 -79.47)"/><path class="cls-4" d="M232.85,144.55a.41.41,0,0,1-.19-.05.36.36,0,0,1-.11-.49,9,9,0,0,0,1.19-6.07,17.14,17.14,0,0,0-.63-2.44c-.17-.54-.33-1.07-.47-1.61a6.61,6.61,0,0,1,.14-4.38.34.34,0,0,1,.46-.17.34.34,0,0,1,.18.46,6,6,0,0,0-.09,3.92c.13.53.29,1.05.45,1.57a17.86,17.86,0,0,1,.66,2.54,9.76,9.76,0,0,1-1.29,6.55A.35.35,0,0,1,232.85,144.55Z" transform="translate(-77.01 -79.47)"/><path class="cls-4" d="M238.5,151.14a.31.31,0,0,1-.2-.07.34.34,0,0,1-.08-.49,26.45,26.45,0,0,0,3-5,13,13,0,0,0,.76-7.42c-.1-.53-.23-1-.36-1.56a16,16,0,0,1-.52-2.6,4.94,4.94,0,0,1,1.29-4.18.35.35,0,0,1,.5,0,.36.36,0,0,1,0,.5,4.24,4.24,0,0,0-1.07,3.6,16.26,16.26,0,0,0,.5,2.48c.14.53.27,1.07.38,1.61a13.85,13.85,0,0,1-.81,7.82,26.65,26.65,0,0,1-3.06,5.09A.35.35,0,0,1,238.5,151.14Z" transform="translate(-77.01 -79.47)"/><path class="cls-4" d="M247.48,152.53a.35.35,0,0,1-.27-.14.34.34,0,0,1,0-.49c3.43-2.76,5.31-6.41,5-9.78a17.1,17.1,0,0,0-.74-3.29c-.22-.74-.45-1.51-.61-2.28-.23-1.15-.57-4,1.3-5.73a.35.35,0,0,1,.49,0,.34.34,0,0,1,0,.5c-1.6,1.48-1.28,4-1.08,5.07.15.74.38,1.49.59,2.22a17.8,17.8,0,0,1,.78,3.43c.31,3.6-1.66,7.48-5.28,10.39A.35.35,0,0,1,247.48,152.53Z" transform="translate(-77.01 -79.47)"/><path class="cls-4" d="M255.29,151.28a.32.32,0,0,1-.25-.11.33.33,0,0,1,0-.49c1.48-1.44,3.33-3.22,3.87-5.45a12.26,12.26,0,0,0-.31-5.3c-.1-.52-.21-1-.3-1.55-.3-1.81-.48-5.12,1.74-6.89a.35.35,0,0,1,.49.06.36.36,0,0,1-.05.5c-1.94,1.54-1.76,4.55-1.48,6.21.09.51.19,1,.29,1.53a12.69,12.69,0,0,1,.31,5.61c-.6,2.43-2.53,4.29-4.08,5.78A.31.31,0,0,1,255.29,151.28Z" transform="translate(-77.01 -79.47)"/><path class="cls-4" d="M264.27,157.16A.37.37,0,0,1,264,157a.36.36,0,0,1,.05-.5c2.86-2.32,6-5.1,6.73-8.88a12.17,12.17,0,0,0,.06-3.84,18.72,18.72,0,0,0-.92-3.86c-.14-.41-.3-.82-.46-1.24-.74-1.91-1.5-3.88-1-5.88a.35.35,0,0,1,.43-.25.35.35,0,0,1,.25.43c-.48,1.78.24,3.65.94,5.45.16.42.32.84.47,1.25a20.35,20.35,0,0,1,.95,4,12.72,12.72,0,0,1-.07,4.07c-.77,3.81-3.81,6.72-7,9.29A.37.37,0,0,1,264.27,157.16Z" transform="translate(-77.01 -79.47)"/><path class="cls-7" d="M232.61,241.12,202.13,376.41a3.11,3.11,0,0,1-5.77.62L143.74,257.12l-8.58,3.55,61.5,146.7a5.74,5.74,0,0,0,10.81-.7l42.75-152.48S256.48,234.87,232.61,241.12Z" transform="translate(-77.01 -79.47)"/><path class="cls-8" d="M108.09,260.59a62.87,62.87,0,0,1-7.81,1.6,29.12,29.12,0,0,1-3.93.25,8.3,8.3,0,0,1-3.63-.76A37.82,37.82,0,0,1,86,257.4c-1.06-.82-2.11-1.66-3.14-2.53l-1.54-1.32c-.48-.47-1.1-.81-1.32-1.54a.71.71,0,0,0-.89-.46.7.7,0,0,0-.46.88.69.69,0,0,0,.48.47c.75.22,1.12.8,1.64,1.25l1.48,1.41c1,.92,2,1.83,3.06,2.71A37.6,37.6,0,0,0,92.07,263a9.5,9.5,0,0,0,2.05.8,10.32,10.32,0,0,0,2.16.31,32.33,32.33,0,0,0,4.18,0,65.25,65.25,0,0,0,8.21-1.1,1.24,1.24,0,0,0-.47-2.44l-.08,0Z" transform="translate(-77.01 -79.47)"/><path class="cls-9" d="M106.66,256.15c-2.63.69-5.29,1.33-8,1.86a40,40,0,0,1-4,.6,11.26,11.26,0,0,1-1.91.05,4,4,0,0,1-1.57-.77c-2.22-1.54-4.34-3.31-6.46-5l-3.17-2.63L80,248.9l-.79-.66a1.36,1.36,0,0,1-.58-.9.82.82,0,0,0-.92-.7.82.82,0,0,0,.09,1.63,1.39,1.39,0,0,1,1,.47l.76.7,1.53,1.38,3.09,2.73c2.08,1.81,4.15,3.61,6.36,5.31a5,5,0,0,0,2.07,1.08,12.57,12.57,0,0,0,2.2.05c1.41-.07,2.79-.23,4.16-.43,2.75-.37,5.47-.85,8.19-1.39a1,1,0,1,0-.41-2h-.07Z" transform="translate(-77.01 -79.47)"/><path class="cls-10" d="M105.67,251.44c-2.53.71-5.08,1.4-7.63,2-1.28.3-2.56.59-3.82.8-.3,0-.64.1-.89.11l-.21,0-.1,0a.94.94,0,0,1-.28-.1,12,12,0,0,1-1.57-.94C89,251.84,87,250.15,85,248.46l-3-2.59-1.48-1.31c-.47-.46-1.07-.79-1.31-1.49a.7.7,0,1,0-1.32.46.72.72,0,0,0,.46.44c.71.21,1.08.79,1.58,1.23l1.42,1.38,2.89,2.73c2,1.81,3.9,3.6,6,5.24a12.75,12.75,0,0,0,1.78,1.17,2.7,2.7,0,0,0,1.31.32c.41,0,.72-.05,1.08-.08,1.36-.17,2.67-.4,4-.64,2.62-.47,5.22-1,7.82-1.55a1.2,1.2,0,1,0-.5-2.35h-.08Z" transform="translate(-77.01 -79.47)"/><path class="cls-11" d="M136.7,263.88s-4-12-14.73-8.22-11.26,5-11.26,5,1.59,4.94-.79,5.41-4.46-2.91-4.46-2.91-3.23-14.72-3.15-16.63-.84-7.94,9-5.9,14.23,2.53,15.12-1.62c0,0,4.09.14.8,4.64a7.57,7.57,0,0,0,3.11.61c1.78,0,12.38,3.21,14,16Zm-22.43-19.69c-1.93,0-8.17-.51-8.26,2.56s5.09,1.88,5.09,1.88c-5.75-.65-2.28-3,.88-3.14S114.27,244.19,114.27,244.19Z" transform="translate(-77.01 -79.47)"/><path class="cls-12" d="M389.79,216.91,359.31,352.2a3.1,3.1,0,0,1-5.76.62L300.93,232.91l-8.58,3.55,61.5,146.7a5.73,5.73,0,0,0,10.8-.7L407.41,230S413.66,210.66,389.79,216.91Z" transform="translate(-77.01 -79.47)"/><path class="cls-13" d="M265.27,236.38a62.49,62.49,0,0,1-7.81,1.6,28.89,28.89,0,0,1-3.93.24,8,8,0,0,1-3.63-.76,36.79,36.79,0,0,1-6.7-4.27c-1.07-.82-2.12-1.66-3.15-2.53l-1.54-1.32c-.48-.47-1.09-.81-1.32-1.54a.71.71,0,1,0-.87.89,4.38,4.38,0,0,1,1.64,1.25l1.48,1.4c1,.93,2,1.84,3.06,2.72a38,38,0,0,0,6.75,4.77,9.39,9.39,0,0,0,2.06.8,11,11,0,0,0,2.15.31,30.8,30.8,0,0,0,4.19-.06,64.83,64.83,0,0,0,8.2-1.09,1.24,1.24,0,1,0-.47-2.44l-.08,0Z" transform="translate(-77.01 -79.47)"/><path class="cls-14" d="M263.84,231.93c-2.62.7-5.29,1.34-8,1.87-1.33.25-2.68.47-4,.6a11.41,11.41,0,0,1-1.92,0,3.94,3.94,0,0,1-1.56-.77c-2.22-1.54-4.34-3.31-6.47-5L238.76,226l-1.57-1.33-.78-.67a1.29,1.29,0,0,1-.59-.89.82.82,0,1,0-.82.93,1.38,1.38,0,0,1,1,.47l.76.69,1.54,1.38,3.08,2.74c2.08,1.81,4.15,3.6,6.36,5.31a4.94,4.94,0,0,0,2.07,1.07,11.74,11.74,0,0,0,2.2.06c1.41-.07,2.79-.23,4.17-.43,2.75-.37,5.46-.85,8.18-1.39a1,1,0,0,0,.82-1.23,1,1,0,0,0-1.22-.81h-.08Z" transform="translate(-77.01 -79.47)"/><path class="cls-15" d="M262.85,227.22c-2.53.72-5.08,1.41-7.63,2-1.27.29-2.56.59-3.82.8-.3,0-.64.1-.89.11h-.2c-.06,0-.07,0-.11,0a.92.92,0,0,1-.27-.1,10.67,10.67,0,0,1-1.58-1c-2.12-1.47-4.16-3.16-6.17-4.86l-3-2.58-1.49-1.31c-.46-.47-1.06-.8-1.31-1.49a.69.69,0,1,0-1.31.46.7.7,0,0,0,.45.44c.72.21,1.08.79,1.58,1.22l1.42,1.39,2.89,2.73c2,1.81,3.9,3.59,6.05,5.24a13.37,13.37,0,0,0,1.78,1.17,2.83,2.83,0,0,0,1.32.32c.4,0,.72-.05,1.07-.08,1.36-.17,2.67-.4,4-.65,2.63-.46,5.22-1,7.83-1.54a1.21,1.21,0,0,0-.5-2.36l-.08,0Z" transform="translate(-77.01 -79.47)"/><path class="cls-16" d="M293.88,239.66s-4-12-14.73-8.21-11.26,5-11.26,5,1.59,4.95-.79,5.42-4.46-2.91-4.46-2.91-3.23-14.72-3.15-16.64-.84-7.94,9-5.9,14.22,2.54,15.12-1.61c0,0,4.08.14.8,4.63a7.38,7.38,0,0,0,3.11.61c1.77,0,12.37,3.22,14,16.05ZM271.45,220c-1.93,0-8.17-.51-8.26,2.56s5.09,1.88,5.09,1.88c-5.74-.65-2.28-3,.88-3.14S271.45,220,271.45,220Z" transform="translate(-77.01 -79.47)"/></svg>